<?xml version="1.0" standalone="no"?>
<!DOCTYPE svg PUBLIC "-//W3C//DTD SVG 1.1//EN" "http://www.w3.org/Graphics/SVG/1.1/DTD/svg11.dtd" >
<svg xmlns="http://www.w3.org/2000/svg">
<metadata></metadata>
<defs>
<font id="tele" horiz-adv-x="960" >
<font-face units-per-em="2048" ascent="1638" descent="-410" />
<missing-glyph horiz-adv-x="500" />
<glyph horiz-adv-x="0" />
<glyph unicode="&#xd;" />
<glyph d="M20 80q0 24 18 42t42 18t42 -18t18 -42t-18 -42t-42 -18t-42 18t-18 42zM20 240q0 24 18 42t42 18t42 -18t18 -42t-18 -42t-42 -18t-42 18t-18 42zM20 400q0 24 18 42t42 18t42 -18t18 -42t-18 -42t-42 -18t-42 18t-18 42zM20 560q0 24 18 42t42 18t42 -18t18 -42 t-18 -42t-42 -18t-42 18t-18 42zM20 720q0 24 18 42t42 18t42 -18t18 -42t-18 -42t-42 -18t-42 18t-18 42zM20 880q0 24 18 42t42 18t42 -18t18 -42t-18 -42t-42 -18t-42 18t-18 42zM20 1040q0 24 18 42t42 18t42 -18t18 -42t-18 -42t-42 -18t-42 18t-18 42zM180 80 q0 24 18 42t42 18t42 -18t18 -42t-18 -42t-42 -18t-42 18t-18 42zM180 240q0 24 18 42t42 18t42 -18t18 -42t-18 -42t-42 -18t-42 18t-18 42zM180 400q0 24 18 42t42 18t42 -18t18 -42t-18 -42t-42 -18t-42 18t-18 42zM180 560q0 24 18 42t42 18t42 -18t18 -42t-18 -42 t-42 -18t-42 18t-18 42zM180 720q0 24 18 42t42 18t42 -18t18 -42t-18 -42t-42 -18t-42 18t-18 42zM180 880q0 24 18 42t42 18t42 -18t18 -42t-18 -42t-42 -18t-42 18t-18 42zM180 1040q0 24 18 42t42 18t42 -18t18 -42t-18 -42t-42 -18t-42 18t-18 42zM340 80q0 24 18 42 t42 18t42 -18t18 -42t-18 -42t-42 -18t-42 18t-18 42zM340 240q0 24 18 42t42 18t42 -18t18 -42t-18 -42t-42 -18t-42 18t-18 42zM340 400q0 24 18 42t42 18t42 -18t18 -42t-18 -42t-42 -18t-42 18t-18 42zM340 560q0 24 18 42t42 18t42 -18t18 -42t-18 -42t-42 -18t-42 18 t-18 42zM340 720q0 24 18 42t42 18t42 -18t18 -42t-18 -42t-42 -18t-42 18t-18 42zM340 880q0 24 18 42t42 18t42 -18t18 -42t-18 -42t-42 -18t-42 18t-18 42zM340 1040q0 24 18 42t42 18t42 -18t18 -42t-18 -42t-42 -18t-42 18t-18 42zM500 80q0 24 18 42t42 18t42 -18 t18 -42t-18 -42t-42 -18t-42 18t-18 42zM500 240q0 24 18 42t42 18t42 -18t18 -42t-18 -42t-42 -18t-42 18t-18 42zM500 400q0 24 18 42t42 18t42 -18t18 -42t-18 -42t-42 -18t-42 18t-18 42zM500 560q0 24 18 42t42 18t42 -18t18 -42t-18 -42t-42 -18t-42 18t-18 42z M500 720q0 24 18 42t42 18t42 -18t18 -42t-18 -42t-42 -18t-42 18t-18 42zM500 880q0 24 18 42t42 18t42 -18t18 -42t-18 -42t-42 -18t-42 18t-18 42zM500 1040q0 24 18 42t42 18t42 -18t18 -42t-18 -42t-42 -18t-42 18t-18 42zM660 80q0 24 18 42t42 18t42 -18t18 -42 t-18 -42t-42 -18t-42 18t-18 42zM660 240q0 24 18 42t42 18t42 -18t18 -42t-18 -42t-42 -18t-42 18t-18 42zM660 400q0 24 18 42t42 18t42 -18t18 -42t-18 -42t-42 -18t-42 18t-18 42zM660 560q0 24 18 42t42 18t42 -18t18 -42t-18 -42t-42 -18t-42 18t-18 42zM660 720 q0 24 18 42t42 18t42 -18t18 -42t-18 -42t-42 -18t-42 18t-18 42zM660 880q0 24 18 42t42 18t42 -18t18 -42t-18 -42t-42 -18t-42 18t-18 42zM660 1040q0 24 18 42t42 18t42 -18t18 -42t-18 -42t-42 -18t-42 18t-18 42z" />
<glyph unicode=" " />
<glyph unicode="!" d="M340 80q0 24 18 42t42 18t42 -18t18 -42t-18 -42t-42 -18t-42 18t-18 42zM340 400q0 24 18 42t42 18t42 -18t18 -42t-18 -42t-42 -18t-42 18t-18 42zM340 560q0 24 18 42t42 18t42 -18t18 -42t-18 -42t-42 -18t-42 18t-18 42zM340 720q0 24 18 42t42 18t42 -18t18 -42 t-18 -42t-42 -18t-42 18t-18 42zM340 880q0 24 18 42t42 18t42 -18t18 -42t-18 -42t-42 -18t-42 18t-18 42zM340 1040q0 24 18 42t42 18t42 -18t18 -42t-18 -42t-42 -18t-42 18t-18 42z" />
<glyph unicode="&#x22;" d="M180 880q0 24 18 42t42 18t42 -18t18 -42t-18 -42t-42 -18t-42 18t-18 42zM180 1040q0 24 18 42t42 18t42 -18t18 -42t-18 -42t-42 -18t-42 18t-18 42zM500 880q0 24 18 42t42 18t42 -18t18 -42t-18 -42t-42 -18t-42 18t-18 42zM500 1040q0 24 18 42t42 18t42 -18t18 -42 t-18 -42t-42 -18t-42 18t-18 42z" />
<glyph unicode="#" d="M20 240q0 24 18 42t42 18t42 -18t18 -42t-18 -42t-42 -18t-42 18t-18 42zM20 880q0 24 18 42t42 18t42 -18t18 -42t-18 -42t-42 -18t-42 18t-18 42zM180 80q0 24 18 42t42 18t42 -18t18 -42t-18 -42t-42 -18t-42 18t-18 42zM180 240q0 24 18 42t42 18t42 -18t18 -42 t-18 -42t-42 -18t-42 18t-18 42zM180 400q0 24 18 42t42 18t42 -18t18 -42t-18 -42t-42 -18t-42 18t-18 42zM180 560q0 24 18 42t42 18t42 -18t18 -42t-18 -42t-42 -18t-42 18t-18 42zM180 720q0 24 18 42t42 18t42 -18t18 -42t-18 -42t-42 -18t-42 18t-18 42zM180 880 q0 24 18 42t42 18t42 -18t18 -42t-18 -42t-42 -18t-42 18t-18 42zM180 1040q0 24 18 42t42 18t42 -18t18 -42t-18 -42t-42 -18t-42 18t-18 42zM340 240q0 24 18 42t42 18t42 -18t18 -42t-18 -42t-42 -18t-42 18t-18 42zM340 880q0 24 18 42t42 18t42 -18t18 -42t-18 -42 t-42 -18t-42 18t-18 42zM500 80q0 24 18 42t42 18t42 -18t18 -42t-18 -42t-42 -18t-42 18t-18 42zM500 240q0 24 18 42t42 18t42 -18t18 -42t-18 -42t-42 -18t-42 18t-18 42zM500 400q0 24 18 42t42 18t42 -18t18 -42t-18 -42t-42 -18t-42 18t-18 42zM500 560q0 24 18 42 t42 18t42 -18t18 -42t-18 -42t-42 -18t-42 18t-18 42zM500 720q0 24 18 42t42 18t42 -18t18 -42t-18 -42t-42 -18t-42 18t-18 42zM500 880q0 24 18 42t42 18t42 -18t18 -42t-18 -42t-42 -18t-42 18t-18 42zM500 1040q0 24 18 42t42 18t42 -18t18 -42t-18 -42t-42 -18t-42 18 t-18 42zM660 240q0 24 18 42t42 18t42 -18t18 -42t-18 -42t-42 -18t-42 18t-18 42zM660 880q0 24 18 42t42 18t42 -18t18 -42t-18 -42t-42 -18t-42 18t-18 42z" />
<glyph unicode="$" d="M20 240q0 24 18 42t42 18t42 -18t18 -42t-18 -42t-42 -18t-42 18t-18 42zM20 720q0 24 18 42t42 18t42 -18t18 -42t-18 -42t-42 -18t-42 18t-18 42zM180 240q0 24 18 42t42 18t42 -18t18 -42t-18 -42t-42 -18t-42 18t-18 42zM180 560q0 24 18 42t42 18t42 -18t18 -42 t-18 -42t-42 -18t-42 18t-18 42zM180 880q0 24 18 42t42 18t42 -18t18 -42t-18 -42t-42 -18t-42 18t-18 42zM340 80q0 24 18 42t42 18t42 -18t18 -42t-18 -42t-42 -18t-42 18t-18 42zM340 240q0 24 18 42t42 18t42 -18t18 -42t-18 -42t-42 -18t-42 18t-18 42zM340 400 q0 24 18 42t42 18t42 -18t18 -42t-18 -42t-42 -18t-42 18t-18 42zM340 560q0 24 18 42t42 18t42 -18t18 -42t-18 -42t-42 -18t-42 18t-18 42zM340 720q0 24 18 42t42 18t42 -18t18 -42t-18 -42t-42 -18t-42 18t-18 42zM340 880q0 24 18 42t42 18t42 -18t18 -42t-18 -42 t-42 -18t-42 18t-18 42zM340 1040q0 24 18 42t42 18t42 -18t18 -42t-18 -42t-42 -18t-42 18t-18 42zM500 240q0 24 18 42t42 18t42 -18t18 -42t-18 -42t-42 -18t-42 18t-18 42zM500 560q0 24 18 42t42 18t42 -18t18 -42t-18 -42t-42 -18t-42 18t-18 42zM500 880q0 24 18 42 t42 18t42 -18t18 -42t-18 -42t-42 -18t-42 18t-18 42zM660 400q0 24 18 42t42 18t42 -18t18 -42t-18 -42t-42 -18t-42 18t-18 42zM660 880q0 24 18 42t42 18t42 -18t18 -42t-18 -42t-42 -18t-42 18t-18 42z" />
<glyph unicode="%" d="M20 80q0 24 18 42t42 18t42 -18t18 -42t-18 -42t-42 -18t-42 18t-18 42zM20 240q0 24 18 42t42 18t42 -18t18 -42t-18 -42t-42 -18t-42 18t-18 42zM20 880q0 24 18 42t42 18t42 -18t18 -42t-18 -42t-42 -18t-42 18t-18 42zM20 1040q0 24 18 42t42 18t42 -18t18 -42 t-18 -42t-42 -18t-42 18t-18 42zM180 400q0 24 18 42t42 18t42 -18t18 -42t-18 -42t-42 -18t-42 18t-18 42zM180 880q0 24 18 42t42 18t42 -18t18 -42t-18 -42t-42 -18t-42 18t-18 42zM180 1040q0 24 18 42t42 18t42 -18t18 -42t-18 -42t-42 -18t-42 18t-18 42zM340 560 q0 24 18 42t42 18t42 -18t18 -42t-18 -42t-42 -18t-42 18t-18 42zM500 80q0 24 18 42t42 18t42 -18t18 -42t-18 -42t-42 -18t-42 18t-18 42zM500 240q0 24 18 42t42 18t42 -18t18 -42t-18 -42t-42 -18t-42 18t-18 42zM500 720q0 24 18 42t42 18t42 -18t18 -42t-18 -42 t-42 -18t-42 18t-18 42zM660 80q0 24 18 42t42 18t42 -18t18 -42t-18 -42t-42 -18t-42 18t-18 42zM660 240q0 24 18 42t42 18t42 -18t18 -42t-18 -42t-42 -18t-42 18t-18 42zM660 880q0 24 18 42t42 18t42 -18t18 -42t-18 -42t-42 -18t-42 18t-18 42zM660 1040q0 24 18 42 t42 18t42 -18t18 -42t-18 -42t-42 -18t-42 18t-18 42z" />
<glyph unicode="&#x26;" d="M20 240q0 24 18 42t42 18t42 -18t18 -42t-18 -42t-42 -18t-42 18t-18 42zM20 400q0 24 18 42t42 18t42 -18t18 -42t-18 -42t-42 -18t-42 18t-18 42zM20 720q0 24 18 42t42 18t42 -18t18 -42t-18 -42t-42 -18t-42 18t-18 42zM20 880q0 24 18 42t42 18t42 -18t18 -42 t-18 -42t-42 -18t-42 18t-18 42zM180 80q0 24 18 42t42 18t42 -18t18 -42t-18 -42t-42 -18t-42 18t-18 42zM180 560q0 24 18 42t42 18t42 -18t18 -42t-18 -42t-42 -18t-42 18t-18 42zM180 1040q0 24 18 42t42 18t42 -18t18 -42t-18 -42t-42 -18t-42 18t-18 42zM340 240 q0 24 18 42t42 18t42 -18t18 -42t-18 -42t-42 -18t-42 18t-18 42zM340 400q0 24 18 42t42 18t42 -18t18 -42t-18 -42t-42 -18t-42 18t-18 42zM340 720q0 24 18 42t42 18t42 -18t18 -42t-18 -42t-42 -18t-42 18t-18 42zM340 1040q0 24 18 42t42 18t42 -18t18 -42t-18 -42 t-42 -18t-42 18t-18 42zM500 240q0 24 18 42t42 18t42 -18t18 -42t-18 -42t-42 -18t-42 18t-18 42zM500 400q0 24 18 42t42 18t42 -18t18 -42t-18 -42t-42 -18t-42 18t-18 42zM500 880q0 24 18 42t42 18t42 -18t18 -42t-18 -42t-42 -18t-42 18t-18 42zM660 80q0 24 18 42 t42 18t42 -18t18 -42t-18 -42t-42 -18t-42 18t-18 42zM660 560q0 24 18 42t42 18t42 -18t18 -42t-18 -42t-42 -18t-42 18t-18 42z" />
<glyph unicode="'" d="M340 720q0 24 18 42t42 18t42 -18t18 -42t-18 -42t-42 -18t-42 18t-18 42zM340 880q0 24 18 42t42 18t42 -18t18 -42t-18 -42t-42 -18t-42 18t-18 42zM340 1040q0 24 18 42t42 18t42 -18t18 -42t-18 -42t-42 -18t-42 18t-18 42z" />
<glyph unicode="(" d="M340 240q0 24 18 42t42 18t42 -18t18 -42t-18 -42t-42 -18t-42 18t-18 42zM340 400q0 24 18 42t42 18t42 -18t18 -42t-18 -42t-42 -18t-42 18t-18 42zM340 560q0 24 18 42t42 18t42 -18t18 -42t-18 -42t-42 -18t-42 18t-18 42zM340 720q0 24 18 42t42 18t42 -18t18 -42 t-18 -42t-42 -18t-42 18t-18 42zM340 880q0 24 18 42t42 18t42 -18t18 -42t-18 -42t-42 -18t-42 18t-18 42zM500 80q0 24 18 42t42 18t42 -18t18 -42t-18 -42t-42 -18t-42 18t-18 42zM500 1040q0 24 18 42t42 18t42 -18t18 -42t-18 -42t-42 -18t-42 18t-18 42z" />
<glyph unicode=")" d="M180 80q0 24 18 42t42 18t42 -18t18 -42t-18 -42t-42 -18t-42 18t-18 42zM180 1040q0 24 18 42t42 18t42 -18t18 -42t-18 -42t-42 -18t-42 18t-18 42zM340 240q0 24 18 42t42 18t42 -18t18 -42t-18 -42t-42 -18t-42 18t-18 42zM340 400q0 24 18 42t42 18t42 -18t18 -42 t-18 -42t-42 -18t-42 18t-18 42zM340 560q0 24 18 42t42 18t42 -18t18 -42t-18 -42t-42 -18t-42 18t-18 42zM340 720q0 24 18 42t42 18t42 -18t18 -42t-18 -42t-42 -18t-42 18t-18 42zM340 880q0 24 18 42t42 18t42 -18t18 -42t-18 -42t-42 -18t-42 18t-18 42z" />
<glyph unicode="*" d="M20 400q0 24 18 42t42 18t42 -18t18 -42t-18 -42t-42 -18t-42 18t-18 42zM20 720q0 24 18 42t42 18t42 -18t18 -42t-18 -42t-42 -18t-42 18t-18 42zM180 560q0 24 18 42t42 18t42 -18t18 -42t-18 -42t-42 -18t-42 18t-18 42zM340 240q0 24 18 42t42 18t42 -18t18 -42 t-18 -42t-42 -18t-42 18t-18 42zM340 400q0 24 18 42t42 18t42 -18t18 -42t-18 -42t-42 -18t-42 18t-18 42zM340 560q0 24 18 42t42 18t42 -18t18 -42t-18 -42t-42 -18t-42 18t-18 42zM340 720q0 24 18 42t42 18t42 -18t18 -42t-18 -42t-42 -18t-42 18t-18 42zM340 880 q0 24 18 42t42 18t42 -18t18 -42t-18 -42t-42 -18t-42 18t-18 42zM500 560q0 24 18 42t42 18t42 -18t18 -42t-18 -42t-42 -18t-42 18t-18 42zM660 400q0 24 18 42t42 18t42 -18t18 -42t-18 -42t-42 -18t-42 18t-18 42zM660 720q0 24 18 42t42 18t42 -18t18 -42t-18 -42 t-42 -18t-42 18t-18 42z" />
<glyph unicode="+" d="M20 560q0 24 18 42t42 18t42 -18t18 -42t-18 -42t-42 -18t-42 18t-18 42zM180 560q0 24 18 42t42 18t42 -18t18 -42t-18 -42t-42 -18t-42 18t-18 42zM340 240q0 24 18 42t42 18t42 -18t18 -42t-18 -42t-42 -18t-42 18t-18 42zM340 400q0 24 18 42t42 18t42 -18t18 -42 t-18 -42t-42 -18t-42 18t-18 42zM340 560q0 24 18 42t42 18t42 -18t18 -42t-18 -42t-42 -18t-42 18t-18 42zM340 720q0 24 18 42t42 18t42 -18t18 -42t-18 -42t-42 -18t-42 18t-18 42zM340 880q0 24 18 42t42 18t42 -18t18 -42t-18 -42t-42 -18t-42 18t-18 42zM500 560 q0 24 18 42t42 18t42 -18t18 -42t-18 -42t-42 -18t-42 18t-18 42zM660 560q0 24 18 42t42 18t42 -18t18 -42t-18 -42t-42 -18t-42 18t-18 42z" />
<glyph unicode="," d="M180 80q0 24 18 42t42 18t42 -18t18 -42t-18 -42t-42 -18t-42 18t-18 42zM340 240q0 24 18 42t42 18t42 -18t18 -42t-18 -42t-42 -18t-42 18t-18 42z" />
<glyph unicode="-" d="M20 560q0 24 18 42t42 18t42 -18t18 -42t-18 -42t-42 -18t-42 18t-18 42zM180 560q0 24 18 42t42 18t42 -18t18 -42t-18 -42t-42 -18t-42 18t-18 42zM340 560q0 24 18 42t42 18t42 -18t18 -42t-18 -42t-42 -18t-42 18t-18 42zM500 560q0 24 18 42t42 18t42 -18t18 -42 t-18 -42t-42 -18t-42 18t-18 42zM660 560q0 24 18 42t42 18t42 -18t18 -42t-18 -42t-42 -18t-42 18t-18 42z" />
<glyph unicode="." d="M180 80q0 24 18 42t42 18t42 -18t18 -42t-18 -42t-42 -18t-42 18t-18 42z" />
<glyph unicode="/" d="M20 80q0 24 18 42t42 18t42 -18t18 -42t-18 -42t-42 -18t-42 18t-18 42zM20 240q0 24 18 42t42 18t42 -18t18 -42t-18 -42t-42 -18t-42 18t-18 42zM180 400q0 24 18 42t42 18t42 -18t18 -42t-18 -42t-42 -18t-42 18t-18 42zM340 560q0 24 18 42t42 18t42 -18t18 -42 t-18 -42t-42 -18t-42 18t-18 42zM500 720q0 24 18 42t42 18t42 -18t18 -42t-18 -42t-42 -18t-42 18t-18 42zM660 880q0 24 18 42t42 18t42 -18t18 -42t-18 -42t-42 -18t-42 18t-18 42zM660 1040q0 24 18 42t42 18t42 -18t18 -42t-18 -42t-42 -18t-42 18t-18 42z" />
<glyph unicode="0" d="M20 240q0 24 18 42t42 18t42 -18t18 -42t-18 -42t-42 -18t-42 18t-18 42zM20 400q0 24 18 42t42 18t42 -18t18 -42t-18 -42t-42 -18t-42 18t-18 42zM20 560q0 24 18 42t42 18t42 -18t18 -42t-18 -42t-42 -18t-42 18t-18 42zM20 720q0 24 18 42t42 18t42 -18t18 -42 t-18 -42t-42 -18t-42 18t-18 42zM20 880q0 24 18 42t42 18t42 -18t18 -42t-18 -42t-42 -18t-42 18t-18 42zM180 80q0 24 18 42t42 18t42 -18t18 -42t-18 -42t-42 -18t-42 18t-18 42zM180 1040q0 24 18 42t42 18t42 -18t18 -42t-18 -42t-42 -18t-42 18t-18 42zM340 80 q0 24 18 42t42 18t42 -18t18 -42t-18 -42t-42 -18t-42 18t-18 42zM340 1040q0 24 18 42t42 18t42 -18t18 -42t-18 -42t-42 -18t-42 18t-18 42zM500 80q0 24 18 42t42 18t42 -18t18 -42t-18 -42t-42 -18t-42 18t-18 42zM500 1040q0 24 18 42t42 18t42 -18t18 -42t-18 -42 t-42 -18t-42 18t-18 42zM660 240q0 24 18 42t42 18t42 -18t18 -42t-18 -42t-42 -18t-42 18t-18 42zM660 400q0 24 18 42t42 18t42 -18t18 -42t-18 -42t-42 -18t-42 18t-18 42zM660 560q0 24 18 42t42 18t42 -18t18 -42t-18 -42t-42 -18t-42 18t-18 42zM660 720q0 24 18 42 t42 18t42 -18t18 -42t-18 -42t-42 -18t-42 18t-18 42zM660 880q0 24 18 42t42 18t42 -18t18 -42t-18 -42t-42 -18t-42 18t-18 42z" />
<glyph unicode="1" d="M180 80q0 24 18 42t42 18t42 -18t18 -42t-18 -42t-42 -18t-42 18t-18 42zM180 880q0 24 18 42t42 18t42 -18t18 -42t-18 -42t-42 -18t-42 18t-18 42zM340 80q0 24 18 42t42 18t42 -18t18 -42t-18 -42t-42 -18t-42 18t-18 42zM340 240q0 24 18 42t42 18t42 -18t18 -42 t-18 -42t-42 -18t-42 18t-18 42zM340 400q0 24 18 42t42 18t42 -18t18 -42t-18 -42t-42 -18t-42 18t-18 42zM340 560q0 24 18 42t42 18t42 -18t18 -42t-18 -42t-42 -18t-42 18t-18 42zM340 720q0 24 18 42t42 18t42 -18t18 -42t-18 -42t-42 -18t-42 18t-18 42zM340 880 q0 24 18 42t42 18t42 -18t18 -42t-18 -42t-42 -18t-42 18t-18 42zM340 1040q0 24 18 42t42 18t42 -18t18 -42t-18 -42t-42 -18t-42 18t-18 42zM500 80q0 24 18 42t42 18t42 -18t18 -42t-18 -42t-42 -18t-42 18t-18 42z" />
<glyph unicode="2" d="M20 80q0 24 18 42t42 18t42 -18t18 -42t-18 -42t-42 -18t-42 18t-18 42zM20 240q0 24 18 42t42 18t42 -18t18 -42t-18 -42t-42 -18t-42 18t-18 42zM20 400q0 24 18 42t42 18t42 -18t18 -42t-18 -42t-42 -18t-42 18t-18 42zM20 880q0 24 18 42t42 18t42 -18t18 -42 t-18 -42t-42 -18t-42 18t-18 42zM180 80q0 24 18 42t42 18t42 -18t18 -42t-18 -42t-42 -18t-42 18t-18 42zM180 560q0 24 18 42t42 18t42 -18t18 -42t-18 -42t-42 -18t-42 18t-18 42zM180 1040q0 24 18 42t42 18t42 -18t18 -42t-18 -42t-42 -18t-42 18t-18 42zM340 80 q0 24 18 42t42 18t42 -18t18 -42t-18 -42t-42 -18t-42 18t-18 42zM340 560q0 24 18 42t42 18t42 -18t18 -42t-18 -42t-42 -18t-42 18t-18 42zM340 1040q0 24 18 42t42 18t42 -18t18 -42t-18 -42t-42 -18t-42 18t-18 42zM500 80q0 24 18 42t42 18t42 -18t18 -42t-18 -42 t-42 -18t-42 18t-18 42zM500 560q0 24 18 42t42 18t42 -18t18 -42t-18 -42t-42 -18t-42 18t-18 42zM500 1040q0 24 18 42t42 18t42 -18t18 -42t-18 -42t-42 -18t-42 18t-18 42zM660 80q0 24 18 42t42 18t42 -18t18 -42t-18 -42t-42 -18t-42 18t-18 42zM660 720q0 24 18 42 t42 18t42 -18t18 -42t-18 -42t-42 -18t-42 18t-18 42zM660 880q0 24 18 42t42 18t42 -18t18 -42t-18 -42t-42 -18t-42 18t-18 42z" />
<glyph unicode="3" d="M20 240q0 24 18 42t42 18t42 -18t18 -42t-18 -42t-42 -18t-42 18t-18 42zM20 1040q0 24 18 42t42 18t42 -18t18 -42t-18 -42t-42 -18t-42 18t-18 42zM180 80q0 24 18 42t42 18t42 -18t18 -42t-18 -42t-42 -18t-42 18t-18 42zM180 1040q0 24 18 42t42 18t42 -18t18 -42 t-18 -42t-42 -18t-42 18t-18 42zM340 80q0 24 18 42t42 18t42 -18t18 -42t-18 -42t-42 -18t-42 18t-18 42zM340 560q0 24 18 42t42 18t42 -18t18 -42t-18 -42t-42 -18t-42 18t-18 42zM340 1040q0 24 18 42t42 18t42 -18t18 -42t-18 -42t-42 -18t-42 18t-18 42zM500 80 q0 24 18 42t42 18t42 -18t18 -42t-18 -42t-42 -18t-42 18t-18 42zM500 560q0 24 18 42t42 18t42 -18t18 -42t-18 -42t-42 -18t-42 18t-18 42zM500 1040q0 24 18 42t42 18t42 -18t18 -42t-18 -42t-42 -18t-42 18t-18 42zM660 240q0 24 18 42t42 18t42 -18t18 -42t-18 -42 t-42 -18t-42 18t-18 42zM660 400q0 24 18 42t42 18t42 -18t18 -42t-18 -42t-42 -18t-42 18t-18 42zM660 720q0 24 18 42t42 18t42 -18t18 -42t-18 -42t-42 -18t-42 18t-18 42zM660 880q0 24 18 42t42 18t42 -18t18 -42t-18 -42t-42 -18t-42 18t-18 42zM660 1040q0 24 18 42 t42 18t42 -18t18 -42t-18 -42t-42 -18t-42 18t-18 42z" />
<glyph unicode="4" d="M20 400q0 24 18 42t42 18t42 -18t18 -42t-18 -42t-42 -18t-42 18t-18 42zM20 560q0 24 18 42t42 18t42 -18t18 -42t-18 -42t-42 -18t-42 18t-18 42zM180 400q0 24 18 42t42 18t42 -18t18 -42t-18 -42t-42 -18t-42 18t-18 42zM180 720q0 24 18 42t42 18t42 -18t18 -42 t-18 -42t-42 -18t-42 18t-18 42zM340 400q0 24 18 42t42 18t42 -18t18 -42t-18 -42t-42 -18t-42 18t-18 42zM340 880q0 24 18 42t42 18t42 -18t18 -42t-18 -42t-42 -18t-42 18t-18 42zM500 80q0 24 18 42t42 18t42 -18t18 -42t-18 -42t-42 -18t-42 18t-18 42zM500 240 q0 24 18 42t42 18t42 -18t18 -42t-18 -42t-42 -18t-42 18t-18 42zM500 400q0 24 18 42t42 18t42 -18t18 -42t-18 -42t-42 -18t-42 18t-18 42zM500 560q0 24 18 42t42 18t42 -18t18 -42t-18 -42t-42 -18t-42 18t-18 42zM500 720q0 24 18 42t42 18t42 -18t18 -42t-18 -42 t-42 -18t-42 18t-18 42zM500 880q0 24 18 42t42 18t42 -18t18 -42t-18 -42t-42 -18t-42 18t-18 42zM500 1040q0 24 18 42t42 18t42 -18t18 -42t-18 -42t-42 -18t-42 18t-18 42zM660 400q0 24 18 42t42 18t42 -18t18 -42t-18 -42t-42 -18t-42 18t-18 42z" />
<glyph unicode="5" d="M20 240q0 24 18 42t42 18t42 -18t18 -42t-18 -42t-42 -18t-42 18t-18 42zM20 720q0 24 18 42t42 18t42 -18t18 -42t-18 -42t-42 -18t-42 18t-18 42zM20 880q0 24 18 42t42 18t42 -18t18 -42t-18 -42t-42 -18t-42 18t-18 42zM20 1040q0 24 18 42t42 18t42 -18t18 -42 t-18 -42t-42 -18t-42 18t-18 42zM180 80q0 24 18 42t42 18t42 -18t18 -42t-18 -42t-42 -18t-42 18t-18 42zM180 720q0 24 18 42t42 18t42 -18t18 -42t-18 -42t-42 -18t-42 18t-18 42zM180 1040q0 24 18 42t42 18t42 -18t18 -42t-18 -42t-42 -18t-42 18t-18 42zM340 80 q0 24 18 42t42 18t42 -18t18 -42t-18 -42t-42 -18t-42 18t-18 42zM340 720q0 24 18 42t42 18t42 -18t18 -42t-18 -42t-42 -18t-42 18t-18 42zM340 1040q0 24 18 42t42 18t42 -18t18 -42t-18 -42t-42 -18t-42 18t-18 42zM500 80q0 24 18 42t42 18t42 -18t18 -42t-18 -42 t-42 -18t-42 18t-18 42zM500 720q0 24 18 42t42 18t42 -18t18 -42t-18 -42t-42 -18t-42 18t-18 42zM500 1040q0 24 18 42t42 18t42 -18t18 -42t-18 -42t-42 -18t-42 18t-18 42zM660 240q0 24 18 42t42 18t42 -18t18 -42t-18 -42t-42 -18t-42 18t-18 42zM660 400q0 24 18 42 t42 18t42 -18t18 -42t-18 -42t-42 -18t-42 18t-18 42zM660 560q0 24 18 42t42 18t42 -18t18 -42t-18 -42t-42 -18t-42 18t-18 42zM660 1040q0 24 18 42t42 18t42 -18t18 -42t-18 -42t-42 -18t-42 18t-18 42z" />
<glyph unicode="6" d="M20 240q0 24 18 42t42 18t42 -18t18 -42t-18 -42t-42 -18t-42 18t-18 42zM20 400q0 24 18 42t42 18t42 -18t18 -42t-18 -42t-42 -18t-42 18t-18 42zM20 560q0 24 18 42t42 18t42 -18t18 -42t-18 -42t-42 -18t-42 18t-18 42zM20 720q0 24 18 42t42 18t42 -18t18 -42 t-18 -42t-42 -18t-42 18t-18 42zM180 80q0 24 18 42t42 18t42 -18t18 -42t-18 -42t-42 -18t-42 18t-18 42zM180 560q0 24 18 42t42 18t42 -18t18 -42t-18 -42t-42 -18t-42 18t-18 42zM180 880q0 24 18 42t42 18t42 -18t18 -42t-18 -42t-42 -18t-42 18t-18 42zM340 80 q0 24 18 42t42 18t42 -18t18 -42t-18 -42t-42 -18t-42 18t-18 42zM340 560q0 24 18 42t42 18t42 -18t18 -42t-18 -42t-42 -18t-42 18t-18 42zM340 1040q0 24 18 42t42 18t42 -18t18 -42t-18 -42t-42 -18t-42 18t-18 42zM500 80q0 24 18 42t42 18t42 -18t18 -42t-18 -42 t-42 -18t-42 18t-18 42zM500 560q0 24 18 42t42 18t42 -18t18 -42t-18 -42t-42 -18t-42 18t-18 42zM500 1040q0 24 18 42t42 18t42 -18t18 -42t-18 -42t-42 -18t-42 18t-18 42zM660 240q0 24 18 42t42 18t42 -18t18 -42t-18 -42t-42 -18t-42 18t-18 42zM660 400q0 24 18 42 t42 18t42 -18t18 -42t-18 -42t-42 -18t-42 18t-18 42zM660 1040q0 24 18 42t42 18t42 -18t18 -42t-18 -42t-42 -18t-42 18t-18 42z" />
<glyph unicode="7" d="M20 80q0 24 18 42t42 18t42 -18t18 -42t-18 -42t-42 -18t-42 18t-18 42zM20 1040q0 24 18 42t42 18t42 -18t18 -42t-18 -42t-42 -18t-42 18t-18 42zM180 240q0 24 18 42t42 18t42 -18t18 -42t-18 -42t-42 -18t-42 18t-18 42zM180 1040q0 24 18 42t42 18t42 -18t18 -42 t-18 -42t-42 -18t-42 18t-18 42zM340 400q0 24 18 42t42 18t42 -18t18 -42t-18 -42t-42 -18t-42 18t-18 42zM340 1040q0 24 18 42t42 18t42 -18t18 -42t-18 -42t-42 -18t-42 18t-18 42zM500 560q0 24 18 42t42 18t42 -18t18 -42t-18 -42t-42 -18t-42 18t-18 42zM500 1040 q0 24 18 42t42 18t42 -18t18 -42t-18 -42t-42 -18t-42 18t-18 42zM660 720q0 24 18 42t42 18t42 -18t18 -42t-18 -42t-42 -18t-42 18t-18 42zM660 880q0 24 18 42t42 18t42 -18t18 -42t-18 -42t-42 -18t-42 18t-18 42zM660 1040q0 24 18 42t42 18t42 -18t18 -42t-18 -42 t-42 -18t-42 18t-18 42z" />
<glyph unicode="8" d="M20 240q0 24 18 42t42 18t42 -18t18 -42t-18 -42t-42 -18t-42 18t-18 42zM20 400q0 24 18 42t42 18t42 -18t18 -42t-18 -42t-42 -18t-42 18t-18 42zM20 720q0 24 18 42t42 18t42 -18t18 -42t-18 -42t-42 -18t-42 18t-18 42zM20 880q0 24 18 42t42 18t42 -18t18 -42 t-18 -42t-42 -18t-42 18t-18 42zM180 80q0 24 18 42t42 18t42 -18t18 -42t-18 -42t-42 -18t-42 18t-18 42zM180 560q0 24 18 42t42 18t42 -18t18 -42t-18 -42t-42 -18t-42 18t-18 42zM180 1040q0 24 18 42t42 18t42 -18t18 -42t-18 -42t-42 -18t-42 18t-18 42zM340 80 q0 24 18 42t42 18t42 -18t18 -42t-18 -42t-42 -18t-42 18t-18 42zM340 560q0 24 18 42t42 18t42 -18t18 -42t-18 -42t-42 -18t-42 18t-18 42zM340 1040q0 24 18 42t42 18t42 -18t18 -42t-18 -42t-42 -18t-42 18t-18 42zM500 80q0 24 18 42t42 18t42 -18t18 -42t-18 -42 t-42 -18t-42 18t-18 42zM500 560q0 24 18 42t42 18t42 -18t18 -42t-18 -42t-42 -18t-42 18t-18 42zM500 1040q0 24 18 42t42 18t42 -18t18 -42t-18 -42t-42 -18t-42 18t-18 42zM660 240q0 24 18 42t42 18t42 -18t18 -42t-18 -42t-42 -18t-42 18t-18 42zM660 400q0 24 18 42 t42 18t42 -18t18 -42t-18 -42t-42 -18t-42 18t-18 42zM660 720q0 24 18 42t42 18t42 -18t18 -42t-18 -42t-42 -18t-42 18t-18 42zM660 880q0 24 18 42t42 18t42 -18t18 -42t-18 -42t-42 -18t-42 18t-18 42z" />
<glyph unicode="9" d="M20 80q0 24 18 42t42 18t42 -18t18 -42t-18 -42t-42 -18t-42 18t-18 42zM20 720q0 24 18 42t42 18t42 -18t18 -42t-18 -42t-42 -18t-42 18t-18 42zM20 880q0 24 18 42t42 18t42 -18t18 -42t-18 -42t-42 -18t-42 18t-18 42zM180 80q0 24 18 42t42 18t42 -18t18 -42 t-18 -42t-42 -18t-42 18t-18 42zM180 560q0 24 18 42t42 18t42 -18t18 -42t-18 -42t-42 -18t-42 18t-18 42zM180 1040q0 24 18 42t42 18t42 -18t18 -42t-18 -42t-42 -18t-42 18t-18 42zM340 80q0 24 18 42t42 18t42 -18t18 -42t-18 -42t-42 -18t-42 18t-18 42zM340 560 q0 24 18 42t42 18t42 -18t18 -42t-18 -42t-42 -18t-42 18t-18 42zM340 1040q0 24 18 42t42 18t42 -18t18 -42t-18 -42t-42 -18t-42 18t-18 42zM500 240q0 24 18 42t42 18t42 -18t18 -42t-18 -42t-42 -18t-42 18t-18 42zM500 560q0 24 18 42t42 18t42 -18t18 -42t-18 -42 t-42 -18t-42 18t-18 42zM500 1040q0 24 18 42t42 18t42 -18t18 -42t-18 -42t-42 -18t-42 18t-18 42zM660 400q0 24 18 42t42 18t42 -18t18 -42t-18 -42t-42 -18t-42 18t-18 42zM660 560q0 24 18 42t42 18t42 -18t18 -42t-18 -42t-42 -18t-42 18t-18 42zM660 720q0 24 18 42 t42 18t42 -18t18 -42t-18 -42t-42 -18t-42 18t-18 42zM660 880q0 24 18 42t42 18t42 -18t18 -42t-18 -42t-42 -18t-42 18t-18 42z" />
<glyph unicode=":" d="M180 240q0 24 18 42t42 18t42 -18t18 -42t-18 -42t-42 -18t-42 18t-18 42zM180 400q0 24 18 42t42 18t42 -18t18 -42t-18 -42t-42 -18t-42 18t-18 42zM180 720q0 24 18 42t42 18t42 -18t18 -42t-18 -42t-42 -18t-42 18t-18 42zM180 880q0 24 18 42t42 18t42 -18t18 -42 t-18 -42t-42 -18t-42 18t-18 42zM340 240q0 24 18 42t42 18t42 -18t18 -42t-18 -42t-42 -18t-42 18t-18 42zM340 400q0 24 18 42t42 18t42 -18t18 -42t-18 -42t-42 -18t-42 18t-18 42zM340 720q0 24 18 42t42 18t42 -18t18 -42t-18 -42t-42 -18t-42 18t-18 42zM340 880 q0 24 18 42t42 18t42 -18t18 -42t-18 -42t-42 -18t-42 18t-18 42z" />
<glyph unicode=";" d="M180 80q0 24 18 42t42 18t42 -18t18 -42t-18 -42t-42 -18t-42 18t-18 42zM340 240q0 24 18 42t42 18t42 -18t18 -42t-18 -42t-42 -18t-42 18t-18 42zM340 560q0 24 18 42t42 18t42 -18t18 -42t-18 -42t-42 -18t-42 18t-18 42z" />
<glyph unicode="&#x3c;" d="M180 560q0 24 18 42t42 18t42 -18t18 -42t-18 -42t-42 -18t-42 18t-18 42zM340 400q0 24 18 42t42 18t42 -18t18 -42t-18 -42t-42 -18t-42 18t-18 42zM340 720q0 24 18 42t42 18t42 -18t18 -42t-18 -42t-42 -18t-42 18t-18 42zM500 240q0 24 18 42t42 18t42 -18t18 -42 t-18 -42t-42 -18t-42 18t-18 42zM500 880q0 24 18 42t42 18t42 -18t18 -42t-18 -42t-42 -18t-42 18t-18 42z" />
<glyph unicode="=" d="M20 240q0 24 18 42t42 18t42 -18t18 -42t-18 -42t-42 -18t-42 18t-18 42zM20 720q0 24 18 42t42 18t42 -18t18 -42t-18 -42t-42 -18t-42 18t-18 42zM180 240q0 24 18 42t42 18t42 -18t18 -42t-18 -42t-42 -18t-42 18t-18 42zM180 720q0 24 18 42t42 18t42 -18t18 -42 t-18 -42t-42 -18t-42 18t-18 42zM340 240q0 24 18 42t42 18t42 -18t18 -42t-18 -42t-42 -18t-42 18t-18 42zM340 720q0 24 18 42t42 18t42 -18t18 -42t-18 -42t-42 -18t-42 18t-18 42zM500 240q0 24 18 42t42 18t42 -18t18 -42t-18 -42t-42 -18t-42 18t-18 42zM500 720 q0 24 18 42t42 18t42 -18t18 -42t-18 -42t-42 -18t-42 18t-18 42zM660 240q0 24 18 42t42 18t42 -18t18 -42t-18 -42t-42 -18t-42 18t-18 42zM660 720q0 24 18 42t42 18t42 -18t18 -42t-18 -42t-42 -18t-42 18t-18 42z" />
<glyph unicode="&#x3e;" d="M180 240q0 24 18 42t42 18t42 -18t18 -42t-18 -42t-42 -18t-42 18t-18 42zM180 880q0 24 18 42t42 18t42 -18t18 -42t-18 -42t-42 -18t-42 18t-18 42zM340 400q0 24 18 42t42 18t42 -18t18 -42t-18 -42t-42 -18t-42 18t-18 42zM340 720q0 24 18 42t42 18t42 -18t18 -42 t-18 -42t-42 -18t-42 18t-18 42zM500 560q0 24 18 42t42 18t42 -18t18 -42t-18 -42t-42 -18t-42 18t-18 42z" />
<glyph unicode="?" d="M180 80q0 24 18 42t42 18t42 -18t18 -42t-18 -42t-42 -18t-42 18t-18 42zM180 400q0 24 18 42t42 18t42 -18t18 -42t-18 -42t-42 -18t-42 18t-18 42zM180 560q0 24 18 42t42 18t42 -18t18 -42t-18 -42t-42 -18t-42 18t-18 42zM180 720q0 24 18 42t42 18t42 -18t18 -42 t-18 -42t-42 -18t-42 18t-18 42zM180 1040q0 24 18 42t42 18t42 -18t18 -42t-18 -42t-42 -18t-42 18t-18 42zM340 720q0 24 18 42t42 18t42 -18t18 -42t-18 -42t-42 -18t-42 18t-18 42zM340 1040q0 24 18 42t42 18t42 -18t18 -42t-18 -42t-42 -18t-42 18t-18 42zM500 720 q0 24 18 42t42 18t42 -18t18 -42t-18 -42t-42 -18t-42 18t-18 42zM500 880q0 24 18 42t42 18t42 -18t18 -42t-18 -42t-42 -18t-42 18t-18 42zM500 1040q0 24 18 42t42 18t42 -18t18 -42t-18 -42t-42 -18t-42 18t-18 42z" />
<glyph unicode="@" d="M20 240q0 24 18 42t42 18t42 -18t18 -42t-18 -42t-42 -18t-42 18t-18 42zM20 400q0 24 18 42t42 18t42 -18t18 -42t-18 -42t-42 -18t-42 18t-18 42zM20 560q0 24 18 42t42 18t42 -18t18 -42t-18 -42t-42 -18t-42 18t-18 42zM20 720q0 24 18 42t42 18t42 -18t18 -42 t-18 -42t-42 -18t-42 18t-18 42zM20 880q0 24 18 42t42 18t42 -18t18 -42t-18 -42t-42 -18t-42 18t-18 42zM180 80q0 24 18 42t42 18t42 -18t18 -42t-18 -42t-42 -18t-42 18t-18 42zM180 1040q0 24 18 42t42 18t42 -18t18 -42t-18 -42t-42 -18t-42 18t-18 42zM340 80 q0 24 18 42t42 18t42 -18t18 -42t-18 -42t-42 -18t-42 18t-18 42zM340 400q0 24 18 42t42 18t42 -18t18 -42t-18 -42t-42 -18t-42 18t-18 42zM340 560q0 24 18 42t42 18t42 -18t18 -42t-18 -42t-42 -18t-42 18t-18 42zM340 720q0 24 18 42t42 18t42 -18t18 -42t-18 -42 t-42 -18t-42 18t-18 42zM340 1040q0 24 18 42t42 18t42 -18t18 -42t-18 -42t-42 -18t-42 18t-18 42zM500 80q0 24 18 42t42 18t42 -18t18 -42t-18 -42t-42 -18t-42 18t-18 42zM500 400q0 24 18 42t42 18t42 -18t18 -42t-18 -42t-42 -18t-42 18t-18 42zM500 720q0 24 18 42 t42 18t42 -18t18 -42t-18 -42t-42 -18t-42 18t-18 42zM500 1040q0 24 18 42t42 18t42 -18t18 -42t-18 -42t-42 -18t-42 18t-18 42zM660 80q0 24 18 42t42 18t42 -18t18 -42t-18 -42t-42 -18t-42 18t-18 42zM660 400q0 24 18 42t42 18t42 -18t18 -42t-18 -42t-42 -18t-42 18 t-18 42zM660 560q0 24 18 42t42 18t42 -18t18 -42t-18 -42t-42 -18t-42 18t-18 42zM660 720q0 24 18 42t42 18t42 -18t18 -42t-18 -42t-42 -18t-42 18t-18 42zM660 880q0 24 18 42t42 18t42 -18t18 -42t-18 -42t-42 -18t-42 18t-18 42z" />
<glyph unicode="A" d="M20 80q0 24 18 42t42 18t42 -18t18 -42t-18 -42t-42 -18t-42 18t-18 42zM20 240q0 24 18 42t42 18t42 -18t18 -42t-18 -42t-42 -18t-42 18t-18 42zM20 400q0 24 18 42t42 18t42 -18t18 -42t-18 -42t-42 -18t-42 18t-18 42zM20 560q0 24 18 42t42 18t42 -18t18 -42 t-18 -42t-42 -18t-42 18t-18 42zM20 720q0 24 18 42t42 18t42 -18t18 -42t-18 -42t-42 -18t-42 18t-18 42zM20 880q0 24 18 42t42 18t42 -18t18 -42t-18 -42t-42 -18t-42 18t-18 42zM180 400q0 24 18 42t42 18t42 -18t18 -42t-18 -42t-42 -18t-42 18t-18 42zM180 1040 q0 24 18 42t42 18t42 -18t18 -42t-18 -42t-42 -18t-42 18t-18 42zM340 400q0 24 18 42t42 18t42 -18t18 -42t-18 -42t-42 -18t-42 18t-18 42zM340 1040q0 24 18 42t42 18t42 -18t18 -42t-18 -42t-42 -18t-42 18t-18 42zM500 400q0 24 18 42t42 18t42 -18t18 -42t-18 -42 t-42 -18t-42 18t-18 42zM500 1040q0 24 18 42t42 18t42 -18t18 -42t-18 -42t-42 -18t-42 18t-18 42zM660 80q0 24 18 42t42 18t42 -18t18 -42t-18 -42t-42 -18t-42 18t-18 42zM660 240q0 24 18 42t42 18t42 -18t18 -42t-18 -42t-42 -18t-42 18t-18 42zM660 400q0 24 18 42 t42 18t42 -18t18 -42t-18 -42t-42 -18t-42 18t-18 42zM660 560q0 24 18 42t42 18t42 -18t18 -42t-18 -42t-42 -18t-42 18t-18 42zM660 720q0 24 18 42t42 18t42 -18t18 -42t-18 -42t-42 -18t-42 18t-18 42zM660 880q0 24 18 42t42 18t42 -18t18 -42t-18 -42t-42 -18t-42 18 t-18 42z" />
<glyph unicode="B" d="M20 80q0 24 18 42t42 18t42 -18t18 -42t-18 -42t-42 -18t-42 18t-18 42zM20 240q0 24 18 42t42 18t42 -18t18 -42t-18 -42t-42 -18t-42 18t-18 42zM20 400q0 24 18 42t42 18t42 -18t18 -42t-18 -42t-42 -18t-42 18t-18 42zM20 560q0 24 18 42t42 18t42 -18t18 -42 t-18 -42t-42 -18t-42 18t-18 42zM20 720q0 24 18 42t42 18t42 -18t18 -42t-18 -42t-42 -18t-42 18t-18 42zM20 880q0 24 18 42t42 18t42 -18t18 -42t-18 -42t-42 -18t-42 18t-18 42zM20 1040q0 24 18 42t42 18t42 -18t18 -42t-18 -42t-42 -18t-42 18t-18 42zM180 80 q0 24 18 42t42 18t42 -18t18 -42t-18 -42t-42 -18t-42 18t-18 42zM180 560q0 24 18 42t42 18t42 -18t18 -42t-18 -42t-42 -18t-42 18t-18 42zM180 1040q0 24 18 42t42 18t42 -18t18 -42t-18 -42t-42 -18t-42 18t-18 42zM340 80q0 24 18 42t42 18t42 -18t18 -42t-18 -42 t-42 -18t-42 18t-18 42zM340 560q0 24 18 42t42 18t42 -18t18 -42t-18 -42t-42 -18t-42 18t-18 42zM340 1040q0 24 18 42t42 18t42 -18t18 -42t-18 -42t-42 -18t-42 18t-18 42zM500 80q0 24 18 42t42 18t42 -18t18 -42t-18 -42t-42 -18t-42 18t-18 42zM500 560q0 24 18 42 t42 18t42 -18t18 -42t-18 -42t-42 -18t-42 18t-18 42zM500 1040q0 24 18 42t42 18t42 -18t18 -42t-18 -42t-42 -18t-42 18t-18 42zM660 240q0 24 18 42t42 18t42 -18t18 -42t-18 -42t-42 -18t-42 18t-18 42zM660 400q0 24 18 42t42 18t42 -18t18 -42t-18 -42t-42 -18t-42 18 t-18 42zM660 720q0 24 18 42t42 18t42 -18t18 -42t-18 -42t-42 -18t-42 18t-18 42zM660 880q0 24 18 42t42 18t42 -18t18 -42t-18 -42t-42 -18t-42 18t-18 42z" />
<glyph unicode="C" d="M20 240q0 24 18 42t42 18t42 -18t18 -42t-18 -42t-42 -18t-42 18t-18 42zM20 400q0 24 18 42t42 18t42 -18t18 -42t-18 -42t-42 -18t-42 18t-18 42zM20 560q0 24 18 42t42 18t42 -18t18 -42t-18 -42t-42 -18t-42 18t-18 42zM20 720q0 24 18 42t42 18t42 -18t18 -42 t-18 -42t-42 -18t-42 18t-18 42zM20 880q0 24 18 42t42 18t42 -18t18 -42t-18 -42t-42 -18t-42 18t-18 42zM180 80q0 24 18 42t42 18t42 -18t18 -42t-18 -42t-42 -18t-42 18t-18 42zM180 1040q0 24 18 42t42 18t42 -18t18 -42t-18 -42t-42 -18t-42 18t-18 42zM340 80 q0 24 18 42t42 18t42 -18t18 -42t-18 -42t-42 -18t-42 18t-18 42zM340 1040q0 24 18 42t42 18t42 -18t18 -42t-18 -42t-42 -18t-42 18t-18 42zM500 80q0 24 18 42t42 18t42 -18t18 -42t-18 -42t-42 -18t-42 18t-18 42zM500 1040q0 24 18 42t42 18t42 -18t18 -42t-18 -42 t-42 -18t-42 18t-18 42zM660 240q0 24 18 42t42 18t42 -18t18 -42t-18 -42t-42 -18t-42 18t-18 42zM660 880q0 24 18 42t42 18t42 -18t18 -42t-18 -42t-42 -18t-42 18t-18 42z" />
<glyph unicode="D" d="M20 80q0 24 18 42t42 18t42 -18t18 -42t-18 -42t-42 -18t-42 18t-18 42zM20 240q0 24 18 42t42 18t42 -18t18 -42t-18 -42t-42 -18t-42 18t-18 42zM20 400q0 24 18 42t42 18t42 -18t18 -42t-18 -42t-42 -18t-42 18t-18 42zM20 560q0 24 18 42t42 18t42 -18t18 -42 t-18 -42t-42 -18t-42 18t-18 42zM20 720q0 24 18 42t42 18t42 -18t18 -42t-18 -42t-42 -18t-42 18t-18 42zM20 880q0 24 18 42t42 18t42 -18t18 -42t-18 -42t-42 -18t-42 18t-18 42zM20 1040q0 24 18 42t42 18t42 -18t18 -42t-18 -42t-42 -18t-42 18t-18 42zM180 80 q0 24 18 42t42 18t42 -18t18 -42t-18 -42t-42 -18t-42 18t-18 42zM180 1040q0 24 18 42t42 18t42 -18t18 -42t-18 -42t-42 -18t-42 18t-18 42zM340 80q0 24 18 42t42 18t42 -18t18 -42t-18 -42t-42 -18t-42 18t-18 42zM340 1040q0 24 18 42t42 18t42 -18t18 -42t-18 -42 t-42 -18t-42 18t-18 42zM500 80q0 24 18 42t42 18t42 -18t18 -42t-18 -42t-42 -18t-42 18t-18 42zM500 1040q0 24 18 42t42 18t42 -18t18 -42t-18 -42t-42 -18t-42 18t-18 42zM660 240q0 24 18 42t42 18t42 -18t18 -42t-18 -42t-42 -18t-42 18t-18 42zM660 400q0 24 18 42 t42 18t42 -18t18 -42t-18 -42t-42 -18t-42 18t-18 42zM660 560q0 24 18 42t42 18t42 -18t18 -42t-18 -42t-42 -18t-42 18t-18 42zM660 720q0 24 18 42t42 18t42 -18t18 -42t-18 -42t-42 -18t-42 18t-18 42zM660 880q0 24 18 42t42 18t42 -18t18 -42t-18 -42t-42 -18t-42 18 t-18 42z" />
<glyph unicode="E" d="M20 80q0 24 18 42t42 18t42 -18t18 -42t-18 -42t-42 -18t-42 18t-18 42zM20 240q0 24 18 42t42 18t42 -18t18 -42t-18 -42t-42 -18t-42 18t-18 42zM20 400q0 24 18 42t42 18t42 -18t18 -42t-18 -42t-42 -18t-42 18t-18 42zM20 560q0 24 18 42t42 18t42 -18t18 -42 t-18 -42t-42 -18t-42 18t-18 42zM20 720q0 24 18 42t42 18t42 -18t18 -42t-18 -42t-42 -18t-42 18t-18 42zM20 880q0 24 18 42t42 18t42 -18t18 -42t-18 -42t-42 -18t-42 18t-18 42zM20 1040q0 24 18 42t42 18t42 -18t18 -42t-18 -42t-42 -18t-42 18t-18 42zM180 80 q0 24 18 42t42 18t42 -18t18 -42t-18 -42t-42 -18t-42 18t-18 42zM180 560q0 24 18 42t42 18t42 -18t18 -42t-18 -42t-42 -18t-42 18t-18 42zM180 1040q0 24 18 42t42 18t42 -18t18 -42t-18 -42t-42 -18t-42 18t-18 42zM340 80q0 24 18 42t42 18t42 -18t18 -42t-18 -42 t-42 -18t-42 18t-18 42zM340 560q0 24 18 42t42 18t42 -18t18 -42t-18 -42t-42 -18t-42 18t-18 42zM340 1040q0 24 18 42t42 18t42 -18t18 -42t-18 -42t-42 -18t-42 18t-18 42zM500 80q0 24 18 42t42 18t42 -18t18 -42t-18 -42t-42 -18t-42 18t-18 42zM500 560q0 24 18 42 t42 18t42 -18t18 -42t-18 -42t-42 -18t-42 18t-18 42zM500 1040q0 24 18 42t42 18t42 -18t18 -42t-18 -42t-42 -18t-42 18t-18 42zM660 80q0 24 18 42t42 18t42 -18t18 -42t-18 -42t-42 -18t-42 18t-18 42zM660 1040q0 24 18 42t42 18t42 -18t18 -42t-18 -42t-42 -18t-42 18 t-18 42z" />
<glyph unicode="F" d="M20 80q0 24 18 42t42 18t42 -18t18 -42t-18 -42t-42 -18t-42 18t-18 42zM20 240q0 24 18 42t42 18t42 -18t18 -42t-18 -42t-42 -18t-42 18t-18 42zM20 400q0 24 18 42t42 18t42 -18t18 -42t-18 -42t-42 -18t-42 18t-18 42zM20 560q0 24 18 42t42 18t42 -18t18 -42 t-18 -42t-42 -18t-42 18t-18 42zM20 720q0 24 18 42t42 18t42 -18t18 -42t-18 -42t-42 -18t-42 18t-18 42zM20 880q0 24 18 42t42 18t42 -18t18 -42t-18 -42t-42 -18t-42 18t-18 42zM20 1040q0 24 18 42t42 18t42 -18t18 -42t-18 -42t-42 -18t-42 18t-18 42zM180 560 q0 24 18 42t42 18t42 -18t18 -42t-18 -42t-42 -18t-42 18t-18 42zM180 1040q0 24 18 42t42 18t42 -18t18 -42t-18 -42t-42 -18t-42 18t-18 42zM340 560q0 24 18 42t42 18t42 -18t18 -42t-18 -42t-42 -18t-42 18t-18 42zM340 1040q0 24 18 42t42 18t42 -18t18 -42t-18 -42 t-42 -18t-42 18t-18 42zM500 560q0 24 18 42t42 18t42 -18t18 -42t-18 -42t-42 -18t-42 18t-18 42zM500 1040q0 24 18 42t42 18t42 -18t18 -42t-18 -42t-42 -18t-42 18t-18 42zM660 1040q0 24 18 42t42 18t42 -18t18 -42t-18 -42t-42 -18t-42 18t-18 42z" />
<glyph unicode="G" d="M20 240q0 24 18 42t42 18t42 -18t18 -42t-18 -42t-42 -18t-42 18t-18 42zM20 400q0 24 18 42t42 18t42 -18t18 -42t-18 -42t-42 -18t-42 18t-18 42zM20 560q0 24 18 42t42 18t42 -18t18 -42t-18 -42t-42 -18t-42 18t-18 42zM20 720q0 24 18 42t42 18t42 -18t18 -42 t-18 -42t-42 -18t-42 18t-18 42zM20 880q0 24 18 42t42 18t42 -18t18 -42t-18 -42t-42 -18t-42 18t-18 42zM180 80q0 24 18 42t42 18t42 -18t18 -42t-18 -42t-42 -18t-42 18t-18 42zM180 1040q0 24 18 42t42 18t42 -18t18 -42t-18 -42t-42 -18t-42 18t-18 42zM340 80 q0 24 18 42t42 18t42 -18t18 -42t-18 -42t-42 -18t-42 18t-18 42zM340 1040q0 24 18 42t42 18t42 -18t18 -42t-18 -42t-42 -18t-42 18t-18 42zM500 80q0 24 18 42t42 18t42 -18t18 -42t-18 -42t-42 -18t-42 18t-18 42zM500 400q0 24 18 42t42 18t42 -18t18 -42t-18 -42 t-42 -18t-42 18t-18 42zM500 1040q0 24 18 42t42 18t42 -18t18 -42t-18 -42t-42 -18t-42 18t-18 42zM660 80q0 24 18 42t42 18t42 -18t18 -42t-18 -42t-42 -18t-42 18t-18 42zM660 240q0 24 18 42t42 18t42 -18t18 -42t-18 -42t-42 -18t-42 18t-18 42zM660 400q0 24 18 42 t42 18t42 -18t18 -42t-18 -42t-42 -18t-42 18t-18 42zM660 880q0 24 18 42t42 18t42 -18t18 -42t-18 -42t-42 -18t-42 18t-18 42z" />
<glyph unicode="H" d="M20 80q0 24 18 42t42 18t42 -18t18 -42t-18 -42t-42 -18t-42 18t-18 42zM20 240q0 24 18 42t42 18t42 -18t18 -42t-18 -42t-42 -18t-42 18t-18 42zM20 400q0 24 18 42t42 18t42 -18t18 -42t-18 -42t-42 -18t-42 18t-18 42zM20 560q0 24 18 42t42 18t42 -18t18 -42 t-18 -42t-42 -18t-42 18t-18 42zM20 720q0 24 18 42t42 18t42 -18t18 -42t-18 -42t-42 -18t-42 18t-18 42zM20 880q0 24 18 42t42 18t42 -18t18 -42t-18 -42t-42 -18t-42 18t-18 42zM20 1040q0 24 18 42t42 18t42 -18t18 -42t-18 -42t-42 -18t-42 18t-18 42zM180 560 q0 24 18 42t42 18t42 -18t18 -42t-18 -42t-42 -18t-42 18t-18 42zM340 560q0 24 18 42t42 18t42 -18t18 -42t-18 -42t-42 -18t-42 18t-18 42zM500 560q0 24 18 42t42 18t42 -18t18 -42t-18 -42t-42 -18t-42 18t-18 42zM660 80q0 24 18 42t42 18t42 -18t18 -42t-18 -42 t-42 -18t-42 18t-18 42zM660 240q0 24 18 42t42 18t42 -18t18 -42t-18 -42t-42 -18t-42 18t-18 42zM660 400q0 24 18 42t42 18t42 -18t18 -42t-18 -42t-42 -18t-42 18t-18 42zM660 560q0 24 18 42t42 18t42 -18t18 -42t-18 -42t-42 -18t-42 18t-18 42zM660 720q0 24 18 42 t42 18t42 -18t18 -42t-18 -42t-42 -18t-42 18t-18 42zM660 880q0 24 18 42t42 18t42 -18t18 -42t-18 -42t-42 -18t-42 18t-18 42zM660 1040q0 24 18 42t42 18t42 -18t18 -42t-18 -42t-42 -18t-42 18t-18 42z" />
<glyph unicode="I" d="M180 80q0 24 18 42t42 18t42 -18t18 -42t-18 -42t-42 -18t-42 18t-18 42zM180 1040q0 24 18 42t42 18t42 -18t18 -42t-18 -42t-42 -18t-42 18t-18 42zM340 80q0 24 18 42t42 18t42 -18t18 -42t-18 -42t-42 -18t-42 18t-18 42zM340 240q0 24 18 42t42 18t42 -18t18 -42 t-18 -42t-42 -18t-42 18t-18 42zM340 400q0 24 18 42t42 18t42 -18t18 -42t-18 -42t-42 -18t-42 18t-18 42zM340 560q0 24 18 42t42 18t42 -18t18 -42t-18 -42t-42 -18t-42 18t-18 42zM340 720q0 24 18 42t42 18t42 -18t18 -42t-18 -42t-42 -18t-42 18t-18 42zM340 880 q0 24 18 42t42 18t42 -18t18 -42t-18 -42t-42 -18t-42 18t-18 42zM340 1040q0 24 18 42t42 18t42 -18t18 -42t-18 -42t-42 -18t-42 18t-18 42zM500 80q0 24 18 42t42 18t42 -18t18 -42t-18 -42t-42 -18t-42 18t-18 42zM500 1040q0 24 18 42t42 18t42 -18t18 -42t-18 -42 t-42 -18t-42 18t-18 42z" />
<glyph unicode="J" d="M20 240q0 24 18 42t42 18t42 -18t18 -42t-18 -42t-42 -18t-42 18t-18 42zM180 80q0 24 18 42t42 18t42 -18t18 -42t-18 -42t-42 -18t-42 18t-18 42zM340 80q0 24 18 42t42 18t42 -18t18 -42t-18 -42t-42 -18t-42 18t-18 42zM500 80q0 24 18 42t42 18t42 -18t18 -42 t-18 -42t-42 -18t-42 18t-18 42zM660 240q0 24 18 42t42 18t42 -18t18 -42t-18 -42t-42 -18t-42 18t-18 42zM660 400q0 24 18 42t42 18t42 -18t18 -42t-18 -42t-42 -18t-42 18t-18 42zM660 560q0 24 18 42t42 18t42 -18t18 -42t-18 -42t-42 -18t-42 18t-18 42zM660 720 q0 24 18 42t42 18t42 -18t18 -42t-18 -42t-42 -18t-42 18t-18 42zM660 880q0 24 18 42t42 18t42 -18t18 -42t-18 -42t-42 -18t-42 18t-18 42zM660 1040q0 24 18 42t42 18t42 -18t18 -42t-18 -42t-42 -18t-42 18t-18 42z" />
<glyph unicode="K" d="M20 80q0 24 18 42t42 18t42 -18t18 -42t-18 -42t-42 -18t-42 18t-18 42zM20 240q0 24 18 42t42 18t42 -18t18 -42t-18 -42t-42 -18t-42 18t-18 42zM20 400q0 24 18 42t42 18t42 -18t18 -42t-18 -42t-42 -18t-42 18t-18 42zM20 560q0 24 18 42t42 18t42 -18t18 -42 t-18 -42t-42 -18t-42 18t-18 42zM20 720q0 24 18 42t42 18t42 -18t18 -42t-18 -42t-42 -18t-42 18t-18 42zM20 880q0 24 18 42t42 18t42 -18t18 -42t-18 -42t-42 -18t-42 18t-18 42zM20 1040q0 24 18 42t42 18t42 -18t18 -42t-18 -42t-42 -18t-42 18t-18 42zM180 560 q0 24 18 42t42 18t42 -18t18 -42t-18 -42t-42 -18t-42 18t-18 42zM340 400q0 24 18 42t42 18t42 -18t18 -42t-18 -42t-42 -18t-42 18t-18 42zM340 720q0 24 18 42t42 18t42 -18t18 -42t-18 -42t-42 -18t-42 18t-18 42zM500 240q0 24 18 42t42 18t42 -18t18 -42t-18 -42 t-42 -18t-42 18t-18 42zM500 880q0 24 18 42t42 18t42 -18t18 -42t-18 -42t-42 -18t-42 18t-18 42zM660 80q0 24 18 42t42 18t42 -18t18 -42t-18 -42t-42 -18t-42 18t-18 42zM660 1040q0 24 18 42t42 18t42 -18t18 -42t-18 -42t-42 -18t-42 18t-18 42z" />
<glyph unicode="L" d="M20 80q0 24 18 42t42 18t42 -18t18 -42t-18 -42t-42 -18t-42 18t-18 42zM20 240q0 24 18 42t42 18t42 -18t18 -42t-18 -42t-42 -18t-42 18t-18 42zM20 400q0 24 18 42t42 18t42 -18t18 -42t-18 -42t-42 -18t-42 18t-18 42zM20 560q0 24 18 42t42 18t42 -18t18 -42 t-18 -42t-42 -18t-42 18t-18 42zM20 720q0 24 18 42t42 18t42 -18t18 -42t-18 -42t-42 -18t-42 18t-18 42zM20 880q0 24 18 42t42 18t42 -18t18 -42t-18 -42t-42 -18t-42 18t-18 42zM20 1040q0 24 18 42t42 18t42 -18t18 -42t-18 -42t-42 -18t-42 18t-18 42zM180 80 q0 24 18 42t42 18t42 -18t18 -42t-18 -42t-42 -18t-42 18t-18 42zM340 80q0 24 18 42t42 18t42 -18t18 -42t-18 -42t-42 -18t-42 18t-18 42zM500 80q0 24 18 42t42 18t42 -18t18 -42t-18 -42t-42 -18t-42 18t-18 42zM660 80q0 24 18 42t42 18t42 -18t18 -42t-18 -42t-42 -18 t-42 18t-18 42z" />
<glyph unicode="M" d="M20 80q0 24 18 42t42 18t42 -18t18 -42t-18 -42t-42 -18t-42 18t-18 42zM20 240q0 24 18 42t42 18t42 -18t18 -42t-18 -42t-42 -18t-42 18t-18 42zM20 400q0 24 18 42t42 18t42 -18t18 -42t-18 -42t-42 -18t-42 18t-18 42zM20 560q0 24 18 42t42 18t42 -18t18 -42 t-18 -42t-42 -18t-42 18t-18 42zM20 720q0 24 18 42t42 18t42 -18t18 -42t-18 -42t-42 -18t-42 18t-18 42zM20 880q0 24 18 42t42 18t42 -18t18 -42t-18 -42t-42 -18t-42 18t-18 42zM20 1040q0 24 18 42t42 18t42 -18t18 -42t-18 -42t-42 -18t-42 18t-18 42zM180 880 q0 24 18 42t42 18t42 -18t18 -42t-18 -42t-42 -18t-42 18t-18 42zM340 560q0 24 18 42t42 18t42 -18t18 -42t-18 -42t-42 -18t-42 18t-18 42zM340 720q0 24 18 42t42 18t42 -18t18 -42t-18 -42t-42 -18t-42 18t-18 42zM500 880q0 24 18 42t42 18t42 -18t18 -42t-18 -42 t-42 -18t-42 18t-18 42zM660 80q0 24 18 42t42 18t42 -18t18 -42t-18 -42t-42 -18t-42 18t-18 42zM660 240q0 24 18 42t42 18t42 -18t18 -42t-18 -42t-42 -18t-42 18t-18 42zM660 400q0 24 18 42t42 18t42 -18t18 -42t-18 -42t-42 -18t-42 18t-18 42zM660 560q0 24 18 42 t42 18t42 -18t18 -42t-18 -42t-42 -18t-42 18t-18 42zM660 720q0 24 18 42t42 18t42 -18t18 -42t-18 -42t-42 -18t-42 18t-18 42zM660 880q0 24 18 42t42 18t42 -18t18 -42t-18 -42t-42 -18t-42 18t-18 42zM660 1040q0 24 18 42t42 18t42 -18t18 -42t-18 -42t-42 -18t-42 18 t-18 42z" />
<glyph unicode="N" d="M20 80q0 24 18 42t42 18t42 -18t18 -42t-18 -42t-42 -18t-42 18t-18 42zM20 240q0 24 18 42t42 18t42 -18t18 -42t-18 -42t-42 -18t-42 18t-18 42zM20 400q0 24 18 42t42 18t42 -18t18 -42t-18 -42t-42 -18t-42 18t-18 42zM20 560q0 24 18 42t42 18t42 -18t18 -42 t-18 -42t-42 -18t-42 18t-18 42zM20 720q0 24 18 42t42 18t42 -18t18 -42t-18 -42t-42 -18t-42 18t-18 42zM20 880q0 24 18 42t42 18t42 -18t18 -42t-18 -42t-42 -18t-42 18t-18 42zM20 1040q0 24 18 42t42 18t42 -18t18 -42t-18 -42t-42 -18t-42 18t-18 42zM180 720 q0 24 18 42t42 18t42 -18t18 -42t-18 -42t-42 -18t-42 18t-18 42zM340 560q0 24 18 42t42 18t42 -18t18 -42t-18 -42t-42 -18t-42 18t-18 42zM500 400q0 24 18 42t42 18t42 -18t18 -42t-18 -42t-42 -18t-42 18t-18 42zM660 80q0 24 18 42t42 18t42 -18t18 -42t-18 -42 t-42 -18t-42 18t-18 42zM660 240q0 24 18 42t42 18t42 -18t18 -42t-18 -42t-42 -18t-42 18t-18 42zM660 400q0 24 18 42t42 18t42 -18t18 -42t-18 -42t-42 -18t-42 18t-18 42zM660 560q0 24 18 42t42 18t42 -18t18 -42t-18 -42t-42 -18t-42 18t-18 42zM660 720q0 24 18 42 t42 18t42 -18t18 -42t-18 -42t-42 -18t-42 18t-18 42zM660 880q0 24 18 42t42 18t42 -18t18 -42t-18 -42t-42 -18t-42 18t-18 42zM660 1040q0 24 18 42t42 18t42 -18t18 -42t-18 -42t-42 -18t-42 18t-18 42z" />
<glyph unicode="O" d="M20 240q0 24 18 42t42 18t42 -18t18 -42t-18 -42t-42 -18t-42 18t-18 42zM20 400q0 24 18 42t42 18t42 -18t18 -42t-18 -42t-42 -18t-42 18t-18 42zM20 560q0 24 18 42t42 18t42 -18t18 -42t-18 -42t-42 -18t-42 18t-18 42zM20 720q0 24 18 42t42 18t42 -18t18 -42 t-18 -42t-42 -18t-42 18t-18 42zM20 880q0 24 18 42t42 18t42 -18t18 -42t-18 -42t-42 -18t-42 18t-18 42zM180 80q0 24 18 42t42 18t42 -18t18 -42t-18 -42t-42 -18t-42 18t-18 42zM180 1040q0 24 18 42t42 18t42 -18t18 -42t-18 -42t-42 -18t-42 18t-18 42zM340 80 q0 24 18 42t42 18t42 -18t18 -42t-18 -42t-42 -18t-42 18t-18 42zM340 1040q0 24 18 42t42 18t42 -18t18 -42t-18 -42t-42 -18t-42 18t-18 42zM500 80q0 24 18 42t42 18t42 -18t18 -42t-18 -42t-42 -18t-42 18t-18 42zM500 1040q0 24 18 42t42 18t42 -18t18 -42t-18 -42 t-42 -18t-42 18t-18 42zM660 240q0 24 18 42t42 18t42 -18t18 -42t-18 -42t-42 -18t-42 18t-18 42zM660 400q0 24 18 42t42 18t42 -18t18 -42t-18 -42t-42 -18t-42 18t-18 42zM660 560q0 24 18 42t42 18t42 -18t18 -42t-18 -42t-42 -18t-42 18t-18 42zM660 720q0 24 18 42 t42 18t42 -18t18 -42t-18 -42t-42 -18t-42 18t-18 42zM660 880q0 24 18 42t42 18t42 -18t18 -42t-18 -42t-42 -18t-42 18t-18 42z" />
<glyph unicode="P" d="M20 80q0 24 18 42t42 18t42 -18t18 -42t-18 -42t-42 -18t-42 18t-18 42zM20 240q0 24 18 42t42 18t42 -18t18 -42t-18 -42t-42 -18t-42 18t-18 42zM20 400q0 24 18 42t42 18t42 -18t18 -42t-18 -42t-42 -18t-42 18t-18 42zM20 560q0 24 18 42t42 18t42 -18t18 -42 t-18 -42t-42 -18t-42 18t-18 42zM20 720q0 24 18 42t42 18t42 -18t18 -42t-18 -42t-42 -18t-42 18t-18 42zM20 880q0 24 18 42t42 18t42 -18t18 -42t-18 -42t-42 -18t-42 18t-18 42zM20 1040q0 24 18 42t42 18t42 -18t18 -42t-18 -42t-42 -18t-42 18t-18 42zM180 560 q0 24 18 42t42 18t42 -18t18 -42t-18 -42t-42 -18t-42 18t-18 42zM180 1040q0 24 18 42t42 18t42 -18t18 -42t-18 -42t-42 -18t-42 18t-18 42zM340 560q0 24 18 42t42 18t42 -18t18 -42t-18 -42t-42 -18t-42 18t-18 42zM340 1040q0 24 18 42t42 18t42 -18t18 -42t-18 -42 t-42 -18t-42 18t-18 42zM500 560q0 24 18 42t42 18t42 -18t18 -42t-18 -42t-42 -18t-42 18t-18 42zM500 1040q0 24 18 42t42 18t42 -18t18 -42t-18 -42t-42 -18t-42 18t-18 42zM660 720q0 24 18 42t42 18t42 -18t18 -42t-18 -42t-42 -18t-42 18t-18 42zM660 880q0 24 18 42 t42 18t42 -18t18 -42t-18 -42t-42 -18t-42 18t-18 42z" />
<glyph unicode="Q" d="M20 240q0 24 18 42t42 18t42 -18t18 -42t-18 -42t-42 -18t-42 18t-18 42zM20 400q0 24 18 42t42 18t42 -18t18 -42t-18 -42t-42 -18t-42 18t-18 42zM20 560q0 24 18 42t42 18t42 -18t18 -42t-18 -42t-42 -18t-42 18t-18 42zM20 720q0 24 18 42t42 18t42 -18t18 -42 t-18 -42t-42 -18t-42 18t-18 42zM20 880q0 24 18 42t42 18t42 -18t18 -42t-18 -42t-42 -18t-42 18t-18 42zM180 80q0 24 18 42t42 18t42 -18t18 -42t-18 -42t-42 -18t-42 18t-18 42zM180 1040q0 24 18 42t42 18t42 -18t18 -42t-18 -42t-42 -18t-42 18t-18 42zM340 80 q0 24 18 42t42 18t42 -18t18 -42t-18 -42t-42 -18t-42 18t-18 42zM340 400q0 24 18 42t42 18t42 -18t18 -42t-18 -42t-42 -18t-42 18t-18 42zM340 1040q0 24 18 42t42 18t42 -18t18 -42t-18 -42t-42 -18t-42 18t-18 42zM500 240q0 24 18 42t42 18t42 -18t18 -42t-18 -42 t-42 -18t-42 18t-18 42zM500 1040q0 24 18 42t42 18t42 -18t18 -42t-18 -42t-42 -18t-42 18t-18 42zM660 80q0 24 18 42t42 18t42 -18t18 -42t-18 -42t-42 -18t-42 18t-18 42zM660 400q0 24 18 42t42 18t42 -18t18 -42t-18 -42t-42 -18t-42 18t-18 42zM660 560q0 24 18 42 t42 18t42 -18t18 -42t-18 -42t-42 -18t-42 18t-18 42zM660 720q0 24 18 42t42 18t42 -18t18 -42t-18 -42t-42 -18t-42 18t-18 42zM660 880q0 24 18 42t42 18t42 -18t18 -42t-18 -42t-42 -18t-42 18t-18 42z" />
<glyph unicode="R" d="M20 80q0 24 18 42t42 18t42 -18t18 -42t-18 -42t-42 -18t-42 18t-18 42zM20 240q0 24 18 42t42 18t42 -18t18 -42t-18 -42t-42 -18t-42 18t-18 42zM20 400q0 24 18 42t42 18t42 -18t18 -42t-18 -42t-42 -18t-42 18t-18 42zM20 560q0 24 18 42t42 18t42 -18t18 -42 t-18 -42t-42 -18t-42 18t-18 42zM20 720q0 24 18 42t42 18t42 -18t18 -42t-18 -42t-42 -18t-42 18t-18 42zM20 880q0 24 18 42t42 18t42 -18t18 -42t-18 -42t-42 -18t-42 18t-18 42zM20 1040q0 24 18 42t42 18t42 -18t18 -42t-18 -42t-42 -18t-42 18t-18 42zM180 560 q0 24 18 42t42 18t42 -18t18 -42t-18 -42t-42 -18t-42 18t-18 42zM180 1040q0 24 18 42t42 18t42 -18t18 -42t-18 -42t-42 -18t-42 18t-18 42zM340 400q0 24 18 42t42 18t42 -18t18 -42t-18 -42t-42 -18t-42 18t-18 42zM340 560q0 24 18 42t42 18t42 -18t18 -42t-18 -42 t-42 -18t-42 18t-18 42zM340 1040q0 24 18 42t42 18t42 -18t18 -42t-18 -42t-42 -18t-42 18t-18 42zM500 240q0 24 18 42t42 18t42 -18t18 -42t-18 -42t-42 -18t-42 18t-18 42zM500 560q0 24 18 42t42 18t42 -18t18 -42t-18 -42t-42 -18t-42 18t-18 42zM500 1040q0 24 18 42 t42 18t42 -18t18 -42t-18 -42t-42 -18t-42 18t-18 42zM660 80q0 24 18 42t42 18t42 -18t18 -42t-18 -42t-42 -18t-42 18t-18 42zM660 720q0 24 18 42t42 18t42 -18t18 -42t-18 -42t-42 -18t-42 18t-18 42zM660 880q0 24 18 42t42 18t42 -18t18 -42t-18 -42t-42 -18t-42 18 t-18 42z" />
<glyph unicode="S" d="M20 80q0 24 18 42t42 18t42 -18t18 -42t-18 -42t-42 -18t-42 18t-18 42zM20 720q0 24 18 42t42 18t42 -18t18 -42t-18 -42t-42 -18t-42 18t-18 42zM20 880q0 24 18 42t42 18t42 -18t18 -42t-18 -42t-42 -18t-42 18t-18 42zM180 80q0 24 18 42t42 18t42 -18t18 -42 t-18 -42t-42 -18t-42 18t-18 42zM180 560q0 24 18 42t42 18t42 -18t18 -42t-18 -42t-42 -18t-42 18t-18 42zM180 1040q0 24 18 42t42 18t42 -18t18 -42t-18 -42t-42 -18t-42 18t-18 42zM340 80q0 24 18 42t42 18t42 -18t18 -42t-18 -42t-42 -18t-42 18t-18 42zM340 560 q0 24 18 42t42 18t42 -18t18 -42t-18 -42t-42 -18t-42 18t-18 42zM340 1040q0 24 18 42t42 18t42 -18t18 -42t-18 -42t-42 -18t-42 18t-18 42zM500 80q0 24 18 42t42 18t42 -18t18 -42t-18 -42t-42 -18t-42 18t-18 42zM500 560q0 24 18 42t42 18t42 -18t18 -42t-18 -42 t-42 -18t-42 18t-18 42zM500 1040q0 24 18 42t42 18t42 -18t18 -42t-18 -42t-42 -18t-42 18t-18 42zM660 240q0 24 18 42t42 18t42 -18t18 -42t-18 -42t-42 -18t-42 18t-18 42zM660 400q0 24 18 42t42 18t42 -18t18 -42t-18 -42t-42 -18t-42 18t-18 42zM660 1040q0 24 18 42 t42 18t42 -18t18 -42t-18 -42t-42 -18t-42 18t-18 42z" />
<glyph unicode="T" d="M20 1040q0 24 18 42t42 18t42 -18t18 -42t-18 -42t-42 -18t-42 18t-18 42zM180 1040q0 24 18 42t42 18t42 -18t18 -42t-18 -42t-42 -18t-42 18t-18 42zM340 80q0 24 18 42t42 18t42 -18t18 -42t-18 -42t-42 -18t-42 18t-18 42zM340 240q0 24 18 42t42 18t42 -18t18 -42 t-18 -42t-42 -18t-42 18t-18 42zM340 400q0 24 18 42t42 18t42 -18t18 -42t-18 -42t-42 -18t-42 18t-18 42zM340 560q0 24 18 42t42 18t42 -18t18 -42t-18 -42t-42 -18t-42 18t-18 42zM340 720q0 24 18 42t42 18t42 -18t18 -42t-18 -42t-42 -18t-42 18t-18 42zM340 880 q0 24 18 42t42 18t42 -18t18 -42t-18 -42t-42 -18t-42 18t-18 42zM340 1040q0 24 18 42t42 18t42 -18t18 -42t-18 -42t-42 -18t-42 18t-18 42zM500 1040q0 24 18 42t42 18t42 -18t18 -42t-18 -42t-42 -18t-42 18t-18 42zM660 1040q0 24 18 42t42 18t42 -18t18 -42t-18 -42 t-42 -18t-42 18t-18 42z" />
<glyph unicode="U" d="M20 240q0 24 18 42t42 18t42 -18t18 -42t-18 -42t-42 -18t-42 18t-18 42zM20 400q0 24 18 42t42 18t42 -18t18 -42t-18 -42t-42 -18t-42 18t-18 42zM20 560q0 24 18 42t42 18t42 -18t18 -42t-18 -42t-42 -18t-42 18t-18 42zM20 720q0 24 18 42t42 18t42 -18t18 -42 t-18 -42t-42 -18t-42 18t-18 42zM20 880q0 24 18 42t42 18t42 -18t18 -42t-18 -42t-42 -18t-42 18t-18 42zM20 1040q0 24 18 42t42 18t42 -18t18 -42t-18 -42t-42 -18t-42 18t-18 42zM180 80q0 24 18 42t42 18t42 -18t18 -42t-18 -42t-42 -18t-42 18t-18 42zM340 80 q0 24 18 42t42 18t42 -18t18 -42t-18 -42t-42 -18t-42 18t-18 42zM500 80q0 24 18 42t42 18t42 -18t18 -42t-18 -42t-42 -18t-42 18t-18 42zM660 240q0 24 18 42t42 18t42 -18t18 -42t-18 -42t-42 -18t-42 18t-18 42zM660 400q0 24 18 42t42 18t42 -18t18 -42t-18 -42 t-42 -18t-42 18t-18 42zM660 560q0 24 18 42t42 18t42 -18t18 -42t-18 -42t-42 -18t-42 18t-18 42zM660 720q0 24 18 42t42 18t42 -18t18 -42t-18 -42t-42 -18t-42 18t-18 42zM660 880q0 24 18 42t42 18t42 -18t18 -42t-18 -42t-42 -18t-42 18t-18 42zM660 1040q0 24 18 42 t42 18t42 -18t18 -42t-18 -42t-42 -18t-42 18t-18 42z" />
<glyph unicode="V" d="M20 400q0 24 18 42t42 18t42 -18t18 -42t-18 -42t-42 -18t-42 18t-18 42zM20 560q0 24 18 42t42 18t42 -18t18 -42t-18 -42t-42 -18t-42 18t-18 42zM20 720q0 24 18 42t42 18t42 -18t18 -42t-18 -42t-42 -18t-42 18t-18 42zM20 880q0 24 18 42t42 18t42 -18t18 -42 t-18 -42t-42 -18t-42 18t-18 42zM20 1040q0 24 18 42t42 18t42 -18t18 -42t-18 -42t-42 -18t-42 18t-18 42zM180 240q0 24 18 42t42 18t42 -18t18 -42t-18 -42t-42 -18t-42 18t-18 42zM340 80q0 24 18 42t42 18t42 -18t18 -42t-18 -42t-42 -18t-42 18t-18 42zM500 240 q0 24 18 42t42 18t42 -18t18 -42t-18 -42t-42 -18t-42 18t-18 42zM660 400q0 24 18 42t42 18t42 -18t18 -42t-18 -42t-42 -18t-42 18t-18 42zM660 560q0 24 18 42t42 18t42 -18t18 -42t-18 -42t-42 -18t-42 18t-18 42zM660 720q0 24 18 42t42 18t42 -18t18 -42t-18 -42 t-42 -18t-42 18t-18 42zM660 880q0 24 18 42t42 18t42 -18t18 -42t-18 -42t-42 -18t-42 18t-18 42zM660 1040q0 24 18 42t42 18t42 -18t18 -42t-18 -42t-42 -18t-42 18t-18 42z" />
<glyph unicode="W" d="M20 240q0 24 18 42t42 18t42 -18t18 -42t-18 -42t-42 -18t-42 18t-18 42zM20 400q0 24 18 42t42 18t42 -18t18 -42t-18 -42t-42 -18t-42 18t-18 42zM20 560q0 24 18 42t42 18t42 -18t18 -42t-18 -42t-42 -18t-42 18t-18 42zM20 720q0 24 18 42t42 18t42 -18t18 -42 t-18 -42t-42 -18t-42 18t-18 42zM20 880q0 24 18 42t42 18t42 -18t18 -42t-18 -42t-42 -18t-42 18t-18 42zM20 1040q0 24 18 42t42 18t42 -18t18 -42t-18 -42t-42 -18t-42 18t-18 42zM180 80q0 24 18 42t42 18t42 -18t18 -42t-18 -42t-42 -18t-42 18t-18 42zM340 240 q0 24 18 42t42 18t42 -18t18 -42t-18 -42t-42 -18t-42 18t-18 42zM340 400q0 24 18 42t42 18t42 -18t18 -42t-18 -42t-42 -18t-42 18t-18 42zM340 560q0 24 18 42t42 18t42 -18t18 -42t-18 -42t-42 -18t-42 18t-18 42zM340 720q0 24 18 42t42 18t42 -18t18 -42t-18 -42 t-42 -18t-42 18t-18 42zM340 880q0 24 18 42t42 18t42 -18t18 -42t-18 -42t-42 -18t-42 18t-18 42zM340 1040q0 24 18 42t42 18t42 -18t18 -42t-18 -42t-42 -18t-42 18t-18 42zM500 80q0 24 18 42t42 18t42 -18t18 -42t-18 -42t-42 -18t-42 18t-18 42zM660 240q0 24 18 42 t42 18t42 -18t18 -42t-18 -42t-42 -18t-42 18t-18 42zM660 400q0 24 18 42t42 18t42 -18t18 -42t-18 -42t-42 -18t-42 18t-18 42zM660 560q0 24 18 42t42 18t42 -18t18 -42t-18 -42t-42 -18t-42 18t-18 42zM660 720q0 24 18 42t42 18t42 -18t18 -42t-18 -42t-42 -18t-42 18 t-18 42zM660 880q0 24 18 42t42 18t42 -18t18 -42t-18 -42t-42 -18t-42 18t-18 42zM660 1040q0 24 18 42t42 18t42 -18t18 -42t-18 -42t-42 -18t-42 18t-18 42z" />
<glyph unicode="X" d="M20 80q0 24 18 42t42 18t42 -18t18 -42t-18 -42t-42 -18t-42 18t-18 42zM20 240q0 24 18 42t42 18t42 -18t18 -42t-18 -42t-42 -18t-42 18t-18 42zM20 880q0 24 18 42t42 18t42 -18t18 -42t-18 -42t-42 -18t-42 18t-18 42zM20 1040q0 24 18 42t42 18t42 -18t18 -42 t-18 -42t-42 -18t-42 18t-18 42zM180 400q0 24 18 42t42 18t42 -18t18 -42t-18 -42t-42 -18t-42 18t-18 42zM180 720q0 24 18 42t42 18t42 -18t18 -42t-18 -42t-42 -18t-42 18t-18 42zM340 560q0 24 18 42t42 18t42 -18t18 -42t-18 -42t-42 -18t-42 18t-18 42zM500 400 q0 24 18 42t42 18t42 -18t18 -42t-18 -42t-42 -18t-42 18t-18 42zM500 720q0 24 18 42t42 18t42 -18t18 -42t-18 -42t-42 -18t-42 18t-18 42zM660 80q0 24 18 42t42 18t42 -18t18 -42t-18 -42t-42 -18t-42 18t-18 42zM660 240q0 24 18 42t42 18t42 -18t18 -42t-18 -42 t-42 -18t-42 18t-18 42zM660 880q0 24 18 42t42 18t42 -18t18 -42t-18 -42t-42 -18t-42 18t-18 42zM660 1040q0 24 18 42t42 18t42 -18t18 -42t-18 -42t-42 -18t-42 18t-18 42z" />
<glyph unicode="Y" d="M20 880q0 24 18 42t42 18t42 -18t18 -42t-18 -42t-42 -18t-42 18t-18 42zM20 1040q0 24 18 42t42 18t42 -18t18 -42t-18 -42t-42 -18t-42 18t-18 42zM180 720q0 24 18 42t42 18t42 -18t18 -42t-18 -42t-42 -18t-42 18t-18 42zM340 80q0 24 18 42t42 18t42 -18t18 -42 t-18 -42t-42 -18t-42 18t-18 42zM340 240q0 24 18 42t42 18t42 -18t18 -42t-18 -42t-42 -18t-42 18t-18 42zM340 400q0 24 18 42t42 18t42 -18t18 -42t-18 -42t-42 -18t-42 18t-18 42zM340 560q0 24 18 42t42 18t42 -18t18 -42t-18 -42t-42 -18t-42 18t-18 42zM500 720 q0 24 18 42t42 18t42 -18t18 -42t-18 -42t-42 -18t-42 18t-18 42zM660 880q0 24 18 42t42 18t42 -18t18 -42t-18 -42t-42 -18t-42 18t-18 42zM660 1040q0 24 18 42t42 18t42 -18t18 -42t-18 -42t-42 -18t-42 18t-18 42z" />
<glyph unicode="Z" d="M20 80q0 24 18 42t42 18t42 -18t18 -42t-18 -42t-42 -18t-42 18t-18 42zM20 240q0 24 18 42t42 18t42 -18t18 -42t-18 -42t-42 -18t-42 18t-18 42zM20 1040q0 24 18 42t42 18t42 -18t18 -42t-18 -42t-42 -18t-42 18t-18 42zM180 80q0 24 18 42t42 18t42 -18t18 -42 t-18 -42t-42 -18t-42 18t-18 42zM180 400q0 24 18 42t42 18t42 -18t18 -42t-18 -42t-42 -18t-42 18t-18 42zM180 1040q0 24 18 42t42 18t42 -18t18 -42t-18 -42t-42 -18t-42 18t-18 42zM340 80q0 24 18 42t42 18t42 -18t18 -42t-18 -42t-42 -18t-42 18t-18 42zM340 560 q0 24 18 42t42 18t42 -18t18 -42t-18 -42t-42 -18t-42 18t-18 42zM340 1040q0 24 18 42t42 18t42 -18t18 -42t-18 -42t-42 -18t-42 18t-18 42zM500 80q0 24 18 42t42 18t42 -18t18 -42t-18 -42t-42 -18t-42 18t-18 42zM500 720q0 24 18 42t42 18t42 -18t18 -42t-18 -42 t-42 -18t-42 18t-18 42zM500 1040q0 24 18 42t42 18t42 -18t18 -42t-18 -42t-42 -18t-42 18t-18 42zM660 80q0 24 18 42t42 18t42 -18t18 -42t-18 -42t-42 -18t-42 18t-18 42zM660 880q0 24 18 42t42 18t42 -18t18 -42t-18 -42t-42 -18t-42 18t-18 42zM660 1040q0 24 18 42 t42 18t42 -18t18 -42t-18 -42t-42 -18t-42 18t-18 42z" />
<glyph unicode="[" d="M180 80q0 24 18 42t42 18t42 -18t18 -42t-18 -42t-42 -18t-42 18t-18 42zM180 240q0 24 18 42t42 18t42 -18t18 -42t-18 -42t-42 -18t-42 18t-18 42zM180 400q0 24 18 42t42 18t42 -18t18 -42t-18 -42t-42 -18t-42 18t-18 42zM180 560q0 24 18 42t42 18t42 -18t18 -42 t-18 -42t-42 -18t-42 18t-18 42zM180 720q0 24 18 42t42 18t42 -18t18 -42t-18 -42t-42 -18t-42 18t-18 42zM180 880q0 24 18 42t42 18t42 -18t18 -42t-18 -42t-42 -18t-42 18t-18 42zM180 1040q0 24 18 42t42 18t42 -18t18 -42t-18 -42t-42 -18t-42 18t-18 42zM340 80 q0 24 18 42t42 18t42 -18t18 -42t-18 -42t-42 -18t-42 18t-18 42zM340 1040q0 24 18 42t42 18t42 -18t18 -42t-18 -42t-42 -18t-42 18t-18 42zM500 80q0 24 18 42t42 18t42 -18t18 -42t-18 -42t-42 -18t-42 18t-18 42zM500 1040q0 24 18 42t42 18t42 -18t18 -42t-18 -42 t-42 -18t-42 18t-18 42z" />
<glyph unicode="\" d="M20 880q0 24 18 42t42 18t42 -18t18 -42t-18 -42t-42 -18t-42 18t-18 42zM20 1040q0 24 18 42t42 18t42 -18t18 -42t-18 -42t-42 -18t-42 18t-18 42zM180 720q0 24 18 42t42 18t42 -18t18 -42t-18 -42t-42 -18t-42 18t-18 42zM340 560q0 24 18 42t42 18t42 -18t18 -42 t-18 -42t-42 -18t-42 18t-18 42zM500 400q0 24 18 42t42 18t42 -18t18 -42t-18 -42t-42 -18t-42 18t-18 42zM660 80q0 24 18 42t42 18t42 -18t18 -42t-18 -42t-42 -18t-42 18t-18 42zM660 240q0 24 18 42t42 18t42 -18t18 -42t-18 -42t-42 -18t-42 18t-18 42z" />
<glyph unicode="]" d="M180 80q0 24 18 42t42 18t42 -18t18 -42t-18 -42t-42 -18t-42 18t-18 42zM180 1040q0 24 18 42t42 18t42 -18t18 -42t-18 -42t-42 -18t-42 18t-18 42zM340 80q0 24 18 42t42 18t42 -18t18 -42t-18 -42t-42 -18t-42 18t-18 42zM340 1040q0 24 18 42t42 18t42 -18t18 -42 t-18 -42t-42 -18t-42 18t-18 42zM500 80q0 24 18 42t42 18t42 -18t18 -42t-18 -42t-42 -18t-42 18t-18 42zM500 240q0 24 18 42t42 18t42 -18t18 -42t-18 -42t-42 -18t-42 18t-18 42zM500 400q0 24 18 42t42 18t42 -18t18 -42t-18 -42t-42 -18t-42 18t-18 42zM500 560 q0 24 18 42t42 18t42 -18t18 -42t-18 -42t-42 -18t-42 18t-18 42zM500 720q0 24 18 42t42 18t42 -18t18 -42t-18 -42t-42 -18t-42 18t-18 42zM500 880q0 24 18 42t42 18t42 -18t18 -42t-18 -42t-42 -18t-42 18t-18 42zM500 1040q0 24 18 42t42 18t42 -18t18 -42t-18 -42 t-42 -18t-42 18t-18 42z" />
<glyph unicode="^" d="M180 880q0 24 18 42t42 18t42 -18t18 -42t-18 -42t-42 -18t-42 18t-18 42zM340 1040q0 24 18 42t42 18t42 -18t18 -42t-18 -42t-42 -18t-42 18t-18 42zM500 880q0 24 18 42t42 18t42 -18t18 -42t-18 -42t-42 -18t-42 18t-18 42z" />
<glyph unicode="_" d="M20 80q0 24 18 42t42 18t42 -18t18 -42t-18 -42t-42 -18t-42 18t-18 42zM180 80q0 24 18 42t42 18t42 -18t18 -42t-18 -42t-42 -18t-42 18t-18 42zM340 80q0 24 18 42t42 18t42 -18t18 -42t-18 -42t-42 -18t-42 18t-18 42zM500 80q0 24 18 42t42 18t42 -18t18 -42 t-18 -42t-42 -18t-42 18t-18 42zM660 80q0 24 18 42t42 18t42 -18t18 -42t-18 -42t-42 -18t-42 18t-18 42z" />
<glyph unicode="`" d="M180 1040q0 24 18 42t42 18t42 -18t18 -42t-18 -42t-42 -18t-42 18t-18 42zM340 880q0 24 18 42t42 18t42 -18t18 -42t-18 -42t-42 -18t-42 18t-18 42z" />
<glyph unicode="a" d="M20 240q0 24 18 42t42 18t42 -18t18 -42t-18 -42t-42 -18t-42 18t-18 42zM20 400q0 24 18 42t42 18t42 -18t18 -42t-18 -42t-42 -18t-42 18t-18 42zM20 560q0 24 18 42t42 18t42 -18t18 -42t-18 -42t-42 -18t-42 18t-18 42zM180 80q0 24 18 42t42 18t42 -18t18 -42 t-18 -42t-42 -18t-42 18t-18 42zM180 720q0 24 18 42t42 18t42 -18t18 -42t-18 -42t-42 -18t-42 18t-18 42zM340 80q0 24 18 42t42 18t42 -18t18 -42t-18 -42t-42 -18t-42 18t-18 42zM340 720q0 24 18 42t42 18t42 -18t18 -42t-18 -42t-42 -18t-42 18t-18 42zM500 240 q0 24 18 42t42 18t42 -18t18 -42t-18 -42t-42 -18t-42 18t-18 42zM500 720q0 24 18 42t42 18t42 -18t18 -42t-18 -42t-42 -18t-42 18t-18 42zM660 80q0 24 18 42t42 18t42 -18t18 -42t-18 -42t-42 -18t-42 18t-18 42zM660 240q0 24 18 42t42 18t42 -18t18 -42t-18 -42 t-42 -18t-42 18t-18 42zM660 400q0 24 18 42t42 18t42 -18t18 -42t-18 -42t-42 -18t-42 18t-18 42zM660 560q0 24 18 42t42 18t42 -18t18 -42t-18 -42t-42 -18t-42 18t-18 42zM660 720q0 24 18 42t42 18t42 -18t18 -42t-18 -42t-42 -18t-42 18t-18 42z" />
<glyph unicode="b" d="M20 80q0 24 18 42t42 18t42 -18t18 -42t-18 -42t-42 -18t-42 18t-18 42zM20 240q0 24 18 42t42 18t42 -18t18 -42t-18 -42t-42 -18t-42 18t-18 42zM20 400q0 24 18 42t42 18t42 -18t18 -42t-18 -42t-42 -18t-42 18t-18 42zM20 560q0 24 18 42t42 18t42 -18t18 -42 t-18 -42t-42 -18t-42 18t-18 42zM20 720q0 24 18 42t42 18t42 -18t18 -42t-18 -42t-42 -18t-42 18t-18 42zM20 880q0 24 18 42t42 18t42 -18t18 -42t-18 -42t-42 -18t-42 18t-18 42zM20 1040q0 24 18 42t42 18t42 -18t18 -42t-18 -42t-42 -18t-42 18t-18 42zM180 80 q0 24 18 42t42 18t42 -18t18 -42t-18 -42t-42 -18t-42 18t-18 42zM180 720q0 24 18 42t42 18t42 -18t18 -42t-18 -42t-42 -18t-42 18t-18 42zM340 80q0 24 18 42t42 18t42 -18t18 -42t-18 -42t-42 -18t-42 18t-18 42zM340 720q0 24 18 42t42 18t42 -18t18 -42t-18 -42 t-42 -18t-42 18t-18 42zM500 80q0 24 18 42t42 18t42 -18t18 -42t-18 -42t-42 -18t-42 18t-18 42zM500 720q0 24 18 42t42 18t42 -18t18 -42t-18 -42t-42 -18t-42 18t-18 42zM660 240q0 24 18 42t42 18t42 -18t18 -42t-18 -42t-42 -18t-42 18t-18 42zM660 400q0 24 18 42 t42 18t42 -18t18 -42t-18 -42t-42 -18t-42 18t-18 42zM660 560q0 24 18 42t42 18t42 -18t18 -42t-18 -42t-42 -18t-42 18t-18 42z" />
<glyph unicode="c" d="M20 240q0 24 18 42t42 18t42 -18t18 -42t-18 -42t-42 -18t-42 18t-18 42zM20 400q0 24 18 42t42 18t42 -18t18 -42t-18 -42t-42 -18t-42 18t-18 42zM20 560q0 24 18 42t42 18t42 -18t18 -42t-18 -42t-42 -18t-42 18t-18 42zM180 80q0 24 18 42t42 18t42 -18t18 -42 t-18 -42t-42 -18t-42 18t-18 42zM180 720q0 24 18 42t42 18t42 -18t18 -42t-18 -42t-42 -18t-42 18t-18 42zM340 80q0 24 18 42t42 18t42 -18t18 -42t-18 -42t-42 -18t-42 18t-18 42zM340 720q0 24 18 42t42 18t42 -18t18 -42t-18 -42t-42 -18t-42 18t-18 42zM500 80 q0 24 18 42t42 18t42 -18t18 -42t-18 -42t-42 -18t-42 18t-18 42zM500 720q0 24 18 42t42 18t42 -18t18 -42t-18 -42t-42 -18t-42 18t-18 42zM660 80q0 24 18 42t42 18t42 -18t18 -42t-18 -42t-42 -18t-42 18t-18 42zM660 720q0 24 18 42t42 18t42 -18t18 -42t-18 -42 t-42 -18t-42 18t-18 42z" />
<glyph unicode="d" d="M20 240q0 24 18 42t42 18t42 -18t18 -42t-18 -42t-42 -18t-42 18t-18 42zM20 400q0 24 18 42t42 18t42 -18t18 -42t-18 -42t-42 -18t-42 18t-18 42zM20 560q0 24 18 42t42 18t42 -18t18 -42t-18 -42t-42 -18t-42 18t-18 42zM180 80q0 24 18 42t42 18t42 -18t18 -42 t-18 -42t-42 -18t-42 18t-18 42zM180 720q0 24 18 42t42 18t42 -18t18 -42t-18 -42t-42 -18t-42 18t-18 42zM340 80q0 24 18 42t42 18t42 -18t18 -42t-18 -42t-42 -18t-42 18t-18 42zM340 720q0 24 18 42t42 18t42 -18t18 -42t-18 -42t-42 -18t-42 18t-18 42zM500 240 q0 24 18 42t42 18t42 -18t18 -42t-18 -42t-42 -18t-42 18t-18 42zM500 720q0 24 18 42t42 18t42 -18t18 -42t-18 -42t-42 -18t-42 18t-18 42zM660 80q0 24 18 42t42 18t42 -18t18 -42t-18 -42t-42 -18t-42 18t-18 42zM660 240q0 24 18 42t42 18t42 -18t18 -42t-18 -42 t-42 -18t-42 18t-18 42zM660 400q0 24 18 42t42 18t42 -18t18 -42t-18 -42t-42 -18t-42 18t-18 42zM660 560q0 24 18 42t42 18t42 -18t18 -42t-18 -42t-42 -18t-42 18t-18 42zM660 720q0 24 18 42t42 18t42 -18t18 -42t-18 -42t-42 -18t-42 18t-18 42zM660 880q0 24 18 42 t42 18t42 -18t18 -42t-18 -42t-42 -18t-42 18t-18 42zM660 1040q0 24 18 42t42 18t42 -18t18 -42t-18 -42t-42 -18t-42 18t-18 42z" />
<glyph unicode="e" d="M20 240q0 24 18 42t42 18t42 -18t18 -42t-18 -42t-42 -18t-42 18t-18 42zM20 400q0 24 18 42t42 18t42 -18t18 -42t-18 -42t-42 -18t-42 18t-18 42zM20 560q0 24 18 42t42 18t42 -18t18 -42t-18 -42t-42 -18t-42 18t-18 42zM180 80q0 24 18 42t42 18t42 -18t18 -42 t-18 -42t-42 -18t-42 18t-18 42zM180 400q0 24 18 42t42 18t42 -18t18 -42t-18 -42t-42 -18t-42 18t-18 42zM180 720q0 24 18 42t42 18t42 -18t18 -42t-18 -42t-42 -18t-42 18t-18 42zM340 80q0 24 18 42t42 18t42 -18t18 -42t-18 -42t-42 -18t-42 18t-18 42zM340 400 q0 24 18 42t42 18t42 -18t18 -42t-18 -42t-42 -18t-42 18t-18 42zM340 720q0 24 18 42t42 18t42 -18t18 -42t-18 -42t-42 -18t-42 18t-18 42zM500 80q0 24 18 42t42 18t42 -18t18 -42t-18 -42t-42 -18t-42 18t-18 42zM500 400q0 24 18 42t42 18t42 -18t18 -42t-18 -42 t-42 -18t-42 18t-18 42zM500 720q0 24 18 42t42 18t42 -18t18 -42t-18 -42t-42 -18t-42 18t-18 42zM660 80q0 24 18 42t42 18t42 -18t18 -42t-18 -42t-42 -18t-42 18t-18 42zM660 400q0 24 18 42t42 18t42 -18t18 -42t-18 -42t-42 -18t-42 18t-18 42zM660 560q0 24 18 42 t42 18t42 -18t18 -42t-18 -42t-42 -18t-42 18t-18 42z" />
<glyph unicode="f" d="M20 400q0 24 18 42t42 18t42 -18t18 -42t-18 -42t-42 -18t-42 18t-18 42zM180 80q0 24 18 42t42 18t42 -18t18 -42t-18 -42t-42 -18t-42 18t-18 42zM180 240q0 24 18 42t42 18t42 -18t18 -42t-18 -42t-42 -18t-42 18t-18 42zM180 400q0 24 18 42t42 18t42 -18t18 -42 t-18 -42t-42 -18t-42 18t-18 42zM180 560q0 24 18 42t42 18t42 -18t18 -42t-18 -42t-42 -18t-42 18t-18 42zM180 720q0 24 18 42t42 18t42 -18t18 -42t-18 -42t-42 -18t-42 18t-18 42zM180 880q0 24 18 42t42 18t42 -18t18 -42t-18 -42t-42 -18t-42 18t-18 42zM340 400 q0 24 18 42t42 18t42 -18t18 -42t-18 -42t-42 -18t-42 18t-18 42zM340 1040q0 24 18 42t42 18t42 -18t18 -42t-18 -42t-42 -18t-42 18t-18 42zM500 400q0 24 18 42t42 18t42 -18t18 -42t-18 -42t-42 -18t-42 18t-18 42zM500 1040q0 24 18 42t42 18t42 -18t18 -42t-18 -42 t-42 -18t-42 18t-18 42zM660 880q0 24 18 42t42 18t42 -18t18 -42t-18 -42t-42 -18t-42 18t-18 42z" />
<glyph unicode="g" d="M20 560q0 24 18 42t42 18t42 -18t18 -42t-18 -42t-42 -18t-42 18t-18 42zM180 80q0 24 18 42t42 18t42 -18t18 -42t-18 -42t-42 -18t-42 18t-18 42zM180 400q0 24 18 42t42 18t42 -18t18 -42t-18 -42t-42 -18t-42 18t-18 42zM180 720q0 24 18 42t42 18t42 -18t18 -42 t-18 -42t-42 -18t-42 18t-18 42zM340 80q0 24 18 42t42 18t42 -18t18 -42t-18 -42t-42 -18t-42 18t-18 42zM340 400q0 24 18 42t42 18t42 -18t18 -42t-18 -42t-42 -18t-42 18t-18 42zM340 720q0 24 18 42t42 18t42 -18t18 -42t-18 -42t-42 -18t-42 18t-18 42zM500 80 q0 24 18 42t42 18t42 -18t18 -42t-18 -42t-42 -18t-42 18t-18 42zM500 400q0 24 18 42t42 18t42 -18t18 -42t-18 -42t-42 -18t-42 18t-18 42zM500 720q0 24 18 42t42 18t42 -18t18 -42t-18 -42t-42 -18t-42 18t-18 42zM660 240q0 24 18 42t42 18t42 -18t18 -42t-18 -42 t-42 -18t-42 18t-18 42zM660 400q0 24 18 42t42 18t42 -18t18 -42t-18 -42t-42 -18t-42 18t-18 42zM660 560q0 24 18 42t42 18t42 -18t18 -42t-18 -42t-42 -18t-42 18t-18 42zM660 720q0 24 18 42t42 18t42 -18t18 -42t-18 -42t-42 -18t-42 18t-18 42z" />
<glyph unicode="h" d="M20 80q0 24 18 42t42 18t42 -18t18 -42t-18 -42t-42 -18t-42 18t-18 42zM20 240q0 24 18 42t42 18t42 -18t18 -42t-18 -42t-42 -18t-42 18t-18 42zM20 400q0 24 18 42t42 18t42 -18t18 -42t-18 -42t-42 -18t-42 18t-18 42zM20 560q0 24 18 42t42 18t42 -18t18 -42 t-18 -42t-42 -18t-42 18t-18 42zM20 720q0 24 18 42t42 18t42 -18t18 -42t-18 -42t-42 -18t-42 18t-18 42zM20 880q0 24 18 42t42 18t42 -18t18 -42t-18 -42t-42 -18t-42 18t-18 42zM20 1040q0 24 18 42t42 18t42 -18t18 -42t-18 -42t-42 -18t-42 18t-18 42zM180 400 q0 24 18 42t42 18t42 -18t18 -42t-18 -42t-42 -18t-42 18t-18 42zM340 560q0 24 18 42t42 18t42 -18t18 -42t-18 -42t-42 -18t-42 18t-18 42zM500 560q0 24 18 42t42 18t42 -18t18 -42t-18 -42t-42 -18t-42 18t-18 42zM660 80q0 24 18 42t42 18t42 -18t18 -42t-18 -42 t-42 -18t-42 18t-18 42zM660 240q0 24 18 42t42 18t42 -18t18 -42t-18 -42t-42 -18t-42 18t-18 42zM660 400q0 24 18 42t42 18t42 -18t18 -42t-18 -42t-42 -18t-42 18t-18 42z" />
<glyph unicode="i" d="M180 240q0 24 18 42t42 18t42 -18t18 -42t-18 -42t-42 -18t-42 18t-18 42zM180 400q0 24 18 42t42 18t42 -18t18 -42t-18 -42t-42 -18t-42 18t-18 42zM180 560q0 24 18 42t42 18t42 -18t18 -42t-18 -42t-42 -18t-42 18t-18 42zM180 720q0 24 18 42t42 18t42 -18t18 -42 t-18 -42t-42 -18t-42 18t-18 42zM180 1040q0 24 18 42t42 18t42 -18t18 -42t-18 -42t-42 -18t-42 18t-18 42zM340 80q0 24 18 42t42 18t42 -18t18 -42t-18 -42t-42 -18t-42 18t-18 42zM500 80q0 24 18 42t42 18t42 -18t18 -42t-18 -42t-42 -18t-42 18t-18 42z" />
<glyph unicode="j" d="M20 240q0 24 18 42t42 18t42 -18t18 -42t-18 -42t-42 -18t-42 18t-18 42zM180 80q0 24 18 42t42 18t42 -18t18 -42t-18 -42t-42 -18t-42 18t-18 42zM340 240q0 24 18 42t42 18t42 -18t18 -42t-18 -42t-42 -18t-42 18t-18 42zM340 400q0 24 18 42t42 18t42 -18t18 -42 t-18 -42t-42 -18t-42 18t-18 42zM340 560q0 24 18 42t42 18t42 -18t18 -42t-18 -42t-42 -18t-42 18t-18 42zM340 720q0 24 18 42t42 18t42 -18t18 -42t-18 -42t-42 -18t-42 18t-18 42zM340 1040q0 24 18 42t42 18t42 -18t18 -42t-18 -42t-42 -18t-42 18t-18 42z" />
<glyph unicode="k" d="M20 80q0 24 18 42t42 18t42 -18t18 -42t-18 -42t-42 -18t-42 18t-18 42zM20 240q0 24 18 42t42 18t42 -18t18 -42t-18 -42t-42 -18t-42 18t-18 42zM20 400q0 24 18 42t42 18t42 -18t18 -42t-18 -42t-42 -18t-42 18t-18 42zM20 560q0 24 18 42t42 18t42 -18t18 -42 t-18 -42t-42 -18t-42 18t-18 42zM20 720q0 24 18 42t42 18t42 -18t18 -42t-18 -42t-42 -18t-42 18t-18 42zM20 880q0 24 18 42t42 18t42 -18t18 -42t-18 -42t-42 -18t-42 18t-18 42zM20 1040q0 24 18 42t42 18t42 -18t18 -42t-18 -42t-42 -18t-42 18t-18 42zM180 400 q0 24 18 42t42 18t42 -18t18 -42t-18 -42t-42 -18t-42 18t-18 42zM340 400q0 24 18 42t42 18t42 -18t18 -42t-18 -42t-42 -18t-42 18t-18 42zM340 560q0 24 18 42t42 18t42 -18t18 -42t-18 -42t-42 -18t-42 18t-18 42zM500 240q0 24 18 42t42 18t42 -18t18 -42t-18 -42 t-42 -18t-42 18t-18 42zM500 720q0 24 18 42t42 18t42 -18t18 -42t-18 -42t-42 -18t-42 18t-18 42zM660 80q0 24 18 42t42 18t42 -18t18 -42t-18 -42t-42 -18t-42 18t-18 42z" />
<glyph unicode="l" d="M180 240q0 24 18 42t42 18t42 -18t18 -42t-18 -42t-42 -18t-42 18t-18 42zM180 400q0 24 18 42t42 18t42 -18t18 -42t-18 -42t-42 -18t-42 18t-18 42zM180 560q0 24 18 42t42 18t42 -18t18 -42t-18 -42t-42 -18t-42 18t-18 42zM180 720q0 24 18 42t42 18t42 -18t18 -42 t-18 -42t-42 -18t-42 18t-18 42zM180 880q0 24 18 42t42 18t42 -18t18 -42t-18 -42t-42 -18t-42 18t-18 42zM180 1040q0 24 18 42t42 18t42 -18t18 -42t-18 -42t-42 -18t-42 18t-18 42zM340 80q0 24 18 42t42 18t42 -18t18 -42t-18 -42t-42 -18t-42 18t-18 42zM500 80 q0 24 18 42t42 18t42 -18t18 -42t-18 -42t-42 -18t-42 18t-18 42z" />
<glyph unicode="m" d="M20 80q0 24 18 42t42 18t42 -18t18 -42t-18 -42t-42 -18t-42 18t-18 42zM20 240q0 24 18 42t42 18t42 -18t18 -42t-18 -42t-42 -18t-42 18t-18 42zM20 400q0 24 18 42t42 18t42 -18t18 -42t-18 -42t-42 -18t-42 18t-18 42zM20 560q0 24 18 42t42 18t42 -18t18 -42 t-18 -42t-42 -18t-42 18t-18 42zM20 720q0 24 18 42t42 18t42 -18t18 -42t-18 -42t-42 -18t-42 18t-18 42zM180 720q0 24 18 42t42 18t42 -18t18 -42t-18 -42t-42 -18t-42 18t-18 42zM340 80q0 24 18 42t42 18t42 -18t18 -42t-18 -42t-42 -18t-42 18t-18 42zM340 240 q0 24 18 42t42 18t42 -18t18 -42t-18 -42t-42 -18t-42 18t-18 42zM340 400q0 24 18 42t42 18t42 -18t18 -42t-18 -42t-42 -18t-42 18t-18 42zM340 560q0 24 18 42t42 18t42 -18t18 -42t-18 -42t-42 -18t-42 18t-18 42zM500 720q0 24 18 42t42 18t42 -18t18 -42t-18 -42 t-42 -18t-42 18t-18 42zM660 80q0 24 18 42t42 18t42 -18t18 -42t-18 -42t-42 -18t-42 18t-18 42zM660 240q0 24 18 42t42 18t42 -18t18 -42t-18 -42t-42 -18t-42 18t-18 42zM660 400q0 24 18 42t42 18t42 -18t18 -42t-18 -42t-42 -18t-42 18t-18 42zM660 560q0 24 18 42 t42 18t42 -18t18 -42t-18 -42t-42 -18t-42 18t-18 42z" />
<glyph unicode="n" d="M20 80q0 24 18 42t42 18t42 -18t18 -42t-18 -42t-42 -18t-42 18t-18 42zM20 240q0 24 18 42t42 18t42 -18t18 -42t-18 -42t-42 -18t-42 18t-18 42zM20 400q0 24 18 42t42 18t42 -18t18 -42t-18 -42t-42 -18t-42 18t-18 42zM20 560q0 24 18 42t42 18t42 -18t18 -42 t-18 -42t-42 -18t-42 18t-18 42zM20 720q0 24 18 42t42 18t42 -18t18 -42t-18 -42t-42 -18t-42 18t-18 42zM180 720q0 24 18 42t42 18t42 -18t18 -42t-18 -42t-42 -18t-42 18t-18 42zM340 720q0 24 18 42t42 18t42 -18t18 -42t-18 -42t-42 -18t-42 18t-18 42zM500 720 q0 24 18 42t42 18t42 -18t18 -42t-18 -42t-42 -18t-42 18t-18 42zM660 80q0 24 18 42t42 18t42 -18t18 -42t-18 -42t-42 -18t-42 18t-18 42zM660 240q0 24 18 42t42 18t42 -18t18 -42t-18 -42t-42 -18t-42 18t-18 42zM660 400q0 24 18 42t42 18t42 -18t18 -42t-18 -42 t-42 -18t-42 18t-18 42zM660 560q0 24 18 42t42 18t42 -18t18 -42t-18 -42t-42 -18t-42 18t-18 42z" />
<glyph unicode="o" d="M20 240q0 24 18 42t42 18t42 -18t18 -42t-18 -42t-42 -18t-42 18t-18 42zM20 400q0 24 18 42t42 18t42 -18t18 -42t-18 -42t-42 -18t-42 18t-18 42zM20 560q0 24 18 42t42 18t42 -18t18 -42t-18 -42t-42 -18t-42 18t-18 42zM180 80q0 24 18 42t42 18t42 -18t18 -42 t-18 -42t-42 -18t-42 18t-18 42zM180 720q0 24 18 42t42 18t42 -18t18 -42t-18 -42t-42 -18t-42 18t-18 42zM340 80q0 24 18 42t42 18t42 -18t18 -42t-18 -42t-42 -18t-42 18t-18 42zM340 720q0 24 18 42t42 18t42 -18t18 -42t-18 -42t-42 -18t-42 18t-18 42zM500 80 q0 24 18 42t42 18t42 -18t18 -42t-18 -42t-42 -18t-42 18t-18 42zM500 720q0 24 18 42t42 18t42 -18t18 -42t-18 -42t-42 -18t-42 18t-18 42zM660 240q0 24 18 42t42 18t42 -18t18 -42t-18 -42t-42 -18t-42 18t-18 42zM660 400q0 24 18 42t42 18t42 -18t18 -42t-18 -42 t-42 -18t-42 18t-18 42zM660 560q0 24 18 42t42 18t42 -18t18 -42t-18 -42t-42 -18t-42 18t-18 42z" />
<glyph unicode="p" d="M20 80q0 24 18 42t42 18t42 -18t18 -42t-18 -42t-42 -18t-42 18t-18 42zM20 240q0 24 18 42t42 18t42 -18t18 -42t-18 -42t-42 -18t-42 18t-18 42zM20 400q0 24 18 42t42 18t42 -18t18 -42t-18 -42t-42 -18t-42 18t-18 42zM20 560q0 24 18 42t42 18t42 -18t18 -42 t-18 -42t-42 -18t-42 18t-18 42zM20 720q0 24 18 42t42 18t42 -18t18 -42t-18 -42t-42 -18t-42 18t-18 42zM180 400q0 24 18 42t42 18t42 -18t18 -42t-18 -42t-42 -18t-42 18t-18 42zM180 720q0 24 18 42t42 18t42 -18t18 -42t-18 -42t-42 -18t-42 18t-18 42zM340 400 q0 24 18 42t42 18t42 -18t18 -42t-18 -42t-42 -18t-42 18t-18 42zM340 720q0 24 18 42t42 18t42 -18t18 -42t-18 -42t-42 -18t-42 18t-18 42zM500 400q0 24 18 42t42 18t42 -18t18 -42t-18 -42t-42 -18t-42 18t-18 42zM500 720q0 24 18 42t42 18t42 -18t18 -42t-18 -42 t-42 -18t-42 18t-18 42zM660 560q0 24 18 42t42 18t42 -18t18 -42t-18 -42t-42 -18t-42 18t-18 42z" />
<glyph unicode="q" d="M20 560q0 24 18 42t42 18t42 -18t18 -42t-18 -42t-42 -18t-42 18t-18 42zM180 400q0 24 18 42t42 18t42 -18t18 -42t-18 -42t-42 -18t-42 18t-18 42zM180 720q0 24 18 42t42 18t42 -18t18 -42t-18 -42t-42 -18t-42 18t-18 42zM340 400q0 24 18 42t42 18t42 -18t18 -42 t-18 -42t-42 -18t-42 18t-18 42zM340 720q0 24 18 42t42 18t42 -18t18 -42t-18 -42t-42 -18t-42 18t-18 42zM500 400q0 24 18 42t42 18t42 -18t18 -42t-18 -42t-42 -18t-42 18t-18 42zM500 720q0 24 18 42t42 18t42 -18t18 -42t-18 -42t-42 -18t-42 18t-18 42zM660 80 q0 24 18 42t42 18t42 -18t18 -42t-18 -42t-42 -18t-42 18t-18 42zM660 240q0 24 18 42t42 18t42 -18t18 -42t-18 -42t-42 -18t-42 18t-18 42zM660 400q0 24 18 42t42 18t42 -18t18 -42t-18 -42t-42 -18t-42 18t-18 42zM660 560q0 24 18 42t42 18t42 -18t18 -42t-18 -42 t-42 -18t-42 18t-18 42zM660 720q0 24 18 42t42 18t42 -18t18 -42t-18 -42t-42 -18t-42 18t-18 42z" />
<glyph unicode="r" d="M20 80q0 24 18 42t42 18t42 -18t18 -42t-18 -42t-42 -18t-42 18t-18 42zM20 240q0 24 18 42t42 18t42 -18t18 -42t-18 -42t-42 -18t-42 18t-18 42zM20 400q0 24 18 42t42 18t42 -18t18 -42t-18 -42t-42 -18t-42 18t-18 42zM20 560q0 24 18 42t42 18t42 -18t18 -42 t-18 -42t-42 -18t-42 18t-18 42zM20 720q0 24 18 42t42 18t42 -18t18 -42t-18 -42t-42 -18t-42 18t-18 42zM180 560q0 24 18 42t42 18t42 -18t18 -42t-18 -42t-42 -18t-42 18t-18 42zM340 720q0 24 18 42t42 18t42 -18t18 -42t-18 -42t-42 -18t-42 18t-18 42zM500 720 q0 24 18 42t42 18t42 -18t18 -42t-18 -42t-42 -18t-42 18t-18 42zM660 720q0 24 18 42t42 18t42 -18t18 -42t-18 -42t-42 -18t-42 18t-18 42z" />
<glyph unicode="s" d="M20 80q0 24 18 42t42 18t42 -18t18 -42t-18 -42t-42 -18t-42 18t-18 42zM20 560q0 24 18 42t42 18t42 -18t18 -42t-18 -42t-42 -18t-42 18t-18 42zM180 80q0 24 18 42t42 18t42 -18t18 -42t-18 -42t-42 -18t-42 18t-18 42zM180 400q0 24 18 42t42 18t42 -18t18 -42 t-18 -42t-42 -18t-42 18t-18 42zM180 720q0 24 18 42t42 18t42 -18t18 -42t-18 -42t-42 -18t-42 18t-18 42zM340 80q0 24 18 42t42 18t42 -18t18 -42t-18 -42t-42 -18t-42 18t-18 42zM340 400q0 24 18 42t42 18t42 -18t18 -42t-18 -42t-42 -18t-42 18t-18 42zM340 720 q0 24 18 42t42 18t42 -18t18 -42t-18 -42t-42 -18t-42 18t-18 42zM500 80q0 24 18 42t42 18t42 -18t18 -42t-18 -42t-42 -18t-42 18t-18 42zM500 400q0 24 18 42t42 18t42 -18t18 -42t-18 -42t-42 -18t-42 18t-18 42zM500 720q0 24 18 42t42 18t42 -18t18 -42t-18 -42 t-42 -18t-42 18t-18 42zM660 240q0 24 18 42t42 18t42 -18t18 -42t-18 -42t-42 -18t-42 18t-18 42zM660 720q0 24 18 42t42 18t42 -18t18 -42t-18 -42t-42 -18t-42 18t-18 42z" />
<glyph unicode="t" d="M20 880q0 24 18 42t42 18t42 -18t18 -42t-18 -42t-42 -18t-42 18t-18 42zM180 240q0 24 18 42t42 18t42 -18t18 -42t-18 -42t-42 -18t-42 18t-18 42zM180 400q0 24 18 42t42 18t42 -18t18 -42t-18 -42t-42 -18t-42 18t-18 42zM180 560q0 24 18 42t42 18t42 -18t18 -42 t-18 -42t-42 -18t-42 18t-18 42zM180 720q0 24 18 42t42 18t42 -18t18 -42t-18 -42t-42 -18t-42 18t-18 42zM180 880q0 24 18 42t42 18t42 -18t18 -42t-18 -42t-42 -18t-42 18t-18 42zM180 1040q0 24 18 42t42 18t42 -18t18 -42t-18 -42t-42 -18t-42 18t-18 42zM340 80 q0 24 18 42t42 18t42 -18t18 -42t-18 -42t-42 -18t-42 18t-18 42zM340 880q0 24 18 42t42 18t42 -18t18 -42t-18 -42t-42 -18t-42 18t-18 42zM500 80q0 24 18 42t42 18t42 -18t18 -42t-18 -42t-42 -18t-42 18t-18 42zM500 880q0 24 18 42t42 18t42 -18t18 -42t-18 -42 t-42 -18t-42 18t-18 42zM660 80q0 24 18 42t42 18t42 -18t18 -42t-18 -42t-42 -18t-42 18t-18 42z" />
<glyph unicode="u" d="M20 240q0 24 18 42t42 18t42 -18t18 -42t-18 -42t-42 -18t-42 18t-18 42zM20 400q0 24 18 42t42 18t42 -18t18 -42t-18 -42t-42 -18t-42 18t-18 42zM20 560q0 24 18 42t42 18t42 -18t18 -42t-18 -42t-42 -18t-42 18t-18 42zM20 720q0 24 18 42t42 18t42 -18t18 -42 t-18 -42t-42 -18t-42 18t-18 42zM180 80q0 24 18 42t42 18t42 -18t18 -42t-18 -42t-42 -18t-42 18t-18 42zM340 80q0 24 18 42t42 18t42 -18t18 -42t-18 -42t-42 -18t-42 18t-18 42zM500 80q0 24 18 42t42 18t42 -18t18 -42t-18 -42t-42 -18t-42 18t-18 42zM660 80 q0 24 18 42t42 18t42 -18t18 -42t-18 -42t-42 -18t-42 18t-18 42zM660 240q0 24 18 42t42 18t42 -18t18 -42t-18 -42t-42 -18t-42 18t-18 42zM660 400q0 24 18 42t42 18t42 -18t18 -42t-18 -42t-42 -18t-42 18t-18 42zM660 560q0 24 18 42t42 18t42 -18t18 -42t-18 -42 t-42 -18t-42 18t-18 42zM660 720q0 24 18 42t42 18t42 -18t18 -42t-18 -42t-42 -18t-42 18t-18 42z" />
<glyph unicode="v" d="M20 400q0 24 18 42t42 18t42 -18t18 -42t-18 -42t-42 -18t-42 18t-18 42zM20 560q0 24 18 42t42 18t42 -18t18 -42t-18 -42t-42 -18t-42 18t-18 42zM20 720q0 24 18 42t42 18t42 -18t18 -42t-18 -42t-42 -18t-42 18t-18 42zM180 240q0 24 18 42t42 18t42 -18t18 -42 t-18 -42t-42 -18t-42 18t-18 42zM340 80q0 24 18 42t42 18t42 -18t18 -42t-18 -42t-42 -18t-42 18t-18 42zM500 240q0 24 18 42t42 18t42 -18t18 -42t-18 -42t-42 -18t-42 18t-18 42zM660 400q0 24 18 42t42 18t42 -18t18 -42t-18 -42t-42 -18t-42 18t-18 42zM660 560 q0 24 18 42t42 18t42 -18t18 -42t-18 -42t-42 -18t-42 18t-18 42zM660 720q0 24 18 42t42 18t42 -18t18 -42t-18 -42t-42 -18t-42 18t-18 42z" />
<glyph unicode="w" d="M20 240q0 24 18 42t42 18t42 -18t18 -42t-18 -42t-42 -18t-42 18t-18 42zM20 400q0 24 18 42t42 18t42 -18t18 -42t-18 -42t-42 -18t-42 18t-18 42zM20 560q0 24 18 42t42 18t42 -18t18 -42t-18 -42t-42 -18t-42 18t-18 42zM20 720q0 24 18 42t42 18t42 -18t18 -42 t-18 -42t-42 -18t-42 18t-18 42zM180 80q0 24 18 42t42 18t42 -18t18 -42t-18 -42t-42 -18t-42 18t-18 42zM340 240q0 24 18 42t42 18t42 -18t18 -42t-18 -42t-42 -18t-42 18t-18 42zM340 400q0 24 18 42t42 18t42 -18t18 -42t-18 -42t-42 -18t-42 18t-18 42zM500 80 q0 24 18 42t42 18t42 -18t18 -42t-18 -42t-42 -18t-42 18t-18 42zM660 240q0 24 18 42t42 18t42 -18t18 -42t-18 -42t-42 -18t-42 18t-18 42zM660 400q0 24 18 42t42 18t42 -18t18 -42t-18 -42t-42 -18t-42 18t-18 42zM660 560q0 24 18 42t42 18t42 -18t18 -42t-18 -42 t-42 -18t-42 18t-18 42zM660 720q0 24 18 42t42 18t42 -18t18 -42t-18 -42t-42 -18t-42 18t-18 42z" />
<glyph unicode="x" d="M20 80q0 24 18 42t42 18t42 -18t18 -42t-18 -42t-42 -18t-42 18t-18 42zM20 720q0 24 18 42t42 18t42 -18t18 -42t-18 -42t-42 -18t-42 18t-18 42zM180 240q0 24 18 42t42 18t42 -18t18 -42t-18 -42t-42 -18t-42 18t-18 42zM180 560q0 24 18 42t42 18t42 -18t18 -42 t-18 -42t-42 -18t-42 18t-18 42zM340 400q0 24 18 42t42 18t42 -18t18 -42t-18 -42t-42 -18t-42 18t-18 42zM500 240q0 24 18 42t42 18t42 -18t18 -42t-18 -42t-42 -18t-42 18t-18 42zM500 560q0 24 18 42t42 18t42 -18t18 -42t-18 -42t-42 -18t-42 18t-18 42zM660 80 q0 24 18 42t42 18t42 -18t18 -42t-18 -42t-42 -18t-42 18t-18 42zM660 720q0 24 18 42t42 18t42 -18t18 -42t-18 -42t-42 -18t-42 18t-18 42z" />
<glyph unicode="y" d="M20 560q0 24 18 42t42 18t42 -18t18 -42t-18 -42t-42 -18t-42 18t-18 42zM20 720q0 24 18 42t42 18t42 -18t18 -42t-18 -42t-42 -18t-42 18t-18 42zM180 80q0 24 18 42t42 18t42 -18t18 -42t-18 -42t-42 -18t-42 18t-18 42zM180 400q0 24 18 42t42 18t42 -18t18 -42 t-18 -42t-42 -18t-42 18t-18 42zM340 80q0 24 18 42t42 18t42 -18t18 -42t-18 -42t-42 -18t-42 18t-18 42zM340 400q0 24 18 42t42 18t42 -18t18 -42t-18 -42t-42 -18t-42 18t-18 42zM500 80q0 24 18 42t42 18t42 -18t18 -42t-18 -42t-42 -18t-42 18t-18 42zM500 400 q0 24 18 42t42 18t42 -18t18 -42t-18 -42t-42 -18t-42 18t-18 42zM660 240q0 24 18 42t42 18t42 -18t18 -42t-18 -42t-42 -18t-42 18t-18 42zM660 400q0 24 18 42t42 18t42 -18t18 -42t-18 -42t-42 -18t-42 18t-18 42zM660 560q0 24 18 42t42 18t42 -18t18 -42t-18 -42 t-42 -18t-42 18t-18 42zM660 720q0 24 18 42t42 18t42 -18t18 -42t-18 -42t-42 -18t-42 18t-18 42z" />
<glyph unicode="z" d="M20 80q0 24 18 42t42 18t42 -18t18 -42t-18 -42t-42 -18t-42 18t-18 42zM20 720q0 24 18 42t42 18t42 -18t18 -42t-18 -42t-42 -18t-42 18t-18 42zM180 80q0 24 18 42t42 18t42 -18t18 -42t-18 -42t-42 -18t-42 18t-18 42zM180 240q0 24 18 42t42 18t42 -18t18 -42 t-18 -42t-42 -18t-42 18t-18 42zM180 720q0 24 18 42t42 18t42 -18t18 -42t-18 -42t-42 -18t-42 18t-18 42zM340 80q0 24 18 42t42 18t42 -18t18 -42t-18 -42t-42 -18t-42 18t-18 42zM340 400q0 24 18 42t42 18t42 -18t18 -42t-18 -42t-42 -18t-42 18t-18 42zM340 720 q0 24 18 42t42 18t42 -18t18 -42t-18 -42t-42 -18t-42 18t-18 42zM500 80q0 24 18 42t42 18t42 -18t18 -42t-18 -42t-42 -18t-42 18t-18 42zM500 560q0 24 18 42t42 18t42 -18t18 -42t-18 -42t-42 -18t-42 18t-18 42zM500 720q0 24 18 42t42 18t42 -18t18 -42t-18 -42 t-42 -18t-42 18t-18 42zM660 80q0 24 18 42t42 18t42 -18t18 -42t-18 -42t-42 -18t-42 18t-18 42zM660 720q0 24 18 42t42 18t42 -18t18 -42t-18 -42t-42 -18t-42 18t-18 42z" />
<glyph unicode="{" d="M180 560q0 24 18 42t42 18t42 -18t18 -42t-18 -42t-42 -18t-42 18t-18 42zM340 240q0 24 18 42t42 18t42 -18t18 -42t-18 -42t-42 -18t-42 18t-18 42zM340 400q0 24 18 42t42 18t42 -18t18 -42t-18 -42t-42 -18t-42 18t-18 42zM340 720q0 24 18 42t42 18t42 -18t18 -42 t-18 -42t-42 -18t-42 18t-18 42zM340 880q0 24 18 42t42 18t42 -18t18 -42t-18 -42t-42 -18t-42 18t-18 42zM500 80q0 24 18 42t42 18t42 -18t18 -42t-18 -42t-42 -18t-42 18t-18 42zM500 1040q0 24 18 42t42 18t42 -18t18 -42t-18 -42t-42 -18t-42 18t-18 42z" />
<glyph unicode="|" d="M340 80q0 24 18 42t42 18t42 -18t18 -42t-18 -42t-42 -18t-42 18t-18 42zM340 240q0 24 18 42t42 18t42 -18t18 -42t-18 -42t-42 -18t-42 18t-18 42zM340 400q0 24 18 42t42 18t42 -18t18 -42t-18 -42t-42 -18t-42 18t-18 42zM340 560q0 24 18 42t42 18t42 -18t18 -42 t-18 -42t-42 -18t-42 18t-18 42zM340 720q0 24 18 42t42 18t42 -18t18 -42t-18 -42t-42 -18t-42 18t-18 42zM340 880q0 24 18 42t42 18t42 -18t18 -42t-18 -42t-42 -18t-42 18t-18 42zM340 1040q0 24 18 42t42 18t42 -18t18 -42t-18 -42t-42 -18t-42 18t-18 42z" />
<glyph unicode="}" d="M180 80q0 24 18 42t42 18t42 -18t18 -42t-18 -42t-42 -18t-42 18t-18 42zM180 1040q0 24 18 42t42 18t42 -18t18 -42t-18 -42t-42 -18t-42 18t-18 42zM340 240q0 24 18 42t42 18t42 -18t18 -42t-18 -42t-42 -18t-42 18t-18 42zM340 400q0 24 18 42t42 18t42 -18t18 -42 t-18 -42t-42 -18t-42 18t-18 42zM340 720q0 24 18 42t42 18t42 -18t18 -42t-18 -42t-42 -18t-42 18t-18 42zM340 880q0 24 18 42t42 18t42 -18t18 -42t-18 -42t-42 -18t-42 18t-18 42zM500 560q0 24 18 42t42 18t42 -18t18 -42t-18 -42t-42 -18t-42 18t-18 42z" />
<glyph unicode="~" d="M180 880q0 24 18 42t42 18t42 -18t18 -42t-18 -42t-42 -18t-42 18t-18 42zM340 1040q0 24 18 42t42 18t42 -18t18 -42t-18 -42t-42 -18t-42 18t-18 42zM500 880q0 24 18 42t42 18t42 -18t18 -42t-18 -42t-42 -18t-42 18t-18 42zM660 1040q0 24 18 42t42 18t42 -18t18 -42 t-18 -42t-42 -18t-42 18t-18 42z" />
<glyph d="M20 80q0 24 18 42t42 18t42 -18t18 -42t-18 -42t-42 -18t-42 18t-18 42zM20 240q0 24 18 42t42 18t42 -18t18 -42t-18 -42t-42 -18t-42 18t-18 42zM20 400q0 24 18 42t42 18t42 -18t18 -42t-18 -42t-42 -18t-42 18t-18 42zM20 560q0 24 18 42t42 18t42 -18t18 -42 t-18 -42t-42 -18t-42 18t-18 42zM20 720q0 24 18 42t42 18t42 -18t18 -42t-18 -42t-42 -18t-42 18t-18 42zM20 880q0 24 18 42t42 18t42 -18t18 -42t-18 -42t-42 -18t-42 18t-18 42zM20 1040q0 24 18 42t42 18t42 -18t18 -42t-18 -42t-42 -18t-42 18t-18 42zM180 80 q0 24 18 42t42 18t42 -18t18 -42t-18 -42t-42 -18t-42 18t-18 42zM180 1040q0 24 18 42t42 18t42 -18t18 -42t-18 -42t-42 -18t-42 18t-18 42zM340 80q0 24 18 42t42 18t42 -18t18 -42t-18 -42t-42 -18t-42 18t-18 42zM340 1040q0 24 18 42t42 18t42 -18t18 -42t-18 -42 t-42 -18t-42 18t-18 42zM500 80q0 24 18 42t42 18t42 -18t18 -42t-18 -42t-42 -18t-42 18t-18 42zM500 1040q0 24 18 42t42 18t42 -18t18 -42t-18 -42t-42 -18t-42 18t-18 42zM660 80q0 24 18 42t42 18t42 -18t18 -42t-18 -42t-42 -18t-42 18t-18 42zM660 240q0 24 18 42 t42 18t42 -18t18 -42t-18 -42t-42 -18t-42 18t-18 42zM660 400q0 24 18 42t42 18t42 -18t18 -42t-18 -42t-42 -18t-42 18t-18 42zM660 560q0 24 18 42t42 18t42 -18t18 -42t-18 -42t-42 -18t-42 18t-18 42zM660 720q0 24 18 42t42 18t42 -18t18 -42t-18 -42t-42 -18t-42 18 t-18 42zM660 880q0 24 18 42t42 18t42 -18t18 -42t-18 -42t-42 -18t-42 18t-18 42zM660 1040q0 24 18 42t42 18t42 -18t18 -42t-18 -42t-42 -18t-42 18t-18 42z" />
<glyph unicode="&#xa0;" />
<glyph unicode="&#xa1;" d="M340 80q0 24 18 42t42 18t42 -18t18 -42t-18 -42t-42 -18t-42 18t-18 42zM340 240q0 24 18 42t42 18t42 -18t18 -42t-18 -42t-42 -18t-42 18t-18 42zM340 400q0 24 18 42t42 18t42 -18t18 -42t-18 -42t-42 -18t-42 18t-18 42zM340 560q0 24 18 42t42 18t42 -18t18 -42 t-18 -42t-42 -18t-42 18t-18 42zM340 720q0 24 18 42t42 18t42 -18t18 -42t-18 -42t-42 -18t-42 18t-18 42zM340 1040q0 24 18 42t42 18t42 -18t18 -42t-18 -42t-42 -18t-42 18t-18 42z" />
<glyph unicode="&#xa2;" d="M20 400q0 24 18 42t42 18t42 -18t18 -42t-18 -42t-42 -18t-42 18t-18 42zM20 560q0 24 18 42t42 18t42 -18t18 -42t-18 -42t-42 -18t-42 18t-18 42zM20 720q0 24 18 42t42 18t42 -18t18 -42t-18 -42t-42 -18t-42 18t-18 42zM180 240q0 24 18 42t42 18t42 -18t18 -42 t-18 -42t-42 -18t-42 18t-18 42zM180 880q0 24 18 42t42 18t42 -18t18 -42t-18 -42t-42 -18t-42 18t-18 42zM340 240q0 24 18 42t42 18t42 -18t18 -42t-18 -42t-42 -18t-42 18t-18 42zM340 880q0 24 18 42t42 18t42 -18t18 -42t-18 -42t-42 -18t-42 18t-18 42zM500 80 q0 24 18 42t42 18t42 -18t18 -42t-18 -42t-42 -18t-42 18t-18 42zM500 240q0 24 18 42t42 18t42 -18t18 -42t-18 -42t-42 -18t-42 18t-18 42zM500 400q0 24 18 42t42 18t42 -18t18 -42t-18 -42t-42 -18t-42 18t-18 42zM500 560q0 24 18 42t42 18t42 -18t18 -42t-18 -42 t-42 -18t-42 18t-18 42zM500 720q0 24 18 42t42 18t42 -18t18 -42t-18 -42t-42 -18t-42 18t-18 42zM500 880q0 24 18 42t42 18t42 -18t18 -42t-18 -42t-42 -18t-42 18t-18 42zM500 1040q0 24 18 42t42 18t42 -18t18 -42t-18 -42t-42 -18t-42 18t-18 42zM660 240q0 24 18 42 t42 18t42 -18t18 -42t-18 -42t-42 -18t-42 18t-18 42zM660 880q0 24 18 42t42 18t42 -18t18 -42t-18 -42t-42 -18t-42 18t-18 42z" />
<glyph unicode="&#xa3;" d="M20 80q0 24 18 42t42 18t42 -18t18 -42t-18 -42t-42 -18t-42 18t-18 42zM20 560q0 24 18 42t42 18t42 -18t18 -42t-18 -42t-42 -18t-42 18t-18 42zM180 80q0 24 18 42t42 18t42 -18t18 -42t-18 -42t-42 -18t-42 18t-18 42zM180 240q0 24 18 42t42 18t42 -18t18 -42 t-18 -42t-42 -18t-42 18t-18 42zM180 400q0 24 18 42t42 18t42 -18t18 -42t-18 -42t-42 -18t-42 18t-18 42zM180 560q0 24 18 42t42 18t42 -18t18 -42t-18 -42t-42 -18t-42 18t-18 42zM180 720q0 24 18 42t42 18t42 -18t18 -42t-18 -42t-42 -18t-42 18t-18 42zM180 880 q0 24 18 42t42 18t42 -18t18 -42t-18 -42t-42 -18t-42 18t-18 42zM340 80q0 24 18 42t42 18t42 -18t18 -42t-18 -42t-42 -18t-42 18t-18 42zM340 560q0 24 18 42t42 18t42 -18t18 -42t-18 -42t-42 -18t-42 18t-18 42zM340 1040q0 24 18 42t42 18t42 -18t18 -42t-18 -42 t-42 -18t-42 18t-18 42zM500 80q0 24 18 42t42 18t42 -18t18 -42t-18 -42t-42 -18t-42 18t-18 42zM500 560q0 24 18 42t42 18t42 -18t18 -42t-18 -42t-42 -18t-42 18t-18 42zM500 880q0 24 18 42t42 18t42 -18t18 -42t-18 -42t-42 -18t-42 18t-18 42zM660 80q0 24 18 42 t42 18t42 -18t18 -42t-18 -42t-42 -18t-42 18t-18 42z" />
<glyph unicode="&#xa4;" d="M20 240q0 24 18 42t42 18t42 -18t18 -42t-18 -42t-42 -18t-42 18t-18 42zM20 880q0 24 18 42t42 18t42 -18t18 -42t-18 -42t-42 -18t-42 18t-18 42zM180 400q0 24 18 42t42 18t42 -18t18 -42t-18 -42t-42 -18t-42 18t-18 42zM180 720q0 24 18 42t42 18t42 -18t18 -42 t-18 -42t-42 -18t-42 18t-18 42zM340 240q0 24 18 42t42 18t42 -18t18 -42t-18 -42t-42 -18t-42 18t-18 42zM340 400q0 24 18 42t42 18t42 -18t18 -42t-18 -42t-42 -18t-42 18t-18 42zM340 560q0 24 18 42t42 18t42 -18t18 -42t-18 -42t-42 -18t-42 18t-18 42zM340 720 q0 24 18 42t42 18t42 -18t18 -42t-18 -42t-42 -18t-42 18t-18 42zM340 880q0 24 18 42t42 18t42 -18t18 -42t-18 -42t-42 -18t-42 18t-18 42zM500 400q0 24 18 42t42 18t42 -18t18 -42t-18 -42t-42 -18t-42 18t-18 42zM500 720q0 24 18 42t42 18t42 -18t18 -42t-18 -42 t-42 -18t-42 18t-18 42zM660 240q0 24 18 42t42 18t42 -18t18 -42t-18 -42t-42 -18t-42 18t-18 42zM660 880q0 24 18 42t42 18t42 -18t18 -42t-18 -42t-42 -18t-42 18t-18 42z" />
<glyph unicode="&#xa5;" d="M20 880q0 24 18 42t42 18t42 -18t18 -42t-18 -42t-42 -18t-42 18t-18 42zM20 1040q0 24 18 42t42 18t42 -18t18 -42t-18 -42t-42 -18t-42 18t-18 42zM180 240q0 24 18 42t42 18t42 -18t18 -42t-18 -42t-42 -18t-42 18t-18 42zM180 560q0 24 18 42t42 18t42 -18t18 -42 t-18 -42t-42 -18t-42 18t-18 42zM180 720q0 24 18 42t42 18t42 -18t18 -42t-18 -42t-42 -18t-42 18t-18 42zM340 80q0 24 18 42t42 18t42 -18t18 -42t-18 -42t-42 -18t-42 18t-18 42zM340 240q0 24 18 42t42 18t42 -18t18 -42t-18 -42t-42 -18t-42 18t-18 42zM340 400 q0 24 18 42t42 18t42 -18t18 -42t-18 -42t-42 -18t-42 18t-18 42zM340 560q0 24 18 42t42 18t42 -18t18 -42t-18 -42t-42 -18t-42 18t-18 42zM500 240q0 24 18 42t42 18t42 -18t18 -42t-18 -42t-42 -18t-42 18t-18 42zM500 560q0 24 18 42t42 18t42 -18t18 -42t-18 -42 t-42 -18t-42 18t-18 42zM500 720q0 24 18 42t42 18t42 -18t18 -42t-18 -42t-42 -18t-42 18t-18 42zM660 880q0 24 18 42t42 18t42 -18t18 -42t-18 -42t-42 -18t-42 18t-18 42zM660 1040q0 24 18 42t42 18t42 -18t18 -42t-18 -42t-42 -18t-42 18t-18 42z" />
<glyph unicode="&#xa6;" d="M340 80q0 24 18 42t42 18t42 -18t18 -42t-18 -42t-42 -18t-42 18t-18 42zM340 240q0 24 18 42t42 18t42 -18t18 -42t-18 -42t-42 -18t-42 18t-18 42zM340 400q0 24 18 42t42 18t42 -18t18 -42t-18 -42t-42 -18t-42 18t-18 42zM340 720q0 24 18 42t42 18t42 -18t18 -42 t-18 -42t-42 -18t-42 18t-18 42zM340 880q0 24 18 42t42 18t42 -18t18 -42t-18 -42t-42 -18t-42 18t-18 42zM340 1040q0 24 18 42t42 18t42 -18t18 -42t-18 -42t-42 -18t-42 18t-18 42z" />
<glyph unicode="&#xa7;" d="M180 80q0 24 18 42t42 18t42 -18t18 -42t-18 -42t-42 -18t-42 18t-18 42zM180 400q0 24 18 42t42 18t42 -18t18 -42t-18 -42t-42 -18t-42 18t-18 42zM180 560q0 24 18 42t42 18t42 -18t18 -42t-18 -42t-42 -18t-42 18t-18 42zM180 720q0 24 18 42t42 18t42 -18t18 -42 t-18 -42t-42 -18t-42 18t-18 42zM180 880q0 24 18 42t42 18t42 -18t18 -42t-18 -42t-42 -18t-42 18t-18 42zM180 1040q0 24 18 42t42 18t42 -18t18 -42t-18 -42t-42 -18t-42 18t-18 42zM340 80q0 24 18 42t42 18t42 -18t18 -42t-18 -42t-42 -18t-42 18t-18 42zM340 400 q0 24 18 42t42 18t42 -18t18 -42t-18 -42t-42 -18t-42 18t-18 42zM340 720q0 24 18 42t42 18t42 -18t18 -42t-18 -42t-42 -18t-42 18t-18 42zM340 1040q0 24 18 42t42 18t42 -18t18 -42t-18 -42t-42 -18t-42 18t-18 42zM500 80q0 24 18 42t42 18t42 -18t18 -42t-18 -42 t-42 -18t-42 18t-18 42zM500 240q0 24 18 42t42 18t42 -18t18 -42t-18 -42t-42 -18t-42 18t-18 42zM500 400q0 24 18 42t42 18t42 -18t18 -42t-18 -42t-42 -18t-42 18t-18 42zM500 560q0 24 18 42t42 18t42 -18t18 -42t-18 -42t-42 -18t-42 18t-18 42zM500 720q0 24 18 42 t42 18t42 -18t18 -42t-18 -42t-42 -18t-42 18t-18 42zM500 1040q0 24 18 42t42 18t42 -18t18 -42t-18 -42t-42 -18t-42 18t-18 42z" />
<glyph unicode="&#xa8;" d="M180 1040q0 24 18 42t42 18t42 -18t18 -42t-18 -42t-42 -18t-42 18t-18 42zM500 1040q0 24 18 42t42 18t42 -18t18 -42t-18 -42t-42 -18t-42 18t-18 42z" />
<glyph unicode="&#xa9;" d="M20 240q0 24 18 42t42 18t42 -18t18 -42t-18 -42t-42 -18t-42 18t-18 42zM20 400q0 24 18 42t42 18t42 -18t18 -42t-18 -42t-42 -18t-42 18t-18 42zM20 560q0 24 18 42t42 18t42 -18t18 -42t-18 -42t-42 -18t-42 18t-18 42zM20 720q0 24 18 42t42 18t42 -18t18 -42 t-18 -42t-42 -18t-42 18t-18 42zM20 880q0 24 18 42t42 18t42 -18t18 -42t-18 -42t-42 -18t-42 18t-18 42zM180 80q0 24 18 42t42 18t42 -18t18 -42t-18 -42t-42 -18t-42 18t-18 42zM180 400q0 24 18 42t42 18t42 -18t18 -42t-18 -42t-42 -18t-42 18t-18 42zM180 560 q0 24 18 42t42 18t42 -18t18 -42t-18 -42t-42 -18t-42 18t-18 42zM180 720q0 24 18 42t42 18t42 -18t18 -42t-18 -42t-42 -18t-42 18t-18 42zM180 1040q0 24 18 42t42 18t42 -18t18 -42t-18 -42t-42 -18t-42 18t-18 42zM340 80q0 24 18 42t42 18t42 -18t18 -42t-18 -42 t-42 -18t-42 18t-18 42zM340 400q0 24 18 42t42 18t42 -18t18 -42t-18 -42t-42 -18t-42 18t-18 42zM340 720q0 24 18 42t42 18t42 -18t18 -42t-18 -42t-42 -18t-42 18t-18 42zM340 1040q0 24 18 42t42 18t42 -18t18 -42t-18 -42t-42 -18t-42 18t-18 42zM500 80q0 24 18 42 t42 18t42 -18t18 -42t-18 -42t-42 -18t-42 18t-18 42zM500 1040q0 24 18 42t42 18t42 -18t18 -42t-18 -42t-42 -18t-42 18t-18 42zM660 240q0 24 18 42t42 18t42 -18t18 -42t-18 -42t-42 -18t-42 18t-18 42zM660 400q0 24 18 42t42 18t42 -18t18 -42t-18 -42t-42 -18t-42 18 t-18 42zM660 560q0 24 18 42t42 18t42 -18t18 -42t-18 -42t-42 -18t-42 18t-18 42zM660 720q0 24 18 42t42 18t42 -18t18 -42t-18 -42t-42 -18t-42 18t-18 42zM660 880q0 24 18 42t42 18t42 -18t18 -42t-18 -42t-42 -18t-42 18t-18 42z" />
<glyph unicode="&#xaa;" d="M180 400q0 24 18 42t42 18t42 -18t18 -42t-18 -42t-42 -18t-42 18t-18 42zM180 720q0 24 18 42t42 18t42 -18t18 -42t-18 -42t-42 -18t-42 18t-18 42zM180 880q0 24 18 42t42 18t42 -18t18 -42t-18 -42t-42 -18t-42 18t-18 42zM180 1040q0 24 18 42t42 18t42 -18t18 -42 t-18 -42t-42 -18t-42 18t-18 42zM340 400q0 24 18 42t42 18t42 -18t18 -42t-18 -42t-42 -18t-42 18t-18 42zM340 720q0 24 18 42t42 18t42 -18t18 -42t-18 -42t-42 -18t-42 18t-18 42zM340 1040q0 24 18 42t42 18t42 -18t18 -42t-18 -42t-42 -18t-42 18t-18 42zM500 400 q0 24 18 42t42 18t42 -18t18 -42t-18 -42t-42 -18t-42 18t-18 42zM500 880q0 24 18 42t42 18t42 -18t18 -42t-18 -42t-42 -18t-42 18t-18 42zM500 1040q0 24 18 42t42 18t42 -18t18 -42t-18 -42t-42 -18t-42 18t-18 42zM660 400q0 24 18 42t42 18t42 -18t18 -42t-18 -42 t-42 -18t-42 18t-18 42zM660 720q0 24 18 42t42 18t42 -18t18 -42t-18 -42t-42 -18t-42 18t-18 42z" />
<glyph unicode="&#xab;" d="M20 560q0 24 18 42t42 18t42 -18t18 -42t-18 -42t-42 -18t-42 18t-18 42zM180 400q0 24 18 42t42 18t42 -18t18 -42t-18 -42t-42 -18t-42 18t-18 42zM180 720q0 24 18 42t42 18t42 -18t18 -42t-18 -42t-42 -18t-42 18t-18 42zM340 240q0 24 18 42t42 18t42 -18t18 -42 t-18 -42t-42 -18t-42 18t-18 42zM340 560q0 24 18 42t42 18t42 -18t18 -42t-18 -42t-42 -18t-42 18t-18 42zM340 880q0 24 18 42t42 18t42 -18t18 -42t-18 -42t-42 -18t-42 18t-18 42zM500 400q0 24 18 42t42 18t42 -18t18 -42t-18 -42t-42 -18t-42 18t-18 42zM500 720 q0 24 18 42t42 18t42 -18t18 -42t-18 -42t-42 -18t-42 18t-18 42zM660 240q0 24 18 42t42 18t42 -18t18 -42t-18 -42t-42 -18t-42 18t-18 42zM660 880q0 24 18 42t42 18t42 -18t18 -42t-18 -42t-42 -18t-42 18t-18 42z" />
<glyph unicode="&#xac;" d="M180 400q0 24 18 42t42 18t42 -18t18 -42t-18 -42t-42 -18t-42 18t-18 42zM340 400q0 24 18 42t42 18t42 -18t18 -42t-18 -42t-42 -18t-42 18t-18 42zM500 240q0 24 18 42t42 18t42 -18t18 -42t-18 -42t-42 -18t-42 18t-18 42zM500 400q0 24 18 42t42 18t42 -18t18 -42 t-18 -42t-42 -18t-42 18t-18 42z" />
<glyph unicode="&#xad;" d="M180 560q0 24 18 42t42 18t42 -18t18 -42t-18 -42t-42 -18t-42 18t-18 42zM340 560q0 24 18 42t42 18t42 -18t18 -42t-18 -42t-42 -18t-42 18t-18 42zM500 560q0 24 18 42t42 18t42 -18t18 -42t-18 -42t-42 -18t-42 18t-18 42z" />
<glyph unicode="&#xae;" d="M20 240q0 24 18 42t42 18t42 -18t18 -42t-18 -42t-42 -18t-42 18t-18 42zM20 400q0 24 18 42t42 18t42 -18t18 -42t-18 -42t-42 -18t-42 18t-18 42zM20 560q0 24 18 42t42 18t42 -18t18 -42t-18 -42t-42 -18t-42 18t-18 42zM20 720q0 24 18 42t42 18t42 -18t18 -42 t-18 -42t-42 -18t-42 18t-18 42zM20 880q0 24 18 42t42 18t42 -18t18 -42t-18 -42t-42 -18t-42 18t-18 42zM180 80q0 24 18 42t42 18t42 -18t18 -42t-18 -42t-42 -18t-42 18t-18 42zM180 400q0 24 18 42t42 18t42 -18t18 -42t-18 -42t-42 -18t-42 18t-18 42zM180 560 q0 24 18 42t42 18t42 -18t18 -42t-18 -42t-42 -18t-42 18t-18 42zM180 720q0 24 18 42t42 18t42 -18t18 -42t-18 -42t-42 -18t-42 18t-18 42zM180 1040q0 24 18 42t42 18t42 -18t18 -42t-18 -42t-42 -18t-42 18t-18 42zM340 80q0 24 18 42t42 18t42 -18t18 -42t-18 -42 t-42 -18t-42 18t-18 42zM340 560q0 24 18 42t42 18t42 -18t18 -42t-18 -42t-42 -18t-42 18t-18 42zM340 720q0 24 18 42t42 18t42 -18t18 -42t-18 -42t-42 -18t-42 18t-18 42zM340 1040q0 24 18 42t42 18t42 -18t18 -42t-18 -42t-42 -18t-42 18t-18 42zM500 80q0 24 18 42 t42 18t42 -18t18 -42t-18 -42t-42 -18t-42 18t-18 42zM500 400q0 24 18 42t42 18t42 -18t18 -42t-18 -42t-42 -18t-42 18t-18 42zM500 720q0 24 18 42t42 18t42 -18t18 -42t-18 -42t-42 -18t-42 18t-18 42zM500 1040q0 24 18 42t42 18t42 -18t18 -42t-18 -42t-42 -18t-42 18 t-18 42zM660 240q0 24 18 42t42 18t42 -18t18 -42t-18 -42t-42 -18t-42 18t-18 42zM660 400q0 24 18 42t42 18t42 -18t18 -42t-18 -42t-42 -18t-42 18t-18 42zM660 560q0 24 18 42t42 18t42 -18t18 -42t-18 -42t-42 -18t-42 18t-18 42zM660 720q0 24 18 42t42 18t42 -18 t18 -42t-18 -42t-42 -18t-42 18t-18 42zM660 880q0 24 18 42t42 18t42 -18t18 -42t-18 -42t-42 -18t-42 18t-18 42z" />
<glyph unicode="&#xaf;" d="M20 1040q0 24 18 42t42 18t42 -18t18 -42t-18 -42t-42 -18t-42 18t-18 42zM180 1040q0 24 18 42t42 18t42 -18t18 -42t-18 -42t-42 -18t-42 18t-18 42zM340 1040q0 24 18 42t42 18t42 -18t18 -42t-18 -42t-42 -18t-42 18t-18 42zM500 1040q0 24 18 42t42 18t42 -18 t18 -42t-18 -42t-42 -18t-42 18t-18 42zM660 1040q0 24 18 42t42 18t42 -18t18 -42t-18 -42t-42 -18t-42 18t-18 42z" />
<glyph unicode="&#xb0;" d="M180 720q0 24 18 42t42 18t42 -18t18 -42t-18 -42t-42 -18t-42 18t-18 42zM180 880q0 24 18 42t42 18t42 -18t18 -42t-18 -42t-42 -18t-42 18t-18 42zM180 1040q0 24 18 42t42 18t42 -18t18 -42t-18 -42t-42 -18t-42 18t-18 42zM340 720q0 24 18 42t42 18t42 -18t18 -42 t-18 -42t-42 -18t-42 18t-18 42zM340 1040q0 24 18 42t42 18t42 -18t18 -42t-18 -42t-42 -18t-42 18t-18 42zM500 720q0 24 18 42t42 18t42 -18t18 -42t-18 -42t-42 -18t-42 18t-18 42zM500 880q0 24 18 42t42 18t42 -18t18 -42t-18 -42t-42 -18t-42 18t-18 42zM500 1040 q0 24 18 42t42 18t42 -18t18 -42t-18 -42t-42 -18t-42 18t-18 42z" />
<glyph unicode="&#xb1;" d="M20 80q0 24 18 42t42 18t42 -18t18 -42t-18 -42t-42 -18t-42 18t-18 42zM20 720q0 24 18 42t42 18t42 -18t18 -42t-18 -42t-42 -18t-42 18t-18 42zM180 80q0 24 18 42t42 18t42 -18t18 -42t-18 -42t-42 -18t-42 18t-18 42zM180 720q0 24 18 42t42 18t42 -18t18 -42 t-18 -42t-42 -18t-42 18t-18 42zM340 80q0 24 18 42t42 18t42 -18t18 -42t-18 -42t-42 -18t-42 18t-18 42zM340 400q0 24 18 42t42 18t42 -18t18 -42t-18 -42t-42 -18t-42 18t-18 42zM340 560q0 24 18 42t42 18t42 -18t18 -42t-18 -42t-42 -18t-42 18t-18 42zM340 720 q0 24 18 42t42 18t42 -18t18 -42t-18 -42t-42 -18t-42 18t-18 42zM340 880q0 24 18 42t42 18t42 -18t18 -42t-18 -42t-42 -18t-42 18t-18 42zM340 1040q0 24 18 42t42 18t42 -18t18 -42t-18 -42t-42 -18t-42 18t-18 42zM500 80q0 24 18 42t42 18t42 -18t18 -42t-18 -42 t-42 -18t-42 18t-18 42zM500 720q0 24 18 42t42 18t42 -18t18 -42t-18 -42t-42 -18t-42 18t-18 42zM660 80q0 24 18 42t42 18t42 -18t18 -42t-18 -42t-42 -18t-42 18t-18 42zM660 720q0 24 18 42t42 18t42 -18t18 -42t-18 -42t-42 -18t-42 18t-18 42z" />
<glyph unicode="&#xb2;" d="M180 560q0 24 18 42t42 18t42 -18t18 -42t-18 -42t-42 -18t-42 18t-18 42zM180 1040q0 24 18 42t42 18t42 -18t18 -42t-18 -42t-42 -18t-42 18t-18 42zM340 560q0 24 18 42t42 18t42 -18t18 -42t-18 -42t-42 -18t-42 18t-18 42zM340 720q0 24 18 42t42 18t42 -18t18 -42 t-18 -42t-42 -18t-42 18t-18 42zM340 1040q0 24 18 42t42 18t42 -18t18 -42t-18 -42t-42 -18t-42 18t-18 42zM500 560q0 24 18 42t42 18t42 -18t18 -42t-18 -42t-42 -18t-42 18t-18 42zM500 880q0 24 18 42t42 18t42 -18t18 -42t-18 -42t-42 -18t-42 18t-18 42z" />
<glyph unicode="&#xb3;" d="M180 560q0 24 18 42t42 18t42 -18t18 -42t-18 -42t-42 -18t-42 18t-18 42zM180 720q0 24 18 42t42 18t42 -18t18 -42t-18 -42t-42 -18t-42 18t-18 42zM180 1040q0 24 18 42t42 18t42 -18t18 -42t-18 -42t-42 -18t-42 18t-18 42zM340 560q0 24 18 42t42 18t42 -18t18 -42 t-18 -42t-42 -18t-42 18t-18 42zM340 720q0 24 18 42t42 18t42 -18t18 -42t-18 -42t-42 -18t-42 18t-18 42zM340 1040q0 24 18 42t42 18t42 -18t18 -42t-18 -42t-42 -18t-42 18t-18 42zM500 560q0 24 18 42t42 18t42 -18t18 -42t-18 -42t-42 -18t-42 18t-18 42zM500 720 q0 24 18 42t42 18t42 -18t18 -42t-18 -42t-42 -18t-42 18t-18 42zM500 880q0 24 18 42t42 18t42 -18t18 -42t-18 -42t-42 -18t-42 18t-18 42z" />
<glyph unicode="&#xb4;" d="M340 880q0 24 18 42t42 18t42 -18t18 -42t-18 -42t-42 -18t-42 18t-18 42zM500 1040q0 24 18 42t42 18t42 -18t18 -42t-18 -42t-42 -18t-42 18t-18 42z" />
<glyph unicode="&#xb5;" d="M180 80q0 24 18 42t42 18t42 -18t18 -42t-18 -42t-42 -18t-42 18t-18 42zM180 240q0 24 18 42t42 18t42 -18t18 -42t-18 -42t-42 -18t-42 18t-18 42zM180 400q0 24 18 42t42 18t42 -18t18 -42t-18 -42t-42 -18t-42 18t-18 42zM180 560q0 24 18 42t42 18t42 -18t18 -42 t-18 -42t-42 -18t-42 18t-18 42zM180 720q0 24 18 42t42 18t42 -18t18 -42t-18 -42t-42 -18t-42 18t-18 42zM340 400q0 24 18 42t42 18t42 -18t18 -42t-18 -42t-42 -18t-42 18t-18 42zM500 400q0 24 18 42t42 18t42 -18t18 -42t-18 -42t-42 -18t-42 18t-18 42zM660 400 q0 24 18 42t42 18t42 -18t18 -42t-18 -42t-42 -18t-42 18t-18 42zM660 560q0 24 18 42t42 18t42 -18t18 -42t-18 -42t-42 -18t-42 18t-18 42zM660 720q0 24 18 42t42 18t42 -18t18 -42t-18 -42t-42 -18t-42 18t-18 42z" />
<glyph unicode="&#xb6;" d="M20 880q0 24 18 42t42 18t42 -18t18 -42t-18 -42t-42 -18t-42 18t-18 42zM180 720q0 24 18 42t42 18t42 -18t18 -42t-18 -42t-42 -18t-42 18t-18 42zM180 880q0 24 18 42t42 18t42 -18t18 -42t-18 -42t-42 -18t-42 18t-18 42zM180 1040q0 24 18 42t42 18t42 -18t18 -42 t-18 -42t-42 -18t-42 18t-18 42zM340 80q0 24 18 42t42 18t42 -18t18 -42t-18 -42t-42 -18t-42 18t-18 42zM340 240q0 24 18 42t42 18t42 -18t18 -42t-18 -42t-42 -18t-42 18t-18 42zM340 400q0 24 18 42t42 18t42 -18t18 -42t-18 -42t-42 -18t-42 18t-18 42zM340 560 q0 24 18 42t42 18t42 -18t18 -42t-18 -42t-42 -18t-42 18t-18 42zM340 720q0 24 18 42t42 18t42 -18t18 -42t-18 -42t-42 -18t-42 18t-18 42zM340 880q0 24 18 42t42 18t42 -18t18 -42t-18 -42t-42 -18t-42 18t-18 42zM340 1040q0 24 18 42t42 18t42 -18t18 -42t-18 -42 t-42 -18t-42 18t-18 42zM660 80q0 24 18 42t42 18t42 -18t18 -42t-18 -42t-42 -18t-42 18t-18 42zM660 240q0 24 18 42t42 18t42 -18t18 -42t-18 -42t-42 -18t-42 18t-18 42zM660 400q0 24 18 42t42 18t42 -18t18 -42t-18 -42t-42 -18t-42 18t-18 42zM660 560q0 24 18 42 t42 18t42 -18t18 -42t-18 -42t-42 -18t-42 18t-18 42zM660 720q0 24 18 42t42 18t42 -18t18 -42t-18 -42t-42 -18t-42 18t-18 42zM660 880q0 24 18 42t42 18t42 -18t18 -42t-18 -42t-42 -18t-42 18t-18 42zM660 1040q0 24 18 42t42 18t42 -18t18 -42t-18 -42t-42 -18t-42 18 t-18 42z" />
<glyph unicode="&#xb7;" d="M340 560q0 24 18 42t42 18t42 -18t18 -42t-18 -42t-42 -18t-42 18t-18 42z" />
<glyph unicode="&#xb8;" d="M340 80q0 24 18 42t42 18t42 -18t18 -42t-18 -42t-42 -18t-42 18t-18 42zM500 240q0 24 18 42t42 18t42 -18t18 -42t-18 -42t-42 -18t-42 18t-18 42z" />
<glyph unicode="&#xb9;" d="M180 880q0 24 18 42t42 18t42 -18t18 -42t-18 -42t-42 -18t-42 18t-18 42zM340 560q0 24 18 42t42 18t42 -18t18 -42t-18 -42t-42 -18t-42 18t-18 42zM340 720q0 24 18 42t42 18t42 -18t18 -42t-18 -42t-42 -18t-42 18t-18 42zM340 880q0 24 18 42t42 18t42 -18t18 -42 t-18 -42t-42 -18t-42 18t-18 42zM340 1040q0 24 18 42t42 18t42 -18t18 -42t-18 -42t-42 -18t-42 18t-18 42z" />
<glyph unicode="&#xba;" d="M180 400q0 24 18 42t42 18t42 -18t18 -42t-18 -42t-42 -18t-42 18t-18 42zM180 720q0 24 18 42t42 18t42 -18t18 -42t-18 -42t-42 -18t-42 18t-18 42zM180 880q0 24 18 42t42 18t42 -18t18 -42t-18 -42t-42 -18t-42 18t-18 42zM180 1040q0 24 18 42t42 18t42 -18t18 -42 t-18 -42t-42 -18t-42 18t-18 42zM340 400q0 24 18 42t42 18t42 -18t18 -42t-18 -42t-42 -18t-42 18t-18 42zM340 720q0 24 18 42t42 18t42 -18t18 -42t-18 -42t-42 -18t-42 18t-18 42zM340 1040q0 24 18 42t42 18t42 -18t18 -42t-18 -42t-42 -18t-42 18t-18 42zM500 400 q0 24 18 42t42 18t42 -18t18 -42t-18 -42t-42 -18t-42 18t-18 42zM500 720q0 24 18 42t42 18t42 -18t18 -42t-18 -42t-42 -18t-42 18t-18 42zM500 880q0 24 18 42t42 18t42 -18t18 -42t-18 -42t-42 -18t-42 18t-18 42zM500 1040q0 24 18 42t42 18t42 -18t18 -42t-18 -42 t-42 -18t-42 18t-18 42z" />
<glyph unicode="&#xbb;" d="M20 240q0 24 18 42t42 18t42 -18t18 -42t-18 -42t-42 -18t-42 18t-18 42zM20 880q0 24 18 42t42 18t42 -18t18 -42t-18 -42t-42 -18t-42 18t-18 42zM180 400q0 24 18 42t42 18t42 -18t18 -42t-18 -42t-42 -18t-42 18t-18 42zM180 720q0 24 18 42t42 18t42 -18t18 -42 t-18 -42t-42 -18t-42 18t-18 42zM340 240q0 24 18 42t42 18t42 -18t18 -42t-18 -42t-42 -18t-42 18t-18 42zM340 560q0 24 18 42t42 18t42 -18t18 -42t-18 -42t-42 -18t-42 18t-18 42zM340 880q0 24 18 42t42 18t42 -18t18 -42t-18 -42t-42 -18t-42 18t-18 42zM500 400 q0 24 18 42t42 18t42 -18t18 -42t-18 -42t-42 -18t-42 18t-18 42zM500 720q0 24 18 42t42 18t42 -18t18 -42t-18 -42t-42 -18t-42 18t-18 42zM660 560q0 24 18 42t42 18t42 -18t18 -42t-18 -42t-42 -18t-42 18t-18 42z" />
<glyph unicode="&#xbc;" d="M20 80q0 24 18 42t42 18t42 -18t18 -42t-18 -42t-42 -18t-42 18t-18 42zM180 240q0 24 18 42t42 18t42 -18t18 -42t-18 -42t-42 -18t-42 18t-18 42zM180 720q0 24 18 42t42 18t42 -18t18 -42t-18 -42t-42 -18t-42 18t-18 42zM180 880q0 24 18 42t42 18t42 -18t18 -42 t-18 -42t-42 -18t-42 18t-18 42zM180 1040q0 24 18 42t42 18t42 -18t18 -42t-18 -42t-42 -18t-42 18t-18 42zM340 400q0 24 18 42t42 18t42 -18t18 -42t-18 -42t-42 -18t-42 18t-18 42zM500 240q0 24 18 42t42 18t42 -18t18 -42t-18 -42t-42 -18t-42 18t-18 42zM500 400 q0 24 18 42t42 18t42 -18t18 -42t-18 -42t-42 -18t-42 18t-18 42zM500 560q0 24 18 42t42 18t42 -18t18 -42t-18 -42t-42 -18t-42 18t-18 42zM660 80q0 24 18 42t42 18t42 -18t18 -42t-18 -42t-42 -18t-42 18t-18 42zM660 240q0 24 18 42t42 18t42 -18t18 -42t-18 -42 t-42 -18t-42 18t-18 42zM660 720q0 24 18 42t42 18t42 -18t18 -42t-18 -42t-42 -18t-42 18t-18 42z" />
<glyph unicode="&#xbd;" d="M20 240q0 24 18 42t42 18t42 -18t18 -42t-18 -42t-42 -18t-42 18t-18 42zM20 720q0 24 18 42t42 18t42 -18t18 -42t-18 -42t-42 -18t-42 18t-18 42zM20 880q0 24 18 42t42 18t42 -18t18 -42t-18 -42t-42 -18t-42 18t-18 42zM20 1040q0 24 18 42t42 18t42 -18t18 -42 t-18 -42t-42 -18t-42 18t-18 42zM180 400q0 24 18 42t42 18t42 -18t18 -42t-18 -42t-42 -18t-42 18t-18 42zM340 560q0 24 18 42t42 18t42 -18t18 -42t-18 -42t-42 -18t-42 18t-18 42zM500 80q0 24 18 42t42 18t42 -18t18 -42t-18 -42t-42 -18t-42 18t-18 42zM500 240 q0 24 18 42t42 18t42 -18t18 -42t-18 -42t-42 -18t-42 18t-18 42zM500 560q0 24 18 42t42 18t42 -18t18 -42t-18 -42t-42 -18t-42 18t-18 42zM500 720q0 24 18 42t42 18t42 -18t18 -42t-18 -42t-42 -18t-42 18t-18 42zM660 80q0 24 18 42t42 18t42 -18t18 -42t-18 -42 t-42 -18t-42 18t-18 42zM660 400q0 24 18 42t42 18t42 -18t18 -42t-18 -42t-42 -18t-42 18t-18 42zM660 560q0 24 18 42t42 18t42 -18t18 -42t-18 -42t-42 -18t-42 18t-18 42zM660 880q0 24 18 42t42 18t42 -18t18 -42t-18 -42t-42 -18t-42 18t-18 42z" />
<glyph unicode="&#xbe;" d="M20 80q0 24 18 42t42 18t42 -18t18 -42t-18 -42t-42 -18t-42 18t-18 42zM20 560q0 24 18 42t42 18t42 -18t18 -42t-18 -42t-42 -18t-42 18t-18 42zM20 720q0 24 18 42t42 18t42 -18t18 -42t-18 -42t-42 -18t-42 18t-18 42zM20 1040q0 24 18 42t42 18t42 -18t18 -42 t-18 -42t-42 -18t-42 18t-18 42zM180 240q0 24 18 42t42 18t42 -18t18 -42t-18 -42t-42 -18t-42 18t-18 42zM180 560q0 24 18 42t42 18t42 -18t18 -42t-18 -42t-42 -18t-42 18t-18 42zM180 720q0 24 18 42t42 18t42 -18t18 -42t-18 -42t-42 -18t-42 18t-18 42zM180 880 q0 24 18 42t42 18t42 -18t18 -42t-18 -42t-42 -18t-42 18t-18 42zM180 1040q0 24 18 42t42 18t42 -18t18 -42t-18 -42t-42 -18t-42 18t-18 42zM340 400q0 24 18 42t42 18t42 -18t18 -42t-18 -42t-42 -18t-42 18t-18 42zM500 240q0 24 18 42t42 18t42 -18t18 -42t-18 -42 t-42 -18t-42 18t-18 42zM500 400q0 24 18 42t42 18t42 -18t18 -42t-18 -42t-42 -18t-42 18t-18 42zM500 560q0 24 18 42t42 18t42 -18t18 -42t-18 -42t-42 -18t-42 18t-18 42zM660 80q0 24 18 42t42 18t42 -18t18 -42t-18 -42t-42 -18t-42 18t-18 42zM660 240q0 24 18 42 t42 18t42 -18t18 -42t-18 -42t-42 -18t-42 18t-18 42zM660 720q0 24 18 42t42 18t42 -18t18 -42t-18 -42t-42 -18t-42 18t-18 42z" />
<glyph unicode="&#xbf;" d="M180 80q0 24 18 42t42 18t42 -18t18 -42t-18 -42t-42 -18t-42 18t-18 42zM180 240q0 24 18 42t42 18t42 -18t18 -42t-18 -42t-42 -18t-42 18t-18 42zM180 400q0 24 18 42t42 18t42 -18t18 -42t-18 -42t-42 -18t-42 18t-18 42zM340 80q0 24 18 42t42 18t42 -18t18 -42 t-18 -42t-42 -18t-42 18t-18 42zM340 400q0 24 18 42t42 18t42 -18t18 -42t-18 -42t-42 -18t-42 18t-18 42zM500 80q0 24 18 42t42 18t42 -18t18 -42t-18 -42t-42 -18t-42 18t-18 42zM500 400q0 24 18 42t42 18t42 -18t18 -42t-18 -42t-42 -18t-42 18t-18 42zM500 560 q0 24 18 42t42 18t42 -18t18 -42t-18 -42t-42 -18t-42 18t-18 42zM500 720q0 24 18 42t42 18t42 -18t18 -42t-18 -42t-42 -18t-42 18t-18 42zM500 1040q0 24 18 42t42 18t42 -18t18 -42t-18 -42t-42 -18t-42 18t-18 42z" />
<glyph unicode="&#xc0;" d="M20 80q0 24 18 42t42 18t42 -18t18 -42t-18 -42t-42 -18t-42 18t-18 42zM20 240q0 24 18 42t42 18t42 -18t18 -42t-18 -42t-42 -18t-42 18t-18 42zM20 400q0 24 18 42t42 18t42 -18t18 -42t-18 -42t-42 -18t-42 18t-18 42zM20 560q0 24 18 42t42 18t42 -18t18 -42 t-18 -42t-42 -18t-42 18t-18 42zM180 240q0 24 18 42t42 18t42 -18t18 -42t-18 -42t-42 -18t-42 18t-18 42zM180 720q0 24 18 42t42 18t42 -18t18 -42t-18 -42t-42 -18t-42 18t-18 42zM180 1040q0 24 18 42t42 18t42 -18t18 -42t-18 -42t-42 -18t-42 18t-18 42zM340 240 q0 24 18 42t42 18t42 -18t18 -42t-18 -42t-42 -18t-42 18t-18 42zM340 720q0 24 18 42t42 18t42 -18t18 -42t-18 -42t-42 -18t-42 18t-18 42zM340 880q0 24 18 42t42 18t42 -18t18 -42t-18 -42t-42 -18t-42 18t-18 42zM500 240q0 24 18 42t42 18t42 -18t18 -42t-18 -42 t-42 -18t-42 18t-18 42zM500 720q0 24 18 42t42 18t42 -18t18 -42t-18 -42t-42 -18t-42 18t-18 42zM660 80q0 24 18 42t42 18t42 -18t18 -42t-18 -42t-42 -18t-42 18t-18 42zM660 240q0 24 18 42t42 18t42 -18t18 -42t-18 -42t-42 -18t-42 18t-18 42zM660 400q0 24 18 42 t42 18t42 -18t18 -42t-18 -42t-42 -18t-42 18t-18 42zM660 560q0 24 18 42t42 18t42 -18t18 -42t-18 -42t-42 -18t-42 18t-18 42z" />
<glyph unicode="&#xc1;" d="M20 80q0 24 18 42t42 18t42 -18t18 -42t-18 -42t-42 -18t-42 18t-18 42zM20 240q0 24 18 42t42 18t42 -18t18 -42t-18 -42t-42 -18t-42 18t-18 42zM20 400q0 24 18 42t42 18t42 -18t18 -42t-18 -42t-42 -18t-42 18t-18 42zM20 560q0 24 18 42t42 18t42 -18t18 -42 t-18 -42t-42 -18t-42 18t-18 42zM180 240q0 24 18 42t42 18t42 -18t18 -42t-18 -42t-42 -18t-42 18t-18 42zM180 720q0 24 18 42t42 18t42 -18t18 -42t-18 -42t-42 -18t-42 18t-18 42zM340 240q0 24 18 42t42 18t42 -18t18 -42t-18 -42t-42 -18t-42 18t-18 42zM340 720 q0 24 18 42t42 18t42 -18t18 -42t-18 -42t-42 -18t-42 18t-18 42zM340 880q0 24 18 42t42 18t42 -18t18 -42t-18 -42t-42 -18t-42 18t-18 42zM500 240q0 24 18 42t42 18t42 -18t18 -42t-18 -42t-42 -18t-42 18t-18 42zM500 720q0 24 18 42t42 18t42 -18t18 -42t-18 -42 t-42 -18t-42 18t-18 42zM500 1040q0 24 18 42t42 18t42 -18t18 -42t-18 -42t-42 -18t-42 18t-18 42zM660 80q0 24 18 42t42 18t42 -18t18 -42t-18 -42t-42 -18t-42 18t-18 42zM660 240q0 24 18 42t42 18t42 -18t18 -42t-18 -42t-42 -18t-42 18t-18 42zM660 400q0 24 18 42 t42 18t42 -18t18 -42t-18 -42t-42 -18t-42 18t-18 42zM660 560q0 24 18 42t42 18t42 -18t18 -42t-18 -42t-42 -18t-42 18t-18 42z" />
<glyph unicode="&#xc2;" d="M20 80q0 24 18 42t42 18t42 -18t18 -42t-18 -42t-42 -18t-42 18t-18 42zM20 240q0 24 18 42t42 18t42 -18t18 -42t-18 -42t-42 -18t-42 18t-18 42zM20 400q0 24 18 42t42 18t42 -18t18 -42t-18 -42t-42 -18t-42 18t-18 42zM20 560q0 24 18 42t42 18t42 -18t18 -42 t-18 -42t-42 -18t-42 18t-18 42zM180 240q0 24 18 42t42 18t42 -18t18 -42t-18 -42t-42 -18t-42 18t-18 42zM180 720q0 24 18 42t42 18t42 -18t18 -42t-18 -42t-42 -18t-42 18t-18 42zM180 880q0 24 18 42t42 18t42 -18t18 -42t-18 -42t-42 -18t-42 18t-18 42zM340 240 q0 24 18 42t42 18t42 -18t18 -42t-18 -42t-42 -18t-42 18t-18 42zM340 720q0 24 18 42t42 18t42 -18t18 -42t-18 -42t-42 -18t-42 18t-18 42zM340 1040q0 24 18 42t42 18t42 -18t18 -42t-18 -42t-42 -18t-42 18t-18 42zM500 240q0 24 18 42t42 18t42 -18t18 -42t-18 -42 t-42 -18t-42 18t-18 42zM500 720q0 24 18 42t42 18t42 -18t18 -42t-18 -42t-42 -18t-42 18t-18 42zM500 880q0 24 18 42t42 18t42 -18t18 -42t-18 -42t-42 -18t-42 18t-18 42zM660 80q0 24 18 42t42 18t42 -18t18 -42t-18 -42t-42 -18t-42 18t-18 42zM660 240q0 24 18 42 t42 18t42 -18t18 -42t-18 -42t-42 -18t-42 18t-18 42zM660 400q0 24 18 42t42 18t42 -18t18 -42t-18 -42t-42 -18t-42 18t-18 42zM660 560q0 24 18 42t42 18t42 -18t18 -42t-18 -42t-42 -18t-42 18t-18 42z" />
<glyph unicode="&#xc3;" d="M20 80q0 24 18 42t42 18t42 -18t18 -42t-18 -42t-42 -18t-42 18t-18 42zM20 240q0 24 18 42t42 18t42 -18t18 -42t-18 -42t-42 -18t-42 18t-18 42zM20 400q0 24 18 42t42 18t42 -18t18 -42t-18 -42t-42 -18t-42 18t-18 42zM20 560q0 24 18 42t42 18t42 -18t18 -42 t-18 -42t-42 -18t-42 18t-18 42zM180 240q0 24 18 42t42 18t42 -18t18 -42t-18 -42t-42 -18t-42 18t-18 42zM180 720q0 24 18 42t42 18t42 -18t18 -42t-18 -42t-42 -18t-42 18t-18 42zM180 1040q0 24 18 42t42 18t42 -18t18 -42t-18 -42t-42 -18t-42 18t-18 42zM340 240 q0 24 18 42t42 18t42 -18t18 -42t-18 -42t-42 -18t-42 18t-18 42zM340 720q0 24 18 42t42 18t42 -18t18 -42t-18 -42t-42 -18t-42 18t-18 42zM340 1040q0 24 18 42t42 18t42 -18t18 -42t-18 -42t-42 -18t-42 18t-18 42zM500 240q0 24 18 42t42 18t42 -18t18 -42t-18 -42 t-42 -18t-42 18t-18 42zM500 720q0 24 18 42t42 18t42 -18t18 -42t-18 -42t-42 -18t-42 18t-18 42zM500 1040q0 24 18 42t42 18t42 -18t18 -42t-18 -42t-42 -18t-42 18t-18 42zM660 80q0 24 18 42t42 18t42 -18t18 -42t-18 -42t-42 -18t-42 18t-18 42zM660 240q0 24 18 42 t42 18t42 -18t18 -42t-18 -42t-42 -18t-42 18t-18 42zM660 400q0 24 18 42t42 18t42 -18t18 -42t-18 -42t-42 -18t-42 18t-18 42zM660 560q0 24 18 42t42 18t42 -18t18 -42t-18 -42t-42 -18t-42 18t-18 42z" />
<glyph unicode="&#xc4;" d="M20 80q0 24 18 42t42 18t42 -18t18 -42t-18 -42t-42 -18t-42 18t-18 42zM20 240q0 24 18 42t42 18t42 -18t18 -42t-18 -42t-42 -18t-42 18t-18 42zM20 400q0 24 18 42t42 18t42 -18t18 -42t-18 -42t-42 -18t-42 18t-18 42zM20 560q0 24 18 42t42 18t42 -18t18 -42 t-18 -42t-42 -18t-42 18t-18 42zM180 240q0 24 18 42t42 18t42 -18t18 -42t-18 -42t-42 -18t-42 18t-18 42zM180 720q0 24 18 42t42 18t42 -18t18 -42t-18 -42t-42 -18t-42 18t-18 42zM180 1040q0 24 18 42t42 18t42 -18t18 -42t-18 -42t-42 -18t-42 18t-18 42zM340 240 q0 24 18 42t42 18t42 -18t18 -42t-18 -42t-42 -18t-42 18t-18 42zM340 720q0 24 18 42t42 18t42 -18t18 -42t-18 -42t-42 -18t-42 18t-18 42zM500 240q0 24 18 42t42 18t42 -18t18 -42t-18 -42t-42 -18t-42 18t-18 42zM500 720q0 24 18 42t42 18t42 -18t18 -42t-18 -42 t-42 -18t-42 18t-18 42zM500 1040q0 24 18 42t42 18t42 -18t18 -42t-18 -42t-42 -18t-42 18t-18 42zM660 80q0 24 18 42t42 18t42 -18t18 -42t-18 -42t-42 -18t-42 18t-18 42zM660 240q0 24 18 42t42 18t42 -18t18 -42t-18 -42t-42 -18t-42 18t-18 42zM660 400q0 24 18 42 t42 18t42 -18t18 -42t-18 -42t-42 -18t-42 18t-18 42zM660 560q0 24 18 42t42 18t42 -18t18 -42t-18 -42t-42 -18t-42 18t-18 42z" />
<glyph unicode="&#xc5;" d="M20 80q0 24 18 42t42 18t42 -18t18 -42t-18 -42t-42 -18t-42 18t-18 42zM20 240q0 24 18 42t42 18t42 -18t18 -42t-18 -42t-42 -18t-42 18t-18 42zM20 400q0 24 18 42t42 18t42 -18t18 -42t-18 -42t-42 -18t-42 18t-18 42zM20 560q0 24 18 42t42 18t42 -18t18 -42 t-18 -42t-42 -18t-42 18t-18 42zM180 240q0 24 18 42t42 18t42 -18t18 -42t-18 -42t-42 -18t-42 18t-18 42zM180 720q0 24 18 42t42 18t42 -18t18 -42t-18 -42t-42 -18t-42 18t-18 42zM180 1040q0 24 18 42t42 18t42 -18t18 -42t-18 -42t-42 -18t-42 18t-18 42zM340 240 q0 24 18 42t42 18t42 -18t18 -42t-18 -42t-42 -18t-42 18t-18 42zM340 720q0 24 18 42t42 18t42 -18t18 -42t-18 -42t-42 -18t-42 18t-18 42zM340 880q0 24 18 42t42 18t42 -18t18 -42t-18 -42t-42 -18t-42 18t-18 42zM340 1040q0 24 18 42t42 18t42 -18t18 -42t-18 -42 t-42 -18t-42 18t-18 42zM500 240q0 24 18 42t42 18t42 -18t18 -42t-18 -42t-42 -18t-42 18t-18 42zM500 720q0 24 18 42t42 18t42 -18t18 -42t-18 -42t-42 -18t-42 18t-18 42zM500 1040q0 24 18 42t42 18t42 -18t18 -42t-18 -42t-42 -18t-42 18t-18 42zM660 80q0 24 18 42 t42 18t42 -18t18 -42t-18 -42t-42 -18t-42 18t-18 42zM660 240q0 24 18 42t42 18t42 -18t18 -42t-18 -42t-42 -18t-42 18t-18 42zM660 400q0 24 18 42t42 18t42 -18t18 -42t-18 -42t-42 -18t-42 18t-18 42zM660 560q0 24 18 42t42 18t42 -18t18 -42t-18 -42t-42 -18t-42 18 t-18 42z" />
<glyph unicode="&#xc6;" d="M20 80q0 24 18 42t42 18t42 -18t18 -42t-18 -42t-42 -18t-42 18t-18 42zM20 240q0 24 18 42t42 18t42 -18t18 -42t-18 -42t-42 -18t-42 18t-18 42zM20 400q0 24 18 42t42 18t42 -18t18 -42t-18 -42t-42 -18t-42 18t-18 42zM20 560q0 24 18 42t42 18t42 -18t18 -42 t-18 -42t-42 -18t-42 18t-18 42zM20 720q0 24 18 42t42 18t42 -18t18 -42t-18 -42t-42 -18t-42 18t-18 42zM20 880q0 24 18 42t42 18t42 -18t18 -42t-18 -42t-42 -18t-42 18t-18 42zM180 400q0 24 18 42t42 18t42 -18t18 -42t-18 -42t-42 -18t-42 18t-18 42zM180 1040 q0 24 18 42t42 18t42 -18t18 -42t-18 -42t-42 -18t-42 18t-18 42zM340 80q0 24 18 42t42 18t42 -18t18 -42t-18 -42t-42 -18t-42 18t-18 42zM340 240q0 24 18 42t42 18t42 -18t18 -42t-18 -42t-42 -18t-42 18t-18 42zM340 400q0 24 18 42t42 18t42 -18t18 -42t-18 -42 t-42 -18t-42 18t-18 42zM340 560q0 24 18 42t42 18t42 -18t18 -42t-18 -42t-42 -18t-42 18t-18 42zM340 720q0 24 18 42t42 18t42 -18t18 -42t-18 -42t-42 -18t-42 18t-18 42zM340 880q0 24 18 42t42 18t42 -18t18 -42t-18 -42t-42 -18t-42 18t-18 42zM500 80q0 24 18 42 t42 18t42 -18t18 -42t-18 -42t-42 -18t-42 18t-18 42zM500 560q0 24 18 42t42 18t42 -18t18 -42t-18 -42t-42 -18t-42 18t-18 42zM500 1040q0 24 18 42t42 18t42 -18t18 -42t-18 -42t-42 -18t-42 18t-18 42zM660 80q0 24 18 42t42 18t42 -18t18 -42t-18 -42t-42 -18t-42 18 t-18 42zM660 560q0 24 18 42t42 18t42 -18t18 -42t-18 -42t-42 -18t-42 18t-18 42zM660 1040q0 24 18 42t42 18t42 -18t18 -42t-18 -42t-42 -18t-42 18t-18 42z" />
<glyph unicode="&#xc7;" d="M20 400q0 24 18 42t42 18t42 -18t18 -42t-18 -42t-42 -18t-42 18t-18 42zM20 560q0 24 18 42t42 18t42 -18t18 -42t-18 -42t-42 -18t-42 18t-18 42zM20 720q0 24 18 42t42 18t42 -18t18 -42t-18 -42t-42 -18t-42 18t-18 42zM20 880q0 24 18 42t42 18t42 -18t18 -42 t-18 -42t-42 -18t-42 18t-18 42zM180 240q0 24 18 42t42 18t42 -18t18 -42t-18 -42t-42 -18t-42 18t-18 42zM180 1040q0 24 18 42t42 18t42 -18t18 -42t-18 -42t-42 -18t-42 18t-18 42zM340 80q0 24 18 42t42 18t42 -18t18 -42t-18 -42t-42 -18t-42 18t-18 42zM340 240 q0 24 18 42t42 18t42 -18t18 -42t-18 -42t-42 -18t-42 18t-18 42zM340 1040q0 24 18 42t42 18t42 -18t18 -42t-18 -42t-42 -18t-42 18t-18 42zM500 240q0 24 18 42t42 18t42 -18t18 -42t-18 -42t-42 -18t-42 18t-18 42zM500 1040q0 24 18 42t42 18t42 -18t18 -42t-18 -42 t-42 -18t-42 18t-18 42zM660 400q0 24 18 42t42 18t42 -18t18 -42t-18 -42t-42 -18t-42 18t-18 42zM660 880q0 24 18 42t42 18t42 -18t18 -42t-18 -42t-42 -18t-42 18t-18 42z" />
<glyph unicode="&#xc8;" d="M20 80q0 24 18 42t42 18t42 -18t18 -42t-18 -42t-42 -18t-42 18t-18 42zM20 240q0 24 18 42t42 18t42 -18t18 -42t-18 -42t-42 -18t-42 18t-18 42zM20 400q0 24 18 42t42 18t42 -18t18 -42t-18 -42t-42 -18t-42 18t-18 42zM20 560q0 24 18 42t42 18t42 -18t18 -42 t-18 -42t-42 -18t-42 18t-18 42zM20 720q0 24 18 42t42 18t42 -18t18 -42t-18 -42t-42 -18t-42 18t-18 42zM180 80q0 24 18 42t42 18t42 -18t18 -42t-18 -42t-42 -18t-42 18t-18 42zM180 400q0 24 18 42t42 18t42 -18t18 -42t-18 -42t-42 -18t-42 18t-18 42zM180 720 q0 24 18 42t42 18t42 -18t18 -42t-18 -42t-42 -18t-42 18t-18 42zM180 1040q0 24 18 42t42 18t42 -18t18 -42t-18 -42t-42 -18t-42 18t-18 42zM340 80q0 24 18 42t42 18t42 -18t18 -42t-18 -42t-42 -18t-42 18t-18 42zM340 400q0 24 18 42t42 18t42 -18t18 -42t-18 -42 t-42 -18t-42 18t-18 42zM340 720q0 24 18 42t42 18t42 -18t18 -42t-18 -42t-42 -18t-42 18t-18 42zM340 880q0 24 18 42t42 18t42 -18t18 -42t-18 -42t-42 -18t-42 18t-18 42zM500 80q0 24 18 42t42 18t42 -18t18 -42t-18 -42t-42 -18t-42 18t-18 42zM500 400q0 24 18 42 t42 18t42 -18t18 -42t-18 -42t-42 -18t-42 18t-18 42zM500 720q0 24 18 42t42 18t42 -18t18 -42t-18 -42t-42 -18t-42 18t-18 42zM660 80q0 24 18 42t42 18t42 -18t18 -42t-18 -42t-42 -18t-42 18t-18 42zM660 720q0 24 18 42t42 18t42 -18t18 -42t-18 -42t-42 -18t-42 18 t-18 42z" />
<glyph unicode="&#xc9;" d="M20 80q0 24 18 42t42 18t42 -18t18 -42t-18 -42t-42 -18t-42 18t-18 42zM20 240q0 24 18 42t42 18t42 -18t18 -42t-18 -42t-42 -18t-42 18t-18 42zM20 400q0 24 18 42t42 18t42 -18t18 -42t-18 -42t-42 -18t-42 18t-18 42zM20 560q0 24 18 42t42 18t42 -18t18 -42 t-18 -42t-42 -18t-42 18t-18 42zM20 720q0 24 18 42t42 18t42 -18t18 -42t-18 -42t-42 -18t-42 18t-18 42zM180 80q0 24 18 42t42 18t42 -18t18 -42t-18 -42t-42 -18t-42 18t-18 42zM180 400q0 24 18 42t42 18t42 -18t18 -42t-18 -42t-42 -18t-42 18t-18 42zM180 720 q0 24 18 42t42 18t42 -18t18 -42t-18 -42t-42 -18t-42 18t-18 42zM340 80q0 24 18 42t42 18t42 -18t18 -42t-18 -42t-42 -18t-42 18t-18 42zM340 400q0 24 18 42t42 18t42 -18t18 -42t-18 -42t-42 -18t-42 18t-18 42zM340 720q0 24 18 42t42 18t42 -18t18 -42t-18 -42 t-42 -18t-42 18t-18 42zM340 880q0 24 18 42t42 18t42 -18t18 -42t-18 -42t-42 -18t-42 18t-18 42zM500 80q0 24 18 42t42 18t42 -18t18 -42t-18 -42t-42 -18t-42 18t-18 42zM500 400q0 24 18 42t42 18t42 -18t18 -42t-18 -42t-42 -18t-42 18t-18 42zM500 720q0 24 18 42 t42 18t42 -18t18 -42t-18 -42t-42 -18t-42 18t-18 42zM500 1040q0 24 18 42t42 18t42 -18t18 -42t-18 -42t-42 -18t-42 18t-18 42zM660 80q0 24 18 42t42 18t42 -18t18 -42t-18 -42t-42 -18t-42 18t-18 42zM660 720q0 24 18 42t42 18t42 -18t18 -42t-18 -42t-42 -18t-42 18 t-18 42z" />
<glyph unicode="&#xca;" d="M20 80q0 24 18 42t42 18t42 -18t18 -42t-18 -42t-42 -18t-42 18t-18 42zM20 240q0 24 18 42t42 18t42 -18t18 -42t-18 -42t-42 -18t-42 18t-18 42zM20 400q0 24 18 42t42 18t42 -18t18 -42t-18 -42t-42 -18t-42 18t-18 42zM20 560q0 24 18 42t42 18t42 -18t18 -42 t-18 -42t-42 -18t-42 18t-18 42zM20 720q0 24 18 42t42 18t42 -18t18 -42t-18 -42t-42 -18t-42 18t-18 42zM180 80q0 24 18 42t42 18t42 -18t18 -42t-18 -42t-42 -18t-42 18t-18 42zM180 400q0 24 18 42t42 18t42 -18t18 -42t-18 -42t-42 -18t-42 18t-18 42zM180 720 q0 24 18 42t42 18t42 -18t18 -42t-18 -42t-42 -18t-42 18t-18 42zM180 880q0 24 18 42t42 18t42 -18t18 -42t-18 -42t-42 -18t-42 18t-18 42zM340 80q0 24 18 42t42 18t42 -18t18 -42t-18 -42t-42 -18t-42 18t-18 42zM340 400q0 24 18 42t42 18t42 -18t18 -42t-18 -42 t-42 -18t-42 18t-18 42zM340 720q0 24 18 42t42 18t42 -18t18 -42t-18 -42t-42 -18t-42 18t-18 42zM340 1040q0 24 18 42t42 18t42 -18t18 -42t-18 -42t-42 -18t-42 18t-18 42zM500 80q0 24 18 42t42 18t42 -18t18 -42t-18 -42t-42 -18t-42 18t-18 42zM500 400q0 24 18 42 t42 18t42 -18t18 -42t-18 -42t-42 -18t-42 18t-18 42zM500 720q0 24 18 42t42 18t42 -18t18 -42t-18 -42t-42 -18t-42 18t-18 42zM500 880q0 24 18 42t42 18t42 -18t18 -42t-18 -42t-42 -18t-42 18t-18 42zM660 80q0 24 18 42t42 18t42 -18t18 -42t-18 -42t-42 -18t-42 18 t-18 42zM660 720q0 24 18 42t42 18t42 -18t18 -42t-18 -42t-42 -18t-42 18t-18 42z" />
<glyph unicode="&#xcb;" d="M20 80q0 24 18 42t42 18t42 -18t18 -42t-18 -42t-42 -18t-42 18t-18 42zM20 240q0 24 18 42t42 18t42 -18t18 -42t-18 -42t-42 -18t-42 18t-18 42zM20 400q0 24 18 42t42 18t42 -18t18 -42t-18 -42t-42 -18t-42 18t-18 42zM20 560q0 24 18 42t42 18t42 -18t18 -42 t-18 -42t-42 -18t-42 18t-18 42zM20 720q0 24 18 42t42 18t42 -18t18 -42t-18 -42t-42 -18t-42 18t-18 42zM180 80q0 24 18 42t42 18t42 -18t18 -42t-18 -42t-42 -18t-42 18t-18 42zM180 400q0 24 18 42t42 18t42 -18t18 -42t-18 -42t-42 -18t-42 18t-18 42zM180 720 q0 24 18 42t42 18t42 -18t18 -42t-18 -42t-42 -18t-42 18t-18 42zM180 1040q0 24 18 42t42 18t42 -18t18 -42t-18 -42t-42 -18t-42 18t-18 42zM340 80q0 24 18 42t42 18t42 -18t18 -42t-18 -42t-42 -18t-42 18t-18 42zM340 400q0 24 18 42t42 18t42 -18t18 -42t-18 -42 t-42 -18t-42 18t-18 42zM340 720q0 24 18 42t42 18t42 -18t18 -42t-18 -42t-42 -18t-42 18t-18 42zM500 80q0 24 18 42t42 18t42 -18t18 -42t-18 -42t-42 -18t-42 18t-18 42zM500 400q0 24 18 42t42 18t42 -18t18 -42t-18 -42t-42 -18t-42 18t-18 42zM500 720q0 24 18 42 t42 18t42 -18t18 -42t-18 -42t-42 -18t-42 18t-18 42zM500 1040q0 24 18 42t42 18t42 -18t18 -42t-18 -42t-42 -18t-42 18t-18 42zM660 80q0 24 18 42t42 18t42 -18t18 -42t-18 -42t-42 -18t-42 18t-18 42zM660 720q0 24 18 42t42 18t42 -18t18 -42t-18 -42t-42 -18t-42 18 t-18 42z" />
<glyph unicode="&#xcc;" d="M180 80q0 24 18 42t42 18t42 -18t18 -42t-18 -42t-42 -18t-42 18t-18 42zM180 720q0 24 18 42t42 18t42 -18t18 -42t-18 -42t-42 -18t-42 18t-18 42zM180 1040q0 24 18 42t42 18t42 -18t18 -42t-18 -42t-42 -18t-42 18t-18 42zM340 80q0 24 18 42t42 18t42 -18t18 -42 t-18 -42t-42 -18t-42 18t-18 42zM340 240q0 24 18 42t42 18t42 -18t18 -42t-18 -42t-42 -18t-42 18t-18 42zM340 400q0 24 18 42t42 18t42 -18t18 -42t-18 -42t-42 -18t-42 18t-18 42zM340 560q0 24 18 42t42 18t42 -18t18 -42t-18 -42t-42 -18t-42 18t-18 42zM340 720 q0 24 18 42t42 18t42 -18t18 -42t-18 -42t-42 -18t-42 18t-18 42zM340 880q0 24 18 42t42 18t42 -18t18 -42t-18 -42t-42 -18t-42 18t-18 42zM500 80q0 24 18 42t42 18t42 -18t18 -42t-18 -42t-42 -18t-42 18t-18 42zM500 720q0 24 18 42t42 18t42 -18t18 -42t-18 -42 t-42 -18t-42 18t-18 42z" />
<glyph unicode="&#xcd;" d="M180 80q0 24 18 42t42 18t42 -18t18 -42t-18 -42t-42 -18t-42 18t-18 42zM180 720q0 24 18 42t42 18t42 -18t18 -42t-18 -42t-42 -18t-42 18t-18 42zM340 80q0 24 18 42t42 18t42 -18t18 -42t-18 -42t-42 -18t-42 18t-18 42zM340 240q0 24 18 42t42 18t42 -18t18 -42 t-18 -42t-42 -18t-42 18t-18 42zM340 400q0 24 18 42t42 18t42 -18t18 -42t-18 -42t-42 -18t-42 18t-18 42zM340 560q0 24 18 42t42 18t42 -18t18 -42t-18 -42t-42 -18t-42 18t-18 42zM340 720q0 24 18 42t42 18t42 -18t18 -42t-18 -42t-42 -18t-42 18t-18 42zM340 880 q0 24 18 42t42 18t42 -18t18 -42t-18 -42t-42 -18t-42 18t-18 42zM500 80q0 24 18 42t42 18t42 -18t18 -42t-18 -42t-42 -18t-42 18t-18 42zM500 720q0 24 18 42t42 18t42 -18t18 -42t-18 -42t-42 -18t-42 18t-18 42zM500 1040q0 24 18 42t42 18t42 -18t18 -42t-18 -42 t-42 -18t-42 18t-18 42z" />
<glyph unicode="&#xce;" d="M180 80q0 24 18 42t42 18t42 -18t18 -42t-18 -42t-42 -18t-42 18t-18 42zM180 720q0 24 18 42t42 18t42 -18t18 -42t-18 -42t-42 -18t-42 18t-18 42zM180 880q0 24 18 42t42 18t42 -18t18 -42t-18 -42t-42 -18t-42 18t-18 42zM340 80q0 24 18 42t42 18t42 -18t18 -42 t-18 -42t-42 -18t-42 18t-18 42zM340 240q0 24 18 42t42 18t42 -18t18 -42t-18 -42t-42 -18t-42 18t-18 42zM340 400q0 24 18 42t42 18t42 -18t18 -42t-18 -42t-42 -18t-42 18t-18 42zM340 560q0 24 18 42t42 18t42 -18t18 -42t-18 -42t-42 -18t-42 18t-18 42zM340 720 q0 24 18 42t42 18t42 -18t18 -42t-18 -42t-42 -18t-42 18t-18 42zM340 1040q0 24 18 42t42 18t42 -18t18 -42t-18 -42t-42 -18t-42 18t-18 42zM500 80q0 24 18 42t42 18t42 -18t18 -42t-18 -42t-42 -18t-42 18t-18 42zM500 720q0 24 18 42t42 18t42 -18t18 -42t-18 -42 t-42 -18t-42 18t-18 42zM500 880q0 24 18 42t42 18t42 -18t18 -42t-18 -42t-42 -18t-42 18t-18 42z" />
<glyph unicode="&#xcf;" d="M180 80q0 24 18 42t42 18t42 -18t18 -42t-18 -42t-42 -18t-42 18t-18 42zM180 720q0 24 18 42t42 18t42 -18t18 -42t-18 -42t-42 -18t-42 18t-18 42zM180 1040q0 24 18 42t42 18t42 -18t18 -42t-18 -42t-42 -18t-42 18t-18 42zM340 80q0 24 18 42t42 18t42 -18t18 -42 t-18 -42t-42 -18t-42 18t-18 42zM340 240q0 24 18 42t42 18t42 -18t18 -42t-18 -42t-42 -18t-42 18t-18 42zM340 400q0 24 18 42t42 18t42 -18t18 -42t-18 -42t-42 -18t-42 18t-18 42zM340 560q0 24 18 42t42 18t42 -18t18 -42t-18 -42t-42 -18t-42 18t-18 42zM340 720 q0 24 18 42t42 18t42 -18t18 -42t-18 -42t-42 -18t-42 18t-18 42zM500 80q0 24 18 42t42 18t42 -18t18 -42t-18 -42t-42 -18t-42 18t-18 42zM500 720q0 24 18 42t42 18t42 -18t18 -42t-18 -42t-42 -18t-42 18t-18 42zM500 1040q0 24 18 42t42 18t42 -18t18 -42t-18 -42 t-42 -18t-42 18t-18 42z" />
<glyph unicode="&#xd0;" d="M20 80q0 24 18 42t42 18t42 -18t18 -42t-18 -42t-42 -18t-42 18t-18 42zM20 560q0 24 18 42t42 18t42 -18t18 -42t-18 -42t-42 -18t-42 18t-18 42zM20 1040q0 24 18 42t42 18t42 -18t18 -42t-18 -42t-42 -18t-42 18t-18 42zM180 80q0 24 18 42t42 18t42 -18t18 -42 t-18 -42t-42 -18t-42 18t-18 42zM180 240q0 24 18 42t42 18t42 -18t18 -42t-18 -42t-42 -18t-42 18t-18 42zM180 400q0 24 18 42t42 18t42 -18t18 -42t-18 -42t-42 -18t-42 18t-18 42zM180 560q0 24 18 42t42 18t42 -18t18 -42t-18 -42t-42 -18t-42 18t-18 42zM180 720 q0 24 18 42t42 18t42 -18t18 -42t-18 -42t-42 -18t-42 18t-18 42zM180 880q0 24 18 42t42 18t42 -18t18 -42t-18 -42t-42 -18t-42 18t-18 42zM180 1040q0 24 18 42t42 18t42 -18t18 -42t-18 -42t-42 -18t-42 18t-18 42zM340 80q0 24 18 42t42 18t42 -18t18 -42t-18 -42 t-42 -18t-42 18t-18 42zM340 560q0 24 18 42t42 18t42 -18t18 -42t-18 -42t-42 -18t-42 18t-18 42zM340 1040q0 24 18 42t42 18t42 -18t18 -42t-18 -42t-42 -18t-42 18t-18 42zM500 80q0 24 18 42t42 18t42 -18t18 -42t-18 -42t-42 -18t-42 18t-18 42zM500 560q0 24 18 42 t42 18t42 -18t18 -42t-18 -42t-42 -18t-42 18t-18 42zM500 1040q0 24 18 42t42 18t42 -18t18 -42t-18 -42t-42 -18t-42 18t-18 42zM660 240q0 24 18 42t42 18t42 -18t18 -42t-18 -42t-42 -18t-42 18t-18 42zM660 400q0 24 18 42t42 18t42 -18t18 -42t-18 -42t-42 -18t-42 18 t-18 42zM660 560q0 24 18 42t42 18t42 -18t18 -42t-18 -42t-42 -18t-42 18t-18 42zM660 720q0 24 18 42t42 18t42 -18t18 -42t-18 -42t-42 -18t-42 18t-18 42zM660 880q0 24 18 42t42 18t42 -18t18 -42t-18 -42t-42 -18t-42 18t-18 42z" />
<glyph unicode="&#xd1;" d="M20 80q0 24 18 42t42 18t42 -18t18 -42t-18 -42t-42 -18t-42 18t-18 42zM20 240q0 24 18 42t42 18t42 -18t18 -42t-18 -42t-42 -18t-42 18t-18 42zM20 400q0 24 18 42t42 18t42 -18t18 -42t-18 -42t-42 -18t-42 18t-18 42zM20 560q0 24 18 42t42 18t42 -18t18 -42 t-18 -42t-42 -18t-42 18t-18 42zM20 720q0 24 18 42t42 18t42 -18t18 -42t-18 -42t-42 -18t-42 18t-18 42zM20 1040q0 24 18 42t42 18t42 -18t18 -42t-18 -42t-42 -18t-42 18t-18 42zM180 560q0 24 18 42t42 18t42 -18t18 -42t-18 -42t-42 -18t-42 18t-18 42zM180 1040 q0 24 18 42t42 18t42 -18t18 -42t-18 -42t-42 -18t-42 18t-18 42zM340 400q0 24 18 42t42 18t42 -18t18 -42t-18 -42t-42 -18t-42 18t-18 42zM340 1040q0 24 18 42t42 18t42 -18t18 -42t-18 -42t-42 -18t-42 18t-18 42zM500 240q0 24 18 42t42 18t42 -18t18 -42t-18 -42 t-42 -18t-42 18t-18 42zM500 1040q0 24 18 42t42 18t42 -18t18 -42t-18 -42t-42 -18t-42 18t-18 42zM660 80q0 24 18 42t42 18t42 -18t18 -42t-18 -42t-42 -18t-42 18t-18 42zM660 240q0 24 18 42t42 18t42 -18t18 -42t-18 -42t-42 -18t-42 18t-18 42zM660 400q0 24 18 42 t42 18t42 -18t18 -42t-18 -42t-42 -18t-42 18t-18 42zM660 560q0 24 18 42t42 18t42 -18t18 -42t-18 -42t-42 -18t-42 18t-18 42zM660 720q0 24 18 42t42 18t42 -18t18 -42t-18 -42t-42 -18t-42 18t-18 42zM660 1040q0 24 18 42t42 18t42 -18t18 -42t-18 -42t-42 -18t-42 18 t-18 42z" />
<glyph unicode="&#xd2;" d="M20 240q0 24 18 42t42 18t42 -18t18 -42t-18 -42t-42 -18t-42 18t-18 42zM20 400q0 24 18 42t42 18t42 -18t18 -42t-18 -42t-42 -18t-42 18t-18 42zM20 560q0 24 18 42t42 18t42 -18t18 -42t-18 -42t-42 -18t-42 18t-18 42zM180 80q0 24 18 42t42 18t42 -18t18 -42 t-18 -42t-42 -18t-42 18t-18 42zM180 720q0 24 18 42t42 18t42 -18t18 -42t-18 -42t-42 -18t-42 18t-18 42zM180 1040q0 24 18 42t42 18t42 -18t18 -42t-18 -42t-42 -18t-42 18t-18 42zM340 80q0 24 18 42t42 18t42 -18t18 -42t-18 -42t-42 -18t-42 18t-18 42zM340 720 q0 24 18 42t42 18t42 -18t18 -42t-18 -42t-42 -18t-42 18t-18 42zM340 880q0 24 18 42t42 18t42 -18t18 -42t-18 -42t-42 -18t-42 18t-18 42zM500 80q0 24 18 42t42 18t42 -18t18 -42t-18 -42t-42 -18t-42 18t-18 42zM500 720q0 24 18 42t42 18t42 -18t18 -42t-18 -42 t-42 -18t-42 18t-18 42zM660 240q0 24 18 42t42 18t42 -18t18 -42t-18 -42t-42 -18t-42 18t-18 42zM660 400q0 24 18 42t42 18t42 -18t18 -42t-18 -42t-42 -18t-42 18t-18 42zM660 560q0 24 18 42t42 18t42 -18t18 -42t-18 -42t-42 -18t-42 18t-18 42z" />
<glyph unicode="&#xd3;" d="M20 240q0 24 18 42t42 18t42 -18t18 -42t-18 -42t-42 -18t-42 18t-18 42zM20 400q0 24 18 42t42 18t42 -18t18 -42t-18 -42t-42 -18t-42 18t-18 42zM20 560q0 24 18 42t42 18t42 -18t18 -42t-18 -42t-42 -18t-42 18t-18 42zM180 80q0 24 18 42t42 18t42 -18t18 -42 t-18 -42t-42 -18t-42 18t-18 42zM180 720q0 24 18 42t42 18t42 -18t18 -42t-18 -42t-42 -18t-42 18t-18 42zM340 80q0 24 18 42t42 18t42 -18t18 -42t-18 -42t-42 -18t-42 18t-18 42zM340 720q0 24 18 42t42 18t42 -18t18 -42t-18 -42t-42 -18t-42 18t-18 42zM340 880 q0 24 18 42t42 18t42 -18t18 -42t-18 -42t-42 -18t-42 18t-18 42zM500 80q0 24 18 42t42 18t42 -18t18 -42t-18 -42t-42 -18t-42 18t-18 42zM500 720q0 24 18 42t42 18t42 -18t18 -42t-18 -42t-42 -18t-42 18t-18 42zM500 1040q0 24 18 42t42 18t42 -18t18 -42t-18 -42 t-42 -18t-42 18t-18 42zM660 240q0 24 18 42t42 18t42 -18t18 -42t-18 -42t-42 -18t-42 18t-18 42zM660 400q0 24 18 42t42 18t42 -18t18 -42t-18 -42t-42 -18t-42 18t-18 42zM660 560q0 24 18 42t42 18t42 -18t18 -42t-18 -42t-42 -18t-42 18t-18 42z" />
<glyph unicode="&#xd4;" d="M20 240q0 24 18 42t42 18t42 -18t18 -42t-18 -42t-42 -18t-42 18t-18 42zM20 400q0 24 18 42t42 18t42 -18t18 -42t-18 -42t-42 -18t-42 18t-18 42zM20 560q0 24 18 42t42 18t42 -18t18 -42t-18 -42t-42 -18t-42 18t-18 42zM180 80q0 24 18 42t42 18t42 -18t18 -42 t-18 -42t-42 -18t-42 18t-18 42zM180 720q0 24 18 42t42 18t42 -18t18 -42t-18 -42t-42 -18t-42 18t-18 42zM180 880q0 24 18 42t42 18t42 -18t18 -42t-18 -42t-42 -18t-42 18t-18 42zM340 80q0 24 18 42t42 18t42 -18t18 -42t-18 -42t-42 -18t-42 18t-18 42zM340 720 q0 24 18 42t42 18t42 -18t18 -42t-18 -42t-42 -18t-42 18t-18 42zM340 1040q0 24 18 42t42 18t42 -18t18 -42t-18 -42t-42 -18t-42 18t-18 42zM500 80q0 24 18 42t42 18t42 -18t18 -42t-18 -42t-42 -18t-42 18t-18 42zM500 720q0 24 18 42t42 18t42 -18t18 -42t-18 -42 t-42 -18t-42 18t-18 42zM500 880q0 24 18 42t42 18t42 -18t18 -42t-18 -42t-42 -18t-42 18t-18 42zM660 240q0 24 18 42t42 18t42 -18t18 -42t-18 -42t-42 -18t-42 18t-18 42zM660 400q0 24 18 42t42 18t42 -18t18 -42t-18 -42t-42 -18t-42 18t-18 42zM660 560q0 24 18 42 t42 18t42 -18t18 -42t-18 -42t-42 -18t-42 18t-18 42z" />
<glyph unicode="&#xd5;" d="M20 240q0 24 18 42t42 18t42 -18t18 -42t-18 -42t-42 -18t-42 18t-18 42zM20 400q0 24 18 42t42 18t42 -18t18 -42t-18 -42t-42 -18t-42 18t-18 42zM20 560q0 24 18 42t42 18t42 -18t18 -42t-18 -42t-42 -18t-42 18t-18 42zM180 80q0 24 18 42t42 18t42 -18t18 -42 t-18 -42t-42 -18t-42 18t-18 42zM180 720q0 24 18 42t42 18t42 -18t18 -42t-18 -42t-42 -18t-42 18t-18 42zM180 1040q0 24 18 42t42 18t42 -18t18 -42t-18 -42t-42 -18t-42 18t-18 42zM340 80q0 24 18 42t42 18t42 -18t18 -42t-18 -42t-42 -18t-42 18t-18 42zM340 720 q0 24 18 42t42 18t42 -18t18 -42t-18 -42t-42 -18t-42 18t-18 42zM340 1040q0 24 18 42t42 18t42 -18t18 -42t-18 -42t-42 -18t-42 18t-18 42zM500 80q0 24 18 42t42 18t42 -18t18 -42t-18 -42t-42 -18t-42 18t-18 42zM500 720q0 24 18 42t42 18t42 -18t18 -42t-18 -42 t-42 -18t-42 18t-18 42zM500 1040q0 24 18 42t42 18t42 -18t18 -42t-18 -42t-42 -18t-42 18t-18 42zM660 240q0 24 18 42t42 18t42 -18t18 -42t-18 -42t-42 -18t-42 18t-18 42zM660 400q0 24 18 42t42 18t42 -18t18 -42t-18 -42t-42 -18t-42 18t-18 42zM660 560q0 24 18 42 t42 18t42 -18t18 -42t-18 -42t-42 -18t-42 18t-18 42z" />
<glyph unicode="&#xd6;" d="M20 240q0 24 18 42t42 18t42 -18t18 -42t-18 -42t-42 -18t-42 18t-18 42zM20 400q0 24 18 42t42 18t42 -18t18 -42t-18 -42t-42 -18t-42 18t-18 42zM20 560q0 24 18 42t42 18t42 -18t18 -42t-18 -42t-42 -18t-42 18t-18 42zM180 80q0 24 18 42t42 18t42 -18t18 -42 t-18 -42t-42 -18t-42 18t-18 42zM180 720q0 24 18 42t42 18t42 -18t18 -42t-18 -42t-42 -18t-42 18t-18 42zM180 1040q0 24 18 42t42 18t42 -18t18 -42t-18 -42t-42 -18t-42 18t-18 42zM340 80q0 24 18 42t42 18t42 -18t18 -42t-18 -42t-42 -18t-42 18t-18 42zM340 720 q0 24 18 42t42 18t42 -18t18 -42t-18 -42t-42 -18t-42 18t-18 42zM500 80q0 24 18 42t42 18t42 -18t18 -42t-18 -42t-42 -18t-42 18t-18 42zM500 720q0 24 18 42t42 18t42 -18t18 -42t-18 -42t-42 -18t-42 18t-18 42zM500 1040q0 24 18 42t42 18t42 -18t18 -42t-18 -42 t-42 -18t-42 18t-18 42zM660 240q0 24 18 42t42 18t42 -18t18 -42t-18 -42t-42 -18t-42 18t-18 42zM660 400q0 24 18 42t42 18t42 -18t18 -42t-18 -42t-42 -18t-42 18t-18 42zM660 560q0 24 18 42t42 18t42 -18t18 -42t-18 -42t-42 -18t-42 18t-18 42z" />
<glyph unicode="&#xd7;" d="M20 240q0 24 18 42t42 18t42 -18t18 -42t-18 -42t-42 -18t-42 18t-18 42zM20 880q0 24 18 42t42 18t42 -18t18 -42t-18 -42t-42 -18t-42 18t-18 42zM180 400q0 24 18 42t42 18t42 -18t18 -42t-18 -42t-42 -18t-42 18t-18 42zM180 720q0 24 18 42t42 18t42 -18t18 -42 t-18 -42t-42 -18t-42 18t-18 42zM340 560q0 24 18 42t42 18t42 -18t18 -42t-18 -42t-42 -18t-42 18t-18 42zM500 400q0 24 18 42t42 18t42 -18t18 -42t-18 -42t-42 -18t-42 18t-18 42zM500 720q0 24 18 42t42 18t42 -18t18 -42t-18 -42t-42 -18t-42 18t-18 42zM660 240 q0 24 18 42t42 18t42 -18t18 -42t-18 -42t-42 -18t-42 18t-18 42zM660 880q0 24 18 42t42 18t42 -18t18 -42t-18 -42t-42 -18t-42 18t-18 42z" />
<glyph unicode="&#xd8;" d="M20 240q0 24 18 42t42 18t42 -18t18 -42t-18 -42t-42 -18t-42 18t-18 42zM20 400q0 24 18 42t42 18t42 -18t18 -42t-18 -42t-42 -18t-42 18t-18 42zM20 560q0 24 18 42t42 18t42 -18t18 -42t-18 -42t-42 -18t-42 18t-18 42zM20 720q0 24 18 42t42 18t42 -18t18 -42 t-18 -42t-42 -18t-42 18t-18 42zM20 880q0 24 18 42t42 18t42 -18t18 -42t-18 -42t-42 -18t-42 18t-18 42zM180 80q0 24 18 42t42 18t42 -18t18 -42t-18 -42t-42 -18t-42 18t-18 42zM180 240q0 24 18 42t42 18t42 -18t18 -42t-18 -42t-42 -18t-42 18t-18 42zM180 1040 q0 24 18 42t42 18t42 -18t18 -42t-18 -42t-42 -18t-42 18t-18 42zM340 80q0 24 18 42t42 18t42 -18t18 -42t-18 -42t-42 -18t-42 18t-18 42zM340 400q0 24 18 42t42 18t42 -18t18 -42t-18 -42t-42 -18t-42 18t-18 42zM340 560q0 24 18 42t42 18t42 -18t18 -42t-18 -42 t-42 -18t-42 18t-18 42zM340 720q0 24 18 42t42 18t42 -18t18 -42t-18 -42t-42 -18t-42 18t-18 42zM340 1040q0 24 18 42t42 18t42 -18t18 -42t-18 -42t-42 -18t-42 18t-18 42zM500 80q0 24 18 42t42 18t42 -18t18 -42t-18 -42t-42 -18t-42 18t-18 42zM500 880q0 24 18 42 t42 18t42 -18t18 -42t-18 -42t-42 -18t-42 18t-18 42zM500 1040q0 24 18 42t42 18t42 -18t18 -42t-18 -42t-42 -18t-42 18t-18 42zM660 240q0 24 18 42t42 18t42 -18t18 -42t-18 -42t-42 -18t-42 18t-18 42zM660 400q0 24 18 42t42 18t42 -18t18 -42t-18 -42t-42 -18t-42 18 t-18 42zM660 560q0 24 18 42t42 18t42 -18t18 -42t-18 -42t-42 -18t-42 18t-18 42zM660 720q0 24 18 42t42 18t42 -18t18 -42t-18 -42t-42 -18t-42 18t-18 42zM660 880q0 24 18 42t42 18t42 -18t18 -42t-18 -42t-42 -18t-42 18t-18 42z" />
<glyph unicode="&#xd9;" d="M20 240q0 24 18 42t42 18t42 -18t18 -42t-18 -42t-42 -18t-42 18t-18 42zM20 400q0 24 18 42t42 18t42 -18t18 -42t-18 -42t-42 -18t-42 18t-18 42zM20 560q0 24 18 42t42 18t42 -18t18 -42t-18 -42t-42 -18t-42 18t-18 42zM20 720q0 24 18 42t42 18t42 -18t18 -42 t-18 -42t-42 -18t-42 18t-18 42zM180 80q0 24 18 42t42 18t42 -18t18 -42t-18 -42t-42 -18t-42 18t-18 42zM180 1040q0 24 18 42t42 18t42 -18t18 -42t-18 -42t-42 -18t-42 18t-18 42zM340 80q0 24 18 42t42 18t42 -18t18 -42t-18 -42t-42 -18t-42 18t-18 42zM340 880 q0 24 18 42t42 18t42 -18t18 -42t-18 -42t-42 -18t-42 18t-18 42zM500 80q0 24 18 42t42 18t42 -18t18 -42t-18 -42t-42 -18t-42 18t-18 42zM660 240q0 24 18 42t42 18t42 -18t18 -42t-18 -42t-42 -18t-42 18t-18 42zM660 400q0 24 18 42t42 18t42 -18t18 -42t-18 -42 t-42 -18t-42 18t-18 42zM660 560q0 24 18 42t42 18t42 -18t18 -42t-18 -42t-42 -18t-42 18t-18 42zM660 720q0 24 18 42t42 18t42 -18t18 -42t-18 -42t-42 -18t-42 18t-18 42z" />
<glyph unicode="&#xda;" d="M20 240q0 24 18 42t42 18t42 -18t18 -42t-18 -42t-42 -18t-42 18t-18 42zM20 400q0 24 18 42t42 18t42 -18t18 -42t-18 -42t-42 -18t-42 18t-18 42zM20 560q0 24 18 42t42 18t42 -18t18 -42t-18 -42t-42 -18t-42 18t-18 42zM20 720q0 24 18 42t42 18t42 -18t18 -42 t-18 -42t-42 -18t-42 18t-18 42zM180 80q0 24 18 42t42 18t42 -18t18 -42t-18 -42t-42 -18t-42 18t-18 42zM340 80q0 24 18 42t42 18t42 -18t18 -42t-18 -42t-42 -18t-42 18t-18 42zM340 880q0 24 18 42t42 18t42 -18t18 -42t-18 -42t-42 -18t-42 18t-18 42zM500 80 q0 24 18 42t42 18t42 -18t18 -42t-18 -42t-42 -18t-42 18t-18 42zM500 1040q0 24 18 42t42 18t42 -18t18 -42t-18 -42t-42 -18t-42 18t-18 42zM660 240q0 24 18 42t42 18t42 -18t18 -42t-18 -42t-42 -18t-42 18t-18 42zM660 400q0 24 18 42t42 18t42 -18t18 -42t-18 -42 t-42 -18t-42 18t-18 42zM660 560q0 24 18 42t42 18t42 -18t18 -42t-18 -42t-42 -18t-42 18t-18 42zM660 720q0 24 18 42t42 18t42 -18t18 -42t-18 -42t-42 -18t-42 18t-18 42z" />
<glyph unicode="&#xdb;" d="M20 240q0 24 18 42t42 18t42 -18t18 -42t-18 -42t-42 -18t-42 18t-18 42zM20 400q0 24 18 42t42 18t42 -18t18 -42t-18 -42t-42 -18t-42 18t-18 42zM20 560q0 24 18 42t42 18t42 -18t18 -42t-18 -42t-42 -18t-42 18t-18 42zM180 80q0 24 18 42t42 18t42 -18t18 -42 t-18 -42t-42 -18t-42 18t-18 42zM180 880q0 24 18 42t42 18t42 -18t18 -42t-18 -42t-42 -18t-42 18t-18 42zM340 80q0 24 18 42t42 18t42 -18t18 -42t-18 -42t-42 -18t-42 18t-18 42zM340 1040q0 24 18 42t42 18t42 -18t18 -42t-18 -42t-42 -18t-42 18t-18 42zM500 80 q0 24 18 42t42 18t42 -18t18 -42t-18 -42t-42 -18t-42 18t-18 42zM500 880q0 24 18 42t42 18t42 -18t18 -42t-18 -42t-42 -18t-42 18t-18 42zM660 240q0 24 18 42t42 18t42 -18t18 -42t-18 -42t-42 -18t-42 18t-18 42zM660 400q0 24 18 42t42 18t42 -18t18 -42t-18 -42 t-42 -18t-42 18t-18 42zM660 560q0 24 18 42t42 18t42 -18t18 -42t-18 -42t-42 -18t-42 18t-18 42z" />
<glyph unicode="&#xdc;" d="M20 240q0 24 18 42t42 18t42 -18t18 -42t-18 -42t-42 -18t-42 18t-18 42zM20 400q0 24 18 42t42 18t42 -18t18 -42t-18 -42t-42 -18t-42 18t-18 42zM20 560q0 24 18 42t42 18t42 -18t18 -42t-18 -42t-42 -18t-42 18t-18 42zM20 720q0 24 18 42t42 18t42 -18t18 -42 t-18 -42t-42 -18t-42 18t-18 42zM180 80q0 24 18 42t42 18t42 -18t18 -42t-18 -42t-42 -18t-42 18t-18 42zM180 1040q0 24 18 42t42 18t42 -18t18 -42t-18 -42t-42 -18t-42 18t-18 42zM340 80q0 24 18 42t42 18t42 -18t18 -42t-18 -42t-42 -18t-42 18t-18 42zM500 80 q0 24 18 42t42 18t42 -18t18 -42t-18 -42t-42 -18t-42 18t-18 42zM500 1040q0 24 18 42t42 18t42 -18t18 -42t-18 -42t-42 -18t-42 18t-18 42zM660 240q0 24 18 42t42 18t42 -18t18 -42t-18 -42t-42 -18t-42 18t-18 42zM660 400q0 24 18 42t42 18t42 -18t18 -42t-18 -42 t-42 -18t-42 18t-18 42zM660 560q0 24 18 42t42 18t42 -18t18 -42t-18 -42t-42 -18t-42 18t-18 42zM660 720q0 24 18 42t42 18t42 -18t18 -42t-18 -42t-42 -18t-42 18t-18 42z" />
<glyph unicode="&#xdd;" d="M20 560q0 24 18 42t42 18t42 -18t18 -42t-18 -42t-42 -18t-42 18t-18 42zM20 720q0 24 18 42t42 18t42 -18t18 -42t-18 -42t-42 -18t-42 18t-18 42zM180 400q0 24 18 42t42 18t42 -18t18 -42t-18 -42t-42 -18t-42 18t-18 42zM340 80q0 24 18 42t42 18t42 -18t18 -42 t-18 -42t-42 -18t-42 18t-18 42zM340 240q0 24 18 42t42 18t42 -18t18 -42t-18 -42t-42 -18t-42 18t-18 42zM340 880q0 24 18 42t42 18t42 -18t18 -42t-18 -42t-42 -18t-42 18t-18 42zM500 400q0 24 18 42t42 18t42 -18t18 -42t-18 -42t-42 -18t-42 18t-18 42zM500 1040 q0 24 18 42t42 18t42 -18t18 -42t-18 -42t-42 -18t-42 18t-18 42zM660 560q0 24 18 42t42 18t42 -18t18 -42t-18 -42t-42 -18t-42 18t-18 42zM660 720q0 24 18 42t42 18t42 -18t18 -42t-18 -42t-42 -18t-42 18t-18 42z" />
<glyph unicode="&#xde;" d="M180 80q0 24 18 42t42 18t42 -18t18 -42t-18 -42t-42 -18t-42 18t-18 42zM180 240q0 24 18 42t42 18t42 -18t18 -42t-18 -42t-42 -18t-42 18t-18 42zM180 400q0 24 18 42t42 18t42 -18t18 -42t-18 -42t-42 -18t-42 18t-18 42zM180 560q0 24 18 42t42 18t42 -18t18 -42 t-18 -42t-42 -18t-42 18t-18 42zM180 720q0 24 18 42t42 18t42 -18t18 -42t-18 -42t-42 -18t-42 18t-18 42zM180 880q0 24 18 42t42 18t42 -18t18 -42t-18 -42t-42 -18t-42 18t-18 42zM180 1040q0 24 18 42t42 18t42 -18t18 -42t-18 -42t-42 -18t-42 18t-18 42zM340 400 q0 24 18 42t42 18t42 -18t18 -42t-18 -42t-42 -18t-42 18t-18 42zM340 560zM340 720zM340 880q0 24 18 42t42 18t42 -18t18 -42t-18 -42t-42 -18t-42 18t-18 42zM500 400q0 24 18 42t42 18t42 -18t18 -42t-18 -42t-42 -18t-42 18t-18 42zM500 880q0 24 18 42t42 18t42 -18 t18 -42t-18 -42t-42 -18t-42 18t-18 42zM660 560q0 24 18 42t42 18t42 -18t18 -42t-18 -42t-42 -18t-42 18t-18 42zM660 720q0 24 18 42t42 18t42 -18t18 -42t-18 -42t-42 -18t-42 18t-18 42z" />
<glyph unicode="&#xdf;" d="M20 80q0 24 18 42t42 18t42 -18t18 -42t-18 -42t-42 -18t-42 18t-18 42zM20 240q0 24 18 42t42 18t42 -18t18 -42t-18 -42t-42 -18t-42 18t-18 42zM20 400q0 24 18 42t42 18t42 -18t18 -42t-18 -42t-42 -18t-42 18t-18 42zM20 560q0 24 18 42t42 18t42 -18t18 -42 t-18 -42t-42 -18t-42 18t-18 42zM20 720q0 24 18 42t42 18t42 -18t18 -42t-18 -42t-42 -18t-42 18t-18 42zM20 880q0 24 18 42t42 18t42 -18t18 -42t-18 -42t-42 -18t-42 18t-18 42zM20 1040q0 24 18 42t42 18t42 -18t18 -42t-18 -42t-42 -18t-42 18t-18 42zM180 1040 q0 24 18 42t42 18t42 -18t18 -42t-18 -42t-42 -18t-42 18t-18 42zM340 80q0 24 18 42t42 18t42 -18t18 -42t-18 -42t-42 -18t-42 18t-18 42zM340 560q0 24 18 42t42 18t42 -18t18 -42t-18 -42t-42 -18t-42 18t-18 42zM340 1040q0 24 18 42t42 18t42 -18t18 -42t-18 -42 t-42 -18t-42 18t-18 42zM500 80q0 24 18 42t42 18t42 -18t18 -42t-18 -42t-42 -18t-42 18t-18 42zM500 560q0 24 18 42t42 18t42 -18t18 -42t-18 -42t-42 -18t-42 18t-18 42zM500 720q0 24 18 42t42 18t42 -18t18 -42t-18 -42t-42 -18t-42 18t-18 42zM500 880q0 24 18 42 t42 18t42 -18t18 -42t-18 -42t-42 -18t-42 18t-18 42zM660 240q0 24 18 42t42 18t42 -18t18 -42t-18 -42t-42 -18t-42 18t-18 42zM660 400q0 24 18 42t42 18t42 -18t18 -42t-18 -42t-42 -18t-42 18t-18 42z" />
<glyph unicode="&#xe0;" d="M20 240q0 24 18 42t42 18t42 -18t18 -42t-18 -42t-42 -18t-42 18t-18 42zM20 400q0 24 18 42t42 18t42 -18t18 -42t-18 -42t-42 -18t-42 18t-18 42zM20 560q0 24 18 42t42 18t42 -18t18 -42t-18 -42t-42 -18t-42 18t-18 42zM180 80q0 24 18 42t42 18t42 -18t18 -42 t-18 -42t-42 -18t-42 18t-18 42zM180 720q0 24 18 42t42 18t42 -18t18 -42t-18 -42t-42 -18t-42 18t-18 42zM180 1040q0 24 18 42t42 18t42 -18t18 -42t-18 -42t-42 -18t-42 18t-18 42zM340 80q0 24 18 42t42 18t42 -18t18 -42t-18 -42t-42 -18t-42 18t-18 42zM340 720 q0 24 18 42t42 18t42 -18t18 -42t-18 -42t-42 -18t-42 18t-18 42zM340 880q0 24 18 42t42 18t42 -18t18 -42t-18 -42t-42 -18t-42 18t-18 42zM500 240q0 24 18 42t42 18t42 -18t18 -42t-18 -42t-42 -18t-42 18t-18 42zM500 720q0 24 18 42t42 18t42 -18t18 -42t-18 -42 t-42 -18t-42 18t-18 42zM660 80q0 24 18 42t42 18t42 -18t18 -42t-18 -42t-42 -18t-42 18t-18 42zM660 240q0 24 18 42t42 18t42 -18t18 -42t-18 -42t-42 -18t-42 18t-18 42zM660 400q0 24 18 42t42 18t42 -18t18 -42t-18 -42t-42 -18t-42 18t-18 42zM660 560q0 24 18 42 t42 18t42 -18t18 -42t-18 -42t-42 -18t-42 18t-18 42zM660 720q0 24 18 42t42 18t42 -18t18 -42t-18 -42t-42 -18t-42 18t-18 42z" />
<glyph unicode="&#xe1;" d="M20 240q0 24 18 42t42 18t42 -18t18 -42t-18 -42t-42 -18t-42 18t-18 42zM20 400q0 24 18 42t42 18t42 -18t18 -42t-18 -42t-42 -18t-42 18t-18 42zM20 560q0 24 18 42t42 18t42 -18t18 -42t-18 -42t-42 -18t-42 18t-18 42zM180 80q0 24 18 42t42 18t42 -18t18 -42 t-18 -42t-42 -18t-42 18t-18 42zM180 720q0 24 18 42t42 18t42 -18t18 -42t-18 -42t-42 -18t-42 18t-18 42zM340 80q0 24 18 42t42 18t42 -18t18 -42t-18 -42t-42 -18t-42 18t-18 42zM340 720q0 24 18 42t42 18t42 -18t18 -42t-18 -42t-42 -18t-42 18t-18 42zM340 880 q0 24 18 42t42 18t42 -18t18 -42t-18 -42t-42 -18t-42 18t-18 42zM500 240q0 24 18 42t42 18t42 -18t18 -42t-18 -42t-42 -18t-42 18t-18 42zM500 720q0 24 18 42t42 18t42 -18t18 -42t-18 -42t-42 -18t-42 18t-18 42zM500 1040q0 24 18 42t42 18t42 -18t18 -42t-18 -42 t-42 -18t-42 18t-18 42zM660 80q0 24 18 42t42 18t42 -18t18 -42t-18 -42t-42 -18t-42 18t-18 42zM660 240q0 24 18 42t42 18t42 -18t18 -42t-18 -42t-42 -18t-42 18t-18 42zM660 400q0 24 18 42t42 18t42 -18t18 -42t-18 -42t-42 -18t-42 18t-18 42zM660 560q0 24 18 42 t42 18t42 -18t18 -42t-18 -42t-42 -18t-42 18t-18 42zM660 720q0 24 18 42t42 18t42 -18t18 -42t-18 -42t-42 -18t-42 18t-18 42z" />
<glyph unicode="&#xe2;" d="M20 240q0 24 18 42t42 18t42 -18t18 -42t-18 -42t-42 -18t-42 18t-18 42zM20 400q0 24 18 42t42 18t42 -18t18 -42t-18 -42t-42 -18t-42 18t-18 42zM20 560q0 24 18 42t42 18t42 -18t18 -42t-18 -42t-42 -18t-42 18t-18 42zM180 80q0 24 18 42t42 18t42 -18t18 -42 t-18 -42t-42 -18t-42 18t-18 42zM180 720q0 24 18 42t42 18t42 -18t18 -42t-18 -42t-42 -18t-42 18t-18 42zM180 880q0 24 18 42t42 18t42 -18t18 -42t-18 -42t-42 -18t-42 18t-18 42zM340 80q0 24 18 42t42 18t42 -18t18 -42t-18 -42t-42 -18t-42 18t-18 42zM340 720 q0 24 18 42t42 18t42 -18t18 -42t-18 -42t-42 -18t-42 18t-18 42zM340 1040q0 24 18 42t42 18t42 -18t18 -42t-18 -42t-42 -18t-42 18t-18 42zM500 240q0 24 18 42t42 18t42 -18t18 -42t-18 -42t-42 -18t-42 18t-18 42zM500 720q0 24 18 42t42 18t42 -18t18 -42t-18 -42 t-42 -18t-42 18t-18 42zM500 880q0 24 18 42t42 18t42 -18t18 -42t-18 -42t-42 -18t-42 18t-18 42zM660 80q0 24 18 42t42 18t42 -18t18 -42t-18 -42t-42 -18t-42 18t-18 42zM660 240q0 24 18 42t42 18t42 -18t18 -42t-18 -42t-42 -18t-42 18t-18 42zM660 400q0 24 18 42 t42 18t42 -18t18 -42t-18 -42t-42 -18t-42 18t-18 42zM660 560q0 24 18 42t42 18t42 -18t18 -42t-18 -42t-42 -18t-42 18t-18 42zM660 720q0 24 18 42t42 18t42 -18t18 -42t-18 -42t-42 -18t-42 18t-18 42z" />
<glyph unicode="&#xe3;" d="M20 240q0 24 18 42t42 18t42 -18t18 -42t-18 -42t-42 -18t-42 18t-18 42zM20 400q0 24 18 42t42 18t42 -18t18 -42t-18 -42t-42 -18t-42 18t-18 42zM20 560q0 24 18 42t42 18t42 -18t18 -42t-18 -42t-42 -18t-42 18t-18 42zM180 80q0 24 18 42t42 18t42 -18t18 -42 t-18 -42t-42 -18t-42 18t-18 42zM180 720q0 24 18 42t42 18t42 -18t18 -42t-18 -42t-42 -18t-42 18t-18 42zM180 1040q0 24 18 42t42 18t42 -18t18 -42t-18 -42t-42 -18t-42 18t-18 42zM340 80q0 24 18 42t42 18t42 -18t18 -42t-18 -42t-42 -18t-42 18t-18 42zM340 720 q0 24 18 42t42 18t42 -18t18 -42t-18 -42t-42 -18t-42 18t-18 42zM340 1040q0 24 18 42t42 18t42 -18t18 -42t-18 -42t-42 -18t-42 18t-18 42zM500 240q0 24 18 42t42 18t42 -18t18 -42t-18 -42t-42 -18t-42 18t-18 42zM500 720q0 24 18 42t42 18t42 -18t18 -42t-18 -42 t-42 -18t-42 18t-18 42zM500 1040q0 24 18 42t42 18t42 -18t18 -42t-18 -42t-42 -18t-42 18t-18 42zM660 80q0 24 18 42t42 18t42 -18t18 -42t-18 -42t-42 -18t-42 18t-18 42zM660 240q0 24 18 42t42 18t42 -18t18 -42t-18 -42t-42 -18t-42 18t-18 42zM660 400q0 24 18 42 t42 18t42 -18t18 -42t-18 -42t-42 -18t-42 18t-18 42zM660 560q0 24 18 42t42 18t42 -18t18 -42t-18 -42t-42 -18t-42 18t-18 42zM660 720q0 24 18 42t42 18t42 -18t18 -42t-18 -42t-42 -18t-42 18t-18 42z" />
<glyph unicode="&#xe4;" d="M20 240q0 24 18 42t42 18t42 -18t18 -42t-18 -42t-42 -18t-42 18t-18 42zM20 400q0 24 18 42t42 18t42 -18t18 -42t-18 -42t-42 -18t-42 18t-18 42zM20 560q0 24 18 42t42 18t42 -18t18 -42t-18 -42t-42 -18t-42 18t-18 42zM180 80q0 24 18 42t42 18t42 -18t18 -42 t-18 -42t-42 -18t-42 18t-18 42zM180 720q0 24 18 42t42 18t42 -18t18 -42t-18 -42t-42 -18t-42 18t-18 42zM180 1040q0 24 18 42t42 18t42 -18t18 -42t-18 -42t-42 -18t-42 18t-18 42zM340 80q0 24 18 42t42 18t42 -18t18 -42t-18 -42t-42 -18t-42 18t-18 42zM340 720 q0 24 18 42t42 18t42 -18t18 -42t-18 -42t-42 -18t-42 18t-18 42zM500 240q0 24 18 42t42 18t42 -18t18 -42t-18 -42t-42 -18t-42 18t-18 42zM500 720q0 24 18 42t42 18t42 -18t18 -42t-18 -42t-42 -18t-42 18t-18 42zM500 1040q0 24 18 42t42 18t42 -18t18 -42t-18 -42 t-42 -18t-42 18t-18 42zM660 80q0 24 18 42t42 18t42 -18t18 -42t-18 -42t-42 -18t-42 18t-18 42zM660 240q0 24 18 42t42 18t42 -18t18 -42t-18 -42t-42 -18t-42 18t-18 42zM660 400q0 24 18 42t42 18t42 -18t18 -42t-18 -42t-42 -18t-42 18t-18 42zM660 560q0 24 18 42 t42 18t42 -18t18 -42t-18 -42t-42 -18t-42 18t-18 42zM660 720q0 24 18 42t42 18t42 -18t18 -42t-18 -42t-42 -18t-42 18t-18 42z" />
<glyph unicode="&#xe5;" d="M20 240q0 24 18 42t42 18t42 -18t18 -42t-18 -42t-42 -18t-42 18t-18 42zM20 400q0 24 18 42t42 18t42 -18t18 -42t-18 -42t-42 -18t-42 18t-18 42zM20 560q0 24 18 42t42 18t42 -18t18 -42t-18 -42t-42 -18t-42 18t-18 42zM180 80q0 24 18 42t42 18t42 -18t18 -42 t-18 -42t-42 -18t-42 18t-18 42zM180 720q0 24 18 42t42 18t42 -18t18 -42t-18 -42t-42 -18t-42 18t-18 42zM180 1040q0 24 18 42t42 18t42 -18t18 -42t-18 -42t-42 -18t-42 18t-18 42zM340 80q0 24 18 42t42 18t42 -18t18 -42t-18 -42t-42 -18t-42 18t-18 42zM340 720 q0 24 18 42t42 18t42 -18t18 -42t-18 -42t-42 -18t-42 18t-18 42zM340 880q0 24 18 42t42 18t42 -18t18 -42t-18 -42t-42 -18t-42 18t-18 42zM340 1040q0 24 18 42t42 18t42 -18t18 -42t-18 -42t-42 -18t-42 18t-18 42zM500 240q0 24 18 42t42 18t42 -18t18 -42t-18 -42 t-42 -18t-42 18t-18 42zM500 720q0 24 18 42t42 18t42 -18t18 -42t-18 -42t-42 -18t-42 18t-18 42zM500 1040q0 24 18 42t42 18t42 -18t18 -42t-18 -42t-42 -18t-42 18t-18 42zM660 80q0 24 18 42t42 18t42 -18t18 -42t-18 -42t-42 -18t-42 18t-18 42zM660 240q0 24 18 42 t42 18t42 -18t18 -42t-18 -42t-42 -18t-42 18t-18 42zM660 400q0 24 18 42t42 18t42 -18t18 -42t-18 -42t-42 -18t-42 18t-18 42zM660 560q0 24 18 42t42 18t42 -18t18 -42t-18 -42t-42 -18t-42 18t-18 42zM660 720q0 24 18 42t42 18t42 -18t18 -42t-18 -42t-42 -18t-42 18 t-18 42z" />
<glyph unicode="&#xe6;" d="M20 240q0 24 18 42t42 18t42 -18t18 -42t-18 -42t-42 -18t-42 18t-18 42zM20 400q0 24 18 42t42 18t42 -18t18 -42t-18 -42t-42 -18t-42 18t-18 42zM20 560q0 24 18 42t42 18t42 -18t18 -42t-18 -42t-42 -18t-42 18t-18 42zM180 80q0 24 18 42t42 18t42 -18t18 -42 t-18 -42t-42 -18t-42 18t-18 42zM180 720q0 24 18 42t42 18t42 -18t18 -42t-18 -42t-42 -18t-42 18t-18 42zM340 240q0 24 18 42t42 18t42 -18t18 -42t-18 -42t-42 -18t-42 18t-18 42zM340 400q0 24 18 42t42 18t42 -18t18 -42t-18 -42t-42 -18t-42 18t-18 42zM340 560 q0 24 18 42t42 18t42 -18t18 -42t-18 -42t-42 -18t-42 18t-18 42zM340 720q0 24 18 42t42 18t42 -18t18 -42t-18 -42t-42 -18t-42 18t-18 42zM500 80q0 24 18 42t42 18t42 -18t18 -42t-18 -42t-42 -18t-42 18t-18 42zM500 400q0 24 18 42t42 18t42 -18t18 -42t-18 -42 t-42 -18t-42 18t-18 42zM500 720q0 24 18 42t42 18t42 -18t18 -42t-18 -42t-42 -18t-42 18t-18 42zM660 80q0 24 18 42t42 18t42 -18t18 -42t-18 -42t-42 -18t-42 18t-18 42zM660 400q0 24 18 42t42 18t42 -18t18 -42t-18 -42t-42 -18t-42 18t-18 42zM660 560q0 24 18 42 t42 18t42 -18t18 -42t-18 -42t-42 -18t-42 18t-18 42z" />
<glyph unicode="&#xe7;" d="M20 400q0 24 18 42t42 18t42 -18t18 -42t-18 -42t-42 -18t-42 18t-18 42zM20 560q0 24 18 42t42 18t42 -18t18 -42t-18 -42t-42 -18t-42 18t-18 42zM180 240q0 24 18 42t42 18t42 -18t18 -42t-18 -42t-42 -18t-42 18t-18 42zM180 720q0 24 18 42t42 18t42 -18t18 -42 t-18 -42t-42 -18t-42 18t-18 42zM340 80q0 24 18 42t42 18t42 -18t18 -42t-18 -42t-42 -18t-42 18t-18 42zM340 240q0 24 18 42t42 18t42 -18t18 -42t-18 -42t-42 -18t-42 18t-18 42zM340 720q0 24 18 42t42 18t42 -18t18 -42t-18 -42t-42 -18t-42 18t-18 42zM500 240 q0 24 18 42t42 18t42 -18t18 -42t-18 -42t-42 -18t-42 18t-18 42zM500 720q0 24 18 42t42 18t42 -18t18 -42t-18 -42t-42 -18t-42 18t-18 42zM660 400q0 24 18 42t42 18t42 -18t18 -42t-18 -42t-42 -18t-42 18t-18 42z" />
<glyph unicode="&#xe8;" d="M20 240q0 24 18 42t42 18t42 -18t18 -42t-18 -42t-42 -18t-42 18t-18 42zM20 400q0 24 18 42t42 18t42 -18t18 -42t-18 -42t-42 -18t-42 18t-18 42zM20 560q0 24 18 42t42 18t42 -18t18 -42t-18 -42t-42 -18t-42 18t-18 42zM180 80q0 24 18 42t42 18t42 -18t18 -42 t-18 -42t-42 -18t-42 18t-18 42zM180 400q0 24 18 42t42 18t42 -18t18 -42t-18 -42t-42 -18t-42 18t-18 42zM180 720q0 24 18 42t42 18t42 -18t18 -42t-18 -42t-42 -18t-42 18t-18 42zM180 1040q0 24 18 42t42 18t42 -18t18 -42t-18 -42t-42 -18t-42 18t-18 42zM340 80 q0 24 18 42t42 18t42 -18t18 -42t-18 -42t-42 -18t-42 18t-18 42zM340 400q0 24 18 42t42 18t42 -18t18 -42t-18 -42t-42 -18t-42 18t-18 42zM340 720q0 24 18 42t42 18t42 -18t18 -42t-18 -42t-42 -18t-42 18t-18 42zM340 880q0 24 18 42t42 18t42 -18t18 -42t-18 -42 t-42 -18t-42 18t-18 42zM500 80q0 24 18 42t42 18t42 -18t18 -42t-18 -42t-42 -18t-42 18t-18 42zM500 400q0 24 18 42t42 18t42 -18t18 -42t-18 -42t-42 -18t-42 18t-18 42zM500 720q0 24 18 42t42 18t42 -18t18 -42t-18 -42t-42 -18t-42 18t-18 42zM660 80q0 24 18 42 t42 18t42 -18t18 -42t-18 -42t-42 -18t-42 18t-18 42zM660 400q0 24 18 42t42 18t42 -18t18 -42t-18 -42t-42 -18t-42 18t-18 42zM660 560q0 24 18 42t42 18t42 -18t18 -42t-18 -42t-42 -18t-42 18t-18 42z" />
<glyph unicode="&#xe9;" d="M20 240q0 24 18 42t42 18t42 -18t18 -42t-18 -42t-42 -18t-42 18t-18 42zM20 400q0 24 18 42t42 18t42 -18t18 -42t-18 -42t-42 -18t-42 18t-18 42zM20 560q0 24 18 42t42 18t42 -18t18 -42t-18 -42t-42 -18t-42 18t-18 42zM180 80q0 24 18 42t42 18t42 -18t18 -42 t-18 -42t-42 -18t-42 18t-18 42zM180 400q0 24 18 42t42 18t42 -18t18 -42t-18 -42t-42 -18t-42 18t-18 42zM180 720q0 24 18 42t42 18t42 -18t18 -42t-18 -42t-42 -18t-42 18t-18 42zM340 80q0 24 18 42t42 18t42 -18t18 -42t-18 -42t-42 -18t-42 18t-18 42zM340 400 q0 24 18 42t42 18t42 -18t18 -42t-18 -42t-42 -18t-42 18t-18 42zM340 720q0 24 18 42t42 18t42 -18t18 -42t-18 -42t-42 -18t-42 18t-18 42zM340 880q0 24 18 42t42 18t42 -18t18 -42t-18 -42t-42 -18t-42 18t-18 42zM500 80q0 24 18 42t42 18t42 -18t18 -42t-18 -42 t-42 -18t-42 18t-18 42zM500 400q0 24 18 42t42 18t42 -18t18 -42t-18 -42t-42 -18t-42 18t-18 42zM500 720q0 24 18 42t42 18t42 -18t18 -42t-18 -42t-42 -18t-42 18t-18 42zM500 1040q0 24 18 42t42 18t42 -18t18 -42t-18 -42t-42 -18t-42 18t-18 42zM660 80q0 24 18 42 t42 18t42 -18t18 -42t-18 -42t-42 -18t-42 18t-18 42zM660 400q0 24 18 42t42 18t42 -18t18 -42t-18 -42t-42 -18t-42 18t-18 42zM660 560q0 24 18 42t42 18t42 -18t18 -42t-18 -42t-42 -18t-42 18t-18 42z" />
<glyph unicode="&#xea;" d="M20 240q0 24 18 42t42 18t42 -18t18 -42t-18 -42t-42 -18t-42 18t-18 42zM20 400q0 24 18 42t42 18t42 -18t18 -42t-18 -42t-42 -18t-42 18t-18 42zM20 560q0 24 18 42t42 18t42 -18t18 -42t-18 -42t-42 -18t-42 18t-18 42zM180 80q0 24 18 42t42 18t42 -18t18 -42 t-18 -42t-42 -18t-42 18t-18 42zM180 400q0 24 18 42t42 18t42 -18t18 -42t-18 -42t-42 -18t-42 18t-18 42zM180 720q0 24 18 42t42 18t42 -18t18 -42t-18 -42t-42 -18t-42 18t-18 42zM180 880q0 24 18 42t42 18t42 -18t18 -42t-18 -42t-42 -18t-42 18t-18 42zM340 80 q0 24 18 42t42 18t42 -18t18 -42t-18 -42t-42 -18t-42 18t-18 42zM340 400q0 24 18 42t42 18t42 -18t18 -42t-18 -42t-42 -18t-42 18t-18 42zM340 720q0 24 18 42t42 18t42 -18t18 -42t-18 -42t-42 -18t-42 18t-18 42zM340 1040q0 24 18 42t42 18t42 -18t18 -42t-18 -42 t-42 -18t-42 18t-18 42zM500 80q0 24 18 42t42 18t42 -18t18 -42t-18 -42t-42 -18t-42 18t-18 42zM500 400q0 24 18 42t42 18t42 -18t18 -42t-18 -42t-42 -18t-42 18t-18 42zM500 720q0 24 18 42t42 18t42 -18t18 -42t-18 -42t-42 -18t-42 18t-18 42zM500 880q0 24 18 42 t42 18t42 -18t18 -42t-18 -42t-42 -18t-42 18t-18 42zM660 80q0 24 18 42t42 18t42 -18t18 -42t-18 -42t-42 -18t-42 18t-18 42zM660 400q0 24 18 42t42 18t42 -18t18 -42t-18 -42t-42 -18t-42 18t-18 42zM660 560q0 24 18 42t42 18t42 -18t18 -42t-18 -42t-42 -18t-42 18 t-18 42z" />
<glyph unicode="&#xeb;" d="M20 240q0 24 18 42t42 18t42 -18t18 -42t-18 -42t-42 -18t-42 18t-18 42zM20 400q0 24 18 42t42 18t42 -18t18 -42t-18 -42t-42 -18t-42 18t-18 42zM20 560q0 24 18 42t42 18t42 -18t18 -42t-18 -42t-42 -18t-42 18t-18 42zM180 80q0 24 18 42t42 18t42 -18t18 -42 t-18 -42t-42 -18t-42 18t-18 42zM180 400q0 24 18 42t42 18t42 -18t18 -42t-18 -42t-42 -18t-42 18t-18 42zM180 720q0 24 18 42t42 18t42 -18t18 -42t-18 -42t-42 -18t-42 18t-18 42zM180 1040q0 24 18 42t42 18t42 -18t18 -42t-18 -42t-42 -18t-42 18t-18 42zM340 80 q0 24 18 42t42 18t42 -18t18 -42t-18 -42t-42 -18t-42 18t-18 42zM340 400q0 24 18 42t42 18t42 -18t18 -42t-18 -42t-42 -18t-42 18t-18 42zM340 720q0 24 18 42t42 18t42 -18t18 -42t-18 -42t-42 -18t-42 18t-18 42zM500 80q0 24 18 42t42 18t42 -18t18 -42t-18 -42 t-42 -18t-42 18t-18 42zM500 400q0 24 18 42t42 18t42 -18t18 -42t-18 -42t-42 -18t-42 18t-18 42zM500 720q0 24 18 42t42 18t42 -18t18 -42t-18 -42t-42 -18t-42 18t-18 42zM500 1040q0 24 18 42t42 18t42 -18t18 -42t-18 -42t-42 -18t-42 18t-18 42zM660 80q0 24 18 42 t42 18t42 -18t18 -42t-18 -42t-42 -18t-42 18t-18 42zM660 400q0 24 18 42t42 18t42 -18t18 -42t-18 -42t-42 -18t-42 18t-18 42zM660 560q0 24 18 42t42 18t42 -18t18 -42t-18 -42t-42 -18t-42 18t-18 42z" />
<glyph unicode="&#xec;" d="M20 1040q0 24 18 42t42 18t42 -18t18 -42t-18 -42t-42 -18t-42 18t-18 42zM180 240q0 24 18 42t42 18t42 -18t18 -42t-18 -42t-42 -18t-42 18t-18 42zM180 400q0 24 18 42t42 18t42 -18t18 -42t-18 -42t-42 -18t-42 18t-18 42zM180 560q0 24 18 42t42 18t42 -18t18 -42 t-18 -42t-42 -18t-42 18t-18 42zM180 880q0 24 18 42t42 18t42 -18t18 -42t-18 -42t-42 -18t-42 18t-18 42zM340 80q0 24 18 42t42 18t42 -18t18 -42t-18 -42t-42 -18t-42 18t-18 42zM500 80q0 24 18 42t42 18t42 -18t18 -42t-18 -42t-42 -18t-42 18t-18 42z" />
<glyph unicode="&#xed;" d="M180 240q0 24 18 42t42 18t42 -18t18 -42t-18 -42t-42 -18t-42 18t-18 42zM180 400q0 24 18 42t42 18t42 -18t18 -42t-18 -42t-42 -18t-42 18t-18 42zM180 560q0 24 18 42t42 18t42 -18t18 -42t-18 -42t-42 -18t-42 18t-18 42zM180 880q0 24 18 42t42 18t42 -18t18 -42 t-18 -42t-42 -18t-42 18t-18 42zM340 80q0 24 18 42t42 18t42 -18t18 -42t-18 -42t-42 -18t-42 18t-18 42zM340 1040q0 24 18 42t42 18t42 -18t18 -42t-18 -42t-42 -18t-42 18t-18 42zM500 80q0 24 18 42t42 18t42 -18t18 -42t-18 -42t-42 -18t-42 18t-18 42z" />
<glyph unicode="&#xee;" d="M20 880q0 24 18 42t42 18t42 -18t18 -42t-18 -42t-42 -18t-42 18t-18 42zM180 240q0 24 18 42t42 18t42 -18t18 -42t-18 -42t-42 -18t-42 18t-18 42zM180 400q0 24 18 42t42 18t42 -18t18 -42t-18 -42t-42 -18t-42 18t-18 42zM180 560q0 24 18 42t42 18t42 -18t18 -42 t-18 -42t-42 -18t-42 18t-18 42zM180 1040q0 24 18 42t42 18t42 -18t18 -42t-18 -42t-42 -18t-42 18t-18 42zM340 80q0 24 18 42t42 18t42 -18t18 -42t-18 -42t-42 -18t-42 18t-18 42zM340 880q0 24 18 42t42 18t42 -18t18 -42t-18 -42t-42 -18t-42 18t-18 42zM500 80 q0 24 18 42t42 18t42 -18t18 -42t-18 -42t-42 -18t-42 18t-18 42z" />
<glyph unicode="&#xef;" d="M20 1040q0 24 18 42t42 18t42 -18t18 -42t-18 -42t-42 -18t-42 18t-18 42zM180 240q0 24 18 42t42 18t42 -18t18 -42t-18 -42t-42 -18t-42 18t-18 42zM180 400q0 24 18 42t42 18t42 -18t18 -42t-18 -42t-42 -18t-42 18t-18 42zM180 560q0 24 18 42t42 18t42 -18t18 -42 t-18 -42t-42 -18t-42 18t-18 42zM180 720q0 24 18 42t42 18t42 -18t18 -42t-18 -42t-42 -18t-42 18t-18 42zM340 80q0 24 18 42t42 18t42 -18t18 -42t-18 -42t-42 -18t-42 18t-18 42zM340 1040q0 24 18 42t42 18t42 -18t18 -42t-18 -42t-42 -18t-42 18t-18 42zM500 80 q0 24 18 42t42 18t42 -18t18 -42t-18 -42t-42 -18t-42 18t-18 42z" />
<glyph unicode="&#xf0;" d="M20 240q0 24 18 42t42 18t42 -18t18 -42t-18 -42t-42 -18t-42 18t-18 42zM20 400q0 24 18 42t42 18t42 -18t18 -42t-18 -42t-42 -18t-42 18t-18 42zM20 560q0 24 18 42t42 18t42 -18t18 -42t-18 -42t-42 -18t-42 18t-18 42zM180 80q0 24 18 42t42 18t42 -18t18 -42 t-18 -42t-42 -18t-42 18t-18 42zM180 720q0 24 18 42t42 18t42 -18t18 -42t-18 -42t-42 -18t-42 18t-18 42zM180 1040q0 24 18 42t42 18t42 -18t18 -42t-18 -42t-42 -18t-42 18t-18 42zM340 80q0 24 18 42t42 18t42 -18t18 -42t-18 -42t-42 -18t-42 18t-18 42zM340 720 q0 24 18 42t42 18t42 -18t18 -42t-18 -42t-42 -18t-42 18t-18 42zM340 880q0 24 18 42t42 18t42 -18t18 -42t-18 -42t-42 -18t-42 18t-18 42zM340 1040q0 24 18 42t42 18t42 -18t18 -42t-18 -42t-42 -18t-42 18t-18 42zM500 80q0 24 18 42t42 18t42 -18t18 -42t-18 -42 t-42 -18t-42 18t-18 42zM500 720q0 24 18 42t42 18t42 -18t18 -42t-18 -42t-42 -18t-42 18t-18 42zM660 240q0 24 18 42t42 18t42 -18t18 -42t-18 -42t-42 -18t-42 18t-18 42zM660 400q0 24 18 42t42 18t42 -18t18 -42t-18 -42t-42 -18t-42 18t-18 42zM660 560q0 24 18 42 t42 18t42 -18t18 -42t-18 -42t-42 -18t-42 18t-18 42z" />
<glyph unicode="&#xf1;" d="M20 80q0 24 18 42t42 18t42 -18t18 -42t-18 -42t-42 -18t-42 18t-18 42zM20 240q0 24 18 42t42 18t42 -18t18 -42t-18 -42t-42 -18t-42 18t-18 42zM20 400q0 24 18 42t42 18t42 -18t18 -42t-18 -42t-42 -18t-42 18t-18 42zM20 560q0 24 18 42t42 18t42 -18t18 -42 t-18 -42t-42 -18t-42 18t-18 42zM20 720q0 24 18 42t42 18t42 -18t18 -42t-18 -42t-42 -18t-42 18t-18 42zM20 1040q0 24 18 42t42 18t42 -18t18 -42t-18 -42t-42 -18t-42 18t-18 42zM180 720q0 24 18 42t42 18t42 -18t18 -42t-18 -42t-42 -18t-42 18t-18 42zM180 1040 q0 24 18 42t42 18t42 -18t18 -42t-18 -42t-42 -18t-42 18t-18 42zM340 720q0 24 18 42t42 18t42 -18t18 -42t-18 -42t-42 -18t-42 18t-18 42zM340 1040q0 24 18 42t42 18t42 -18t18 -42t-18 -42t-42 -18t-42 18t-18 42zM500 720q0 24 18 42t42 18t42 -18t18 -42t-18 -42 t-42 -18t-42 18t-18 42zM500 1040q0 24 18 42t42 18t42 -18t18 -42t-18 -42t-42 -18t-42 18t-18 42zM660 80q0 24 18 42t42 18t42 -18t18 -42t-18 -42t-42 -18t-42 18t-18 42zM660 240q0 24 18 42t42 18t42 -18t18 -42t-18 -42t-42 -18t-42 18t-18 42zM660 400q0 24 18 42 t42 18t42 -18t18 -42t-18 -42t-42 -18t-42 18t-18 42zM660 560q0 24 18 42t42 18t42 -18t18 -42t-18 -42t-42 -18t-42 18t-18 42zM660 1040q0 24 18 42t42 18t42 -18t18 -42t-18 -42t-42 -18t-42 18t-18 42z" />
<glyph unicode="&#xf2;" d="M20 240q0 24 18 42t42 18t42 -18t18 -42t-18 -42t-42 -18t-42 18t-18 42zM20 400q0 24 18 42t42 18t42 -18t18 -42t-18 -42t-42 -18t-42 18t-18 42zM20 560q0 24 18 42t42 18t42 -18t18 -42t-18 -42t-42 -18t-42 18t-18 42zM180 80q0 24 18 42t42 18t42 -18t18 -42 t-18 -42t-42 -18t-42 18t-18 42zM180 720q0 24 18 42t42 18t42 -18t18 -42t-18 -42t-42 -18t-42 18t-18 42zM180 1040q0 24 18 42t42 18t42 -18t18 -42t-18 -42t-42 -18t-42 18t-18 42zM340 80q0 24 18 42t42 18t42 -18t18 -42t-18 -42t-42 -18t-42 18t-18 42zM340 720 q0 24 18 42t42 18t42 -18t18 -42t-18 -42t-42 -18t-42 18t-18 42zM340 880q0 24 18 42t42 18t42 -18t18 -42t-18 -42t-42 -18t-42 18t-18 42zM500 80q0 24 18 42t42 18t42 -18t18 -42t-18 -42t-42 -18t-42 18t-18 42zM500 720q0 24 18 42t42 18t42 -18t18 -42t-18 -42 t-42 -18t-42 18t-18 42zM660 240q0 24 18 42t42 18t42 -18t18 -42t-18 -42t-42 -18t-42 18t-18 42zM660 400q0 24 18 42t42 18t42 -18t18 -42t-18 -42t-42 -18t-42 18t-18 42zM660 560q0 24 18 42t42 18t42 -18t18 -42t-18 -42t-42 -18t-42 18t-18 42z" />
<glyph unicode="&#xf3;" d="M20 240q0 24 18 42t42 18t42 -18t18 -42t-18 -42t-42 -18t-42 18t-18 42zM20 400q0 24 18 42t42 18t42 -18t18 -42t-18 -42t-42 -18t-42 18t-18 42zM20 560q0 24 18 42t42 18t42 -18t18 -42t-18 -42t-42 -18t-42 18t-18 42zM180 80q0 24 18 42t42 18t42 -18t18 -42 t-18 -42t-42 -18t-42 18t-18 42zM180 720q0 24 18 42t42 18t42 -18t18 -42t-18 -42t-42 -18t-42 18t-18 42zM340 80q0 24 18 42t42 18t42 -18t18 -42t-18 -42t-42 -18t-42 18t-18 42zM340 720q0 24 18 42t42 18t42 -18t18 -42t-18 -42t-42 -18t-42 18t-18 42zM340 880 q0 24 18 42t42 18t42 -18t18 -42t-18 -42t-42 -18t-42 18t-18 42zM500 80q0 24 18 42t42 18t42 -18t18 -42t-18 -42t-42 -18t-42 18t-18 42zM500 720q0 24 18 42t42 18t42 -18t18 -42t-18 -42t-42 -18t-42 18t-18 42zM500 1040q0 24 18 42t42 18t42 -18t18 -42t-18 -42 t-42 -18t-42 18t-18 42zM660 240q0 24 18 42t42 18t42 -18t18 -42t-18 -42t-42 -18t-42 18t-18 42zM660 400q0 24 18 42t42 18t42 -18t18 -42t-18 -42t-42 -18t-42 18t-18 42zM660 560q0 24 18 42t42 18t42 -18t18 -42t-18 -42t-42 -18t-42 18t-18 42z" />
<glyph unicode="&#xf4;" d="M20 240q0 24 18 42t42 18t42 -18t18 -42t-18 -42t-42 -18t-42 18t-18 42zM20 400q0 24 18 42t42 18t42 -18t18 -42t-18 -42t-42 -18t-42 18t-18 42zM20 560q0 24 18 42t42 18t42 -18t18 -42t-18 -42t-42 -18t-42 18t-18 42zM180 80q0 24 18 42t42 18t42 -18t18 -42 t-18 -42t-42 -18t-42 18t-18 42zM180 720q0 24 18 42t42 18t42 -18t18 -42t-18 -42t-42 -18t-42 18t-18 42zM180 880q0 24 18 42t42 18t42 -18t18 -42t-18 -42t-42 -18t-42 18t-18 42zM340 80q0 24 18 42t42 18t42 -18t18 -42t-18 -42t-42 -18t-42 18t-18 42zM340 720 q0 24 18 42t42 18t42 -18t18 -42t-18 -42t-42 -18t-42 18t-18 42zM340 1040q0 24 18 42t42 18t42 -18t18 -42t-18 -42t-42 -18t-42 18t-18 42zM500 80q0 24 18 42t42 18t42 -18t18 -42t-18 -42t-42 -18t-42 18t-18 42zM500 720q0 24 18 42t42 18t42 -18t18 -42t-18 -42 t-42 -18t-42 18t-18 42zM500 880q0 24 18 42t42 18t42 -18t18 -42t-18 -42t-42 -18t-42 18t-18 42zM660 240q0 24 18 42t42 18t42 -18t18 -42t-18 -42t-42 -18t-42 18t-18 42zM660 400q0 24 18 42t42 18t42 -18t18 -42t-18 -42t-42 -18t-42 18t-18 42zM660 560q0 24 18 42 t42 18t42 -18t18 -42t-18 -42t-42 -18t-42 18t-18 42z" />
<glyph unicode="&#xf5;" d="M20 240q0 24 18 42t42 18t42 -18t18 -42t-18 -42t-42 -18t-42 18t-18 42zM20 400q0 24 18 42t42 18t42 -18t18 -42t-18 -42t-42 -18t-42 18t-18 42zM20 560q0 24 18 42t42 18t42 -18t18 -42t-18 -42t-42 -18t-42 18t-18 42zM180 80q0 24 18 42t42 18t42 -18t18 -42 t-18 -42t-42 -18t-42 18t-18 42zM180 720q0 24 18 42t42 18t42 -18t18 -42t-18 -42t-42 -18t-42 18t-18 42zM180 1040q0 24 18 42t42 18t42 -18t18 -42t-18 -42t-42 -18t-42 18t-18 42zM340 80q0 24 18 42t42 18t42 -18t18 -42t-18 -42t-42 -18t-42 18t-18 42zM340 720 q0 24 18 42t42 18t42 -18t18 -42t-18 -42t-42 -18t-42 18t-18 42zM340 1040q0 24 18 42t42 18t42 -18t18 -42t-18 -42t-42 -18t-42 18t-18 42zM500 80q0 24 18 42t42 18t42 -18t18 -42t-18 -42t-42 -18t-42 18t-18 42zM500 720q0 24 18 42t42 18t42 -18t18 -42t-18 -42 t-42 -18t-42 18t-18 42zM500 1040q0 24 18 42t42 18t42 -18t18 -42t-18 -42t-42 -18t-42 18t-18 42zM660 240q0 24 18 42t42 18t42 -18t18 -42t-18 -42t-42 -18t-42 18t-18 42zM660 400q0 24 18 42t42 18t42 -18t18 -42t-18 -42t-42 -18t-42 18t-18 42zM660 560q0 24 18 42 t42 18t42 -18t18 -42t-18 -42t-42 -18t-42 18t-18 42z" />
<glyph unicode="&#xf6;" d="M20 240q0 24 18 42t42 18t42 -18t18 -42t-18 -42t-42 -18t-42 18t-18 42zM20 400q0 24 18 42t42 18t42 -18t18 -42t-18 -42t-42 -18t-42 18t-18 42zM20 560q0 24 18 42t42 18t42 -18t18 -42t-18 -42t-42 -18t-42 18t-18 42zM180 80q0 24 18 42t42 18t42 -18t18 -42 t-18 -42t-42 -18t-42 18t-18 42zM180 720q0 24 18 42t42 18t42 -18t18 -42t-18 -42t-42 -18t-42 18t-18 42zM180 1040q0 24 18 42t42 18t42 -18t18 -42t-18 -42t-42 -18t-42 18t-18 42zM340 80q0 24 18 42t42 18t42 -18t18 -42t-18 -42t-42 -18t-42 18t-18 42zM340 720 q0 24 18 42t42 18t42 -18t18 -42t-18 -42t-42 -18t-42 18t-18 42zM500 80q0 24 18 42t42 18t42 -18t18 -42t-18 -42t-42 -18t-42 18t-18 42zM500 720q0 24 18 42t42 18t42 -18t18 -42t-18 -42t-42 -18t-42 18t-18 42zM500 1040q0 24 18 42t42 18t42 -18t18 -42t-18 -42 t-42 -18t-42 18t-18 42zM660 240q0 24 18 42t42 18t42 -18t18 -42t-18 -42t-42 -18t-42 18t-18 42zM660 400q0 24 18 42t42 18t42 -18t18 -42t-18 -42t-42 -18t-42 18t-18 42zM660 560q0 24 18 42t42 18t42 -18t18 -42t-18 -42t-42 -18t-42 18t-18 42z" />
<glyph unicode="&#xf7;" d="M20 560q0 24 18 42t42 18t42 -18t18 -42t-18 -42t-42 -18t-42 18t-18 42zM180 560q0 24 18 42t42 18t42 -18t18 -42t-18 -42t-42 -18t-42 18t-18 42zM340 240q0 24 18 42t42 18t42 -18t18 -42t-18 -42t-42 -18t-42 18t-18 42zM340 560q0 24 18 42t42 18t42 -18t18 -42 t-18 -42t-42 -18t-42 18t-18 42zM340 880q0 24 18 42t42 18t42 -18t18 -42t-18 -42t-42 -18t-42 18t-18 42zM500 560q0 24 18 42t42 18t42 -18t18 -42t-18 -42t-42 -18t-42 18t-18 42zM660 560q0 24 18 42t42 18t42 -18t18 -42t-18 -42t-42 -18t-42 18t-18 42z" />
<glyph unicode="&#xf8;" d="M20 400q0 24 18 42t42 18t42 -18t18 -42t-18 -42t-42 -18t-42 18t-18 42zM20 560q0 24 18 42t42 18t42 -18t18 -42t-18 -42t-42 -18t-42 18t-18 42zM20 720q0 24 18 42t42 18t42 -18t18 -42t-18 -42t-42 -18t-42 18t-18 42zM180 80q0 24 18 42t42 18t42 -18t18 -42 t-18 -42t-42 -18t-42 18t-18 42zM180 240q0 24 18 42t42 18t42 -18t18 -42t-18 -42t-42 -18t-42 18t-18 42zM180 880q0 24 18 42t42 18t42 -18t18 -42t-18 -42t-42 -18t-42 18t-18 42zM340 240q0 24 18 42t42 18t42 -18t18 -42t-18 -42t-42 -18t-42 18t-18 42zM340 400 q0 24 18 42t42 18t42 -18t18 -42t-18 -42t-42 -18t-42 18t-18 42zM340 560q0 24 18 42t42 18t42 -18t18 -42t-18 -42t-42 -18t-42 18t-18 42zM340 720q0 24 18 42t42 18t42 -18t18 -42t-18 -42t-42 -18t-42 18t-18 42zM340 880q0 24 18 42t42 18t42 -18t18 -42t-18 -42 t-42 -18t-42 18t-18 42zM500 240q0 24 18 42t42 18t42 -18t18 -42t-18 -42t-42 -18t-42 18t-18 42zM500 880q0 24 18 42t42 18t42 -18t18 -42t-18 -42t-42 -18t-42 18t-18 42zM500 1040q0 24 18 42t42 18t42 -18t18 -42t-18 -42t-42 -18t-42 18t-18 42zM660 400q0 24 18 42 t42 18t42 -18t18 -42t-18 -42t-42 -18t-42 18t-18 42zM660 560q0 24 18 42t42 18t42 -18t18 -42t-18 -42t-42 -18t-42 18t-18 42zM660 720q0 24 18 42t42 18t42 -18t18 -42t-18 -42t-42 -18t-42 18t-18 42z" />
<glyph unicode="&#xf9;" d="M20 240q0 24 18 42t42 18t42 -18t18 -42t-18 -42t-42 -18t-42 18t-18 42zM20 400q0 24 18 42t42 18t42 -18t18 -42t-18 -42t-42 -18t-42 18t-18 42zM20 560q0 24 18 42t42 18t42 -18t18 -42t-18 -42t-42 -18t-42 18t-18 42zM20 720q0 24 18 42t42 18t42 -18t18 -42 t-18 -42t-42 -18t-42 18t-18 42zM180 80q0 24 18 42t42 18t42 -18t18 -42t-18 -42t-42 -18t-42 18t-18 42zM180 1040q0 24 18 42t42 18t42 -18t18 -42t-18 -42t-42 -18t-42 18t-18 42zM340 80q0 24 18 42t42 18t42 -18t18 -42t-18 -42t-42 -18t-42 18t-18 42zM340 880 q0 24 18 42t42 18t42 -18t18 -42t-18 -42t-42 -18t-42 18t-18 42zM500 80q0 24 18 42t42 18t42 -18t18 -42t-18 -42t-42 -18t-42 18t-18 42zM660 80q0 24 18 42t42 18t42 -18t18 -42t-18 -42t-42 -18t-42 18t-18 42zM660 240q0 24 18 42t42 18t42 -18t18 -42t-18 -42 t-42 -18t-42 18t-18 42zM660 400q0 24 18 42t42 18t42 -18t18 -42t-18 -42t-42 -18t-42 18t-18 42zM660 560q0 24 18 42t42 18t42 -18t18 -42t-18 -42t-42 -18t-42 18t-18 42zM660 720q0 24 18 42t42 18t42 -18t18 -42t-18 -42t-42 -18t-42 18t-18 42z" />
<glyph unicode="&#xfa;" d="M20 240q0 24 18 42t42 18t42 -18t18 -42t-18 -42t-42 -18t-42 18t-18 42zM20 400q0 24 18 42t42 18t42 -18t18 -42t-18 -42t-42 -18t-42 18t-18 42zM20 560q0 24 18 42t42 18t42 -18t18 -42t-18 -42t-42 -18t-42 18t-18 42zM20 720q0 24 18 42t42 18t42 -18t18 -42 t-18 -42t-42 -18t-42 18t-18 42zM180 80q0 24 18 42t42 18t42 -18t18 -42t-18 -42t-42 -18t-42 18t-18 42zM340 80q0 24 18 42t42 18t42 -18t18 -42t-18 -42t-42 -18t-42 18t-18 42zM340 880q0 24 18 42t42 18t42 -18t18 -42t-18 -42t-42 -18t-42 18t-18 42zM500 80 q0 24 18 42t42 18t42 -18t18 -42t-18 -42t-42 -18t-42 18t-18 42zM500 1040q0 24 18 42t42 18t42 -18t18 -42t-18 -42t-42 -18t-42 18t-18 42zM660 80q0 24 18 42t42 18t42 -18t18 -42t-18 -42t-42 -18t-42 18t-18 42zM660 240q0 24 18 42t42 18t42 -18t18 -42t-18 -42 t-42 -18t-42 18t-18 42zM660 400q0 24 18 42t42 18t42 -18t18 -42t-18 -42t-42 -18t-42 18t-18 42zM660 560q0 24 18 42t42 18t42 -18t18 -42t-18 -42t-42 -18t-42 18t-18 42zM660 720q0 24 18 42t42 18t42 -18t18 -42t-18 -42t-42 -18t-42 18t-18 42z" />
<glyph unicode="&#xfb;" d="M20 240q0 24 18 42t42 18t42 -18t18 -42t-18 -42t-42 -18t-42 18t-18 42zM20 400q0 24 18 42t42 18t42 -18t18 -42t-18 -42t-42 -18t-42 18t-18 42zM20 560q0 24 18 42t42 18t42 -18t18 -42t-18 -42t-42 -18t-42 18t-18 42zM180 80q0 24 18 42t42 18t42 -18t18 -42 t-18 -42t-42 -18t-42 18t-18 42zM180 880q0 24 18 42t42 18t42 -18t18 -42t-18 -42t-42 -18t-42 18t-18 42zM340 80q0 24 18 42t42 18t42 -18t18 -42t-18 -42t-42 -18t-42 18t-18 42zM340 1040q0 24 18 42t42 18t42 -18t18 -42t-18 -42t-42 -18t-42 18t-18 42zM500 80 q0 24 18 42t42 18t42 -18t18 -42t-18 -42t-42 -18t-42 18t-18 42zM500 880q0 24 18 42t42 18t42 -18t18 -42t-18 -42t-42 -18t-42 18t-18 42zM660 80q0 24 18 42t42 18t42 -18t18 -42t-18 -42t-42 -18t-42 18t-18 42zM660 240q0 24 18 42t42 18t42 -18t18 -42t-18 -42 t-42 -18t-42 18t-18 42zM660 400q0 24 18 42t42 18t42 -18t18 -42t-18 -42t-42 -18t-42 18t-18 42zM660 560q0 24 18 42t42 18t42 -18t18 -42t-18 -42t-42 -18t-42 18t-18 42z" />
<glyph unicode="&#xfc;" d="M20 240q0 24 18 42t42 18t42 -18t18 -42t-18 -42t-42 -18t-42 18t-18 42zM20 400q0 24 18 42t42 18t42 -18t18 -42t-18 -42t-42 -18t-42 18t-18 42zM20 560q0 24 18 42t42 18t42 -18t18 -42t-18 -42t-42 -18t-42 18t-18 42zM20 720q0 24 18 42t42 18t42 -18t18 -42 t-18 -42t-42 -18t-42 18t-18 42zM180 80q0 24 18 42t42 18t42 -18t18 -42t-18 -42t-42 -18t-42 18t-18 42zM180 1040q0 24 18 42t42 18t42 -18t18 -42t-18 -42t-42 -18t-42 18t-18 42zM340 80q0 24 18 42t42 18t42 -18t18 -42t-18 -42t-42 -18t-42 18t-18 42zM500 80 q0 24 18 42t42 18t42 -18t18 -42t-18 -42t-42 -18t-42 18t-18 42zM500 1040q0 24 18 42t42 18t42 -18t18 -42t-18 -42t-42 -18t-42 18t-18 42zM660 80q0 24 18 42t42 18t42 -18t18 -42t-18 -42t-42 -18t-42 18t-18 42zM660 240q0 24 18 42t42 18t42 -18t18 -42t-18 -42 t-42 -18t-42 18t-18 42zM660 400q0 24 18 42t42 18t42 -18t18 -42t-18 -42t-42 -18t-42 18t-18 42zM660 560q0 24 18 42t42 18t42 -18t18 -42t-18 -42t-42 -18t-42 18t-18 42zM660 720q0 24 18 42t42 18t42 -18t18 -42t-18 -42t-42 -18t-42 18t-18 42z" />
<glyph unicode="&#xfd;" d="M20 560q0 24 18 42t42 18t42 -18t18 -42t-18 -42t-42 -18t-42 18t-18 42zM20 720q0 24 18 42t42 18t42 -18t18 -42t-18 -42t-42 -18t-42 18t-18 42zM180 80q0 24 18 42t42 18t42 -18t18 -42t-18 -42t-42 -18t-42 18t-18 42zM180 400q0 24 18 42t42 18t42 -18t18 -42 t-18 -42t-42 -18t-42 18t-18 42zM340 80q0 24 18 42t42 18t42 -18t18 -42t-18 -42t-42 -18t-42 18t-18 42zM340 400q0 24 18 42t42 18t42 -18t18 -42t-18 -42t-42 -18t-42 18t-18 42zM340 880q0 24 18 42t42 18t42 -18t18 -42t-18 -42t-42 -18t-42 18t-18 42zM500 80 q0 24 18 42t42 18t42 -18t18 -42t-18 -42t-42 -18t-42 18t-18 42zM500 400q0 24 18 42t42 18t42 -18t18 -42t-18 -42t-42 -18t-42 18t-18 42zM500 1040q0 24 18 42t42 18t42 -18t18 -42t-18 -42t-42 -18t-42 18t-18 42zM660 240q0 24 18 42t42 18t42 -18t18 -42t-18 -42 t-42 -18t-42 18t-18 42zM660 400q0 24 18 42t42 18t42 -18t18 -42t-18 -42t-42 -18t-42 18t-18 42zM660 560q0 24 18 42t42 18t42 -18t18 -42t-18 -42t-42 -18t-42 18t-18 42zM660 720q0 24 18 42t42 18t42 -18t18 -42t-18 -42t-42 -18t-42 18t-18 42z" />
<glyph unicode="&#xfe;" d="M180 80q0 24 18 42t42 18t42 -18t18 -42t-18 -42t-42 -18t-42 18t-18 42zM180 240q0 24 18 42t42 18t42 -18t18 -42t-18 -42t-42 -18t-42 18t-18 42zM180 400q0 24 18 42t42 18t42 -18t18 -42t-18 -42t-42 -18t-42 18t-18 42zM180 560q0 24 18 42t42 18t42 -18t18 -42 t-18 -42t-42 -18t-42 18t-18 42zM180 720q0 24 18 42t42 18t42 -18t18 -42t-18 -42t-42 -18t-42 18t-18 42zM180 880q0 24 18 42t42 18t42 -18t18 -42t-18 -42t-42 -18t-42 18t-18 42zM180 1040q0 24 18 42t42 18t42 -18t18 -42t-18 -42t-42 -18t-42 18t-18 42zM340 240 q0 24 18 42t42 18t42 -18t18 -42t-18 -42t-42 -18t-42 18t-18 42zM340 400zM340 560zM340 720q0 24 18 42t42 18t42 -18t18 -42t-18 -42t-42 -18t-42 18t-18 42zM500 240q0 24 18 42t42 18t42 -18t18 -42t-18 -42t-42 -18t-42 18t-18 42zM500 720q0 24 18 42t42 18t42 -18 t18 -42t-18 -42t-42 -18t-42 18t-18 42zM660 400q0 24 18 42t42 18t42 -18t18 -42t-18 -42t-42 -18t-42 18t-18 42zM660 560q0 24 18 42t42 18t42 -18t18 -42t-18 -42t-42 -18t-42 18t-18 42z" />
<glyph unicode="&#xff;" d="M20 560q0 24 18 42t42 18t42 -18t18 -42t-18 -42t-42 -18t-42 18t-18 42zM20 720q0 24 18 42t42 18t42 -18t18 -42t-18 -42t-42 -18t-42 18t-18 42zM180 80q0 24 18 42t42 18t42 -18t18 -42t-18 -42t-42 -18t-42 18t-18 42zM180 400q0 24 18 42t42 18t42 -18t18 -42 t-18 -42t-42 -18t-42 18t-18 42zM180 1040q0 24 18 42t42 18t42 -18t18 -42t-18 -42t-42 -18t-42 18t-18 42zM340 80q0 24 18 42t42 18t42 -18t18 -42t-18 -42t-42 -18t-42 18t-18 42zM340 400q0 24 18 42t42 18t42 -18t18 -42t-18 -42t-42 -18t-42 18t-18 42zM500 80 q0 24 18 42t42 18t42 -18t18 -42t-18 -42t-42 -18t-42 18t-18 42zM500 400q0 24 18 42t42 18t42 -18t18 -42t-18 -42t-42 -18t-42 18t-18 42zM500 1040q0 24 18 42t42 18t42 -18t18 -42t-18 -42t-42 -18t-42 18t-18 42zM660 240q0 24 18 42t42 18t42 -18t18 -42t-18 -42 t-42 -18t-42 18t-18 42zM660 400q0 24 18 42t42 18t42 -18t18 -42t-18 -42t-42 -18t-42 18t-18 42zM660 560q0 24 18 42t42 18t42 -18t18 -42t-18 -42t-42 -18t-42 18t-18 42zM660 720q0 24 18 42t42 18t42 -18t18 -42t-18 -42t-42 -18t-42 18t-18 42z" />
<glyph unicode="&#x152;" d="M20 240q0 24 18 42t42 18t42 -18t18 -42t-18 -42t-42 -18t-42 18t-18 42zM20 400q0 24 18 42t42 18t42 -18t18 -42t-18 -42t-42 -18t-42 18t-18 42zM20 560q0 24 18 42t42 18t42 -18t18 -42t-18 -42t-42 -18t-42 18t-18 42zM180 80q0 24 18 42t42 18t42 -18t18 -42 t-18 -42t-42 -18t-42 18t-18 42zM180 720q0 24 18 42t42 18t42 -18t18 -42t-18 -42t-42 -18t-42 18t-18 42zM340 240q0 24 18 42t42 18t42 -18t18 -42t-18 -42t-42 -18t-42 18t-18 42zM340 400q0 24 18 42t42 18t42 -18t18 -42t-18 -42t-42 -18t-42 18t-18 42zM340 560 q0 24 18 42t42 18t42 -18t18 -42t-18 -42t-42 -18t-42 18t-18 42zM500 80q0 24 18 42t42 18t42 -18t18 -42t-18 -42t-42 -18t-42 18t-18 42zM500 400q0 24 18 42t42 18t42 -18t18 -42t-18 -42t-42 -18t-42 18t-18 42zM500 720q0 24 18 42t42 18t42 -18t18 -42t-18 -42 t-42 -18t-42 18t-18 42zM660 80q0 24 18 42t42 18t42 -18t18 -42t-18 -42t-42 -18t-42 18t-18 42zM660 400q0 24 18 42t42 18t42 -18t18 -42t-18 -42t-42 -18t-42 18t-18 42zM660 720q0 24 18 42t42 18t42 -18t18 -42t-18 -42t-42 -18t-42 18t-18 42z" />
<glyph unicode="&#x153;" d="M20 240q0 24 18 42t42 18t42 -18t18 -42t-18 -42t-42 -18t-42 18t-18 42zM20 400q0 24 18 42t42 18t42 -18t18 -42t-18 -42t-42 -18t-42 18t-18 42zM20 560q0 24 18 42t42 18t42 -18t18 -42t-18 -42t-42 -18t-42 18t-18 42zM180 80q0 24 18 42t42 18t42 -18t18 -42 t-18 -42t-42 -18t-42 18t-18 42zM180 720q0 24 18 42t42 18t42 -18t18 -42t-18 -42t-42 -18t-42 18t-18 42zM340 240q0 24 18 42t42 18t42 -18t18 -42t-18 -42t-42 -18t-42 18t-18 42zM340 400q0 24 18 42t42 18t42 -18t18 -42t-18 -42t-42 -18t-42 18t-18 42zM340 560 q0 24 18 42t42 18t42 -18t18 -42t-18 -42t-42 -18t-42 18t-18 42zM500 80q0 24 18 42t42 18t42 -18t18 -42t-18 -42t-42 -18t-42 18t-18 42zM500 400q0 24 18 42t42 18t42 -18t18 -42t-18 -42t-42 -18t-42 18t-18 42zM500 720q0 24 18 42t42 18t42 -18t18 -42t-18 -42 t-42 -18t-42 18t-18 42zM660 80q0 24 18 42t42 18t42 -18t18 -42t-18 -42t-42 -18t-42 18t-18 42zM660 400q0 24 18 42t42 18t42 -18t18 -42t-18 -42t-42 -18t-42 18t-18 42zM660 560q0 24 18 42t42 18t42 -18t18 -42t-18 -42t-42 -18t-42 18t-18 42z" />
<glyph unicode="&#x178;" d="M20 720q0 24 18 42t42 18t42 -18t18 -42t-18 -42t-42 -18t-42 18t-18 42zM180 560q0 24 18 42t42 18t42 -18t18 -42t-18 -42t-42 -18t-42 18t-18 42zM180 1040q0 24 18 42t42 18t42 -18t18 -42t-18 -42t-42 -18t-42 18t-18 42zM340 80q0 24 18 42t42 18t42 -18t18 -42 t-18 -42t-42 -18t-42 18t-18 42zM340 240q0 24 18 42t42 18t42 -18t18 -42t-18 -42t-42 -18t-42 18t-18 42zM340 400q0 24 18 42t42 18t42 -18t18 -42t-18 -42t-42 -18t-42 18t-18 42zM500 560q0 24 18 42t42 18t42 -18t18 -42t-18 -42t-42 -18t-42 18t-18 42zM500 1040 q0 24 18 42t42 18t42 -18t18 -42t-18 -42t-42 -18t-42 18t-18 42zM660 720q0 24 18 42t42 18t42 -18t18 -42t-18 -42t-42 -18t-42 18t-18 42z" />
<glyph unicode="&#x2c6;" d="M180 880q0 24 18 42t42 18t42 -18t18 -42t-18 -42t-42 -18t-42 18t-18 42zM340 1040q0 24 18 42t42 18t42 -18t18 -42t-18 -42t-42 -18t-42 18t-18 42zM500 880q0 24 18 42t42 18t42 -18t18 -42t-18 -42t-42 -18t-42 18t-18 42z" />
<glyph unicode="&#x2dc;" d="M180 560q0 24 18 42t42 18t42 -18t18 -42t-18 -42t-42 -18t-42 18t-18 42zM340 720q0 24 18 42t42 18t42 -18t18 -42t-18 -42t-42 -18t-42 18t-18 42zM500 560q0 24 18 42t42 18t42 -18t18 -42t-18 -42t-42 -18t-42 18t-18 42zM660 720q0 24 18 42t42 18t42 -18t18 -42 t-18 -42t-42 -18t-42 18t-18 42z" />
<glyph unicode="&#x2000;" horiz-adv-x="550" />
<glyph unicode="&#x2001;" horiz-adv-x="1100" />
<glyph unicode="&#x2002;" horiz-adv-x="550" />
<glyph unicode="&#x2003;" horiz-adv-x="1100" />
<glyph unicode="&#x2004;" horiz-adv-x="366" />
<glyph unicode="&#x2005;" horiz-adv-x="275" />
<glyph unicode="&#x2006;" horiz-adv-x="183" />
<glyph unicode="&#x2007;" horiz-adv-x="183" />
<glyph unicode="&#x2008;" horiz-adv-x="137" />
<glyph unicode="&#x2009;" horiz-adv-x="220" />
<glyph unicode="&#x200a;" horiz-adv-x="61" />
<glyph unicode="&#x2010;" d="M20 560q0 24 18 42t42 18t42 -18t18 -42t-18 -42t-42 -18t-42 18t-18 42zM180 560q0 24 18 42t42 18t42 -18t18 -42t-18 -42t-42 -18t-42 18t-18 42zM340 560q0 24 18 42t42 18t42 -18t18 -42t-18 -42t-42 -18t-42 18t-18 42zM500 560q0 24 18 42t42 18t42 -18t18 -42 t-18 -42t-42 -18t-42 18t-18 42zM660 560q0 24 18 42t42 18t42 -18t18 -42t-18 -42t-42 -18t-42 18t-18 42z" />
<glyph unicode="&#x2011;" d="M20 560q0 24 18 42t42 18t42 -18t18 -42t-18 -42t-42 -18t-42 18t-18 42zM180 560q0 24 18 42t42 18t42 -18t18 -42t-18 -42t-42 -18t-42 18t-18 42zM340 560q0 24 18 42t42 18t42 -18t18 -42t-18 -42t-42 -18t-42 18t-18 42zM500 560q0 24 18 42t42 18t42 -18t18 -42 t-18 -42t-42 -18t-42 18t-18 42zM660 560q0 24 18 42t42 18t42 -18t18 -42t-18 -42t-42 -18t-42 18t-18 42z" />
<glyph unicode="&#x2012;" d="M20 560q0 24 18 42t42 18t42 -18t18 -42t-18 -42t-42 -18t-42 18t-18 42zM180 560q0 24 18 42t42 18t42 -18t18 -42t-18 -42t-42 -18t-42 18t-18 42zM340 560q0 24 18 42t42 18t42 -18t18 -42t-18 -42t-42 -18t-42 18t-18 42zM500 560q0 24 18 42t42 18t42 -18t18 -42 t-18 -42t-42 -18t-42 18t-18 42zM660 560q0 24 18 42t42 18t42 -18t18 -42t-18 -42t-42 -18t-42 18t-18 42z" />
<glyph unicode="&#x2013;" d="M180 400q0 24 18 42t42 18t42 -18t18 -42t-18 -42t-42 -18t-42 18t-18 42zM340 400q0 24 18 42t42 18t42 -18t18 -42t-18 -42t-42 -18t-42 18t-18 42zM500 400q0 24 18 42t42 18t42 -18t18 -42t-18 -42t-42 -18t-42 18t-18 42z" />
<glyph unicode="&#x2014;" d="M20 400q0 24 18 42t42 18t42 -18t18 -42t-18 -42t-42 -18t-42 18t-18 42zM180 400q0 24 18 42t42 18t42 -18t18 -42t-18 -42t-42 -18t-42 18t-18 42zM340 400q0 24 18 42t42 18t42 -18t18 -42t-18 -42t-42 -18t-42 18t-18 42zM500 400q0 24 18 42t42 18t42 -18t18 -42 t-18 -42t-42 -18t-42 18t-18 42zM660 400q0 24 18 42t42 18t42 -18t18 -42t-18 -42t-42 -18t-42 18t-18 42z" />
<glyph unicode="&#x2018;" d="M340 880q0 24 18 42t42 18t42 -18t18 -42t-18 -42t-42 -18t-42 18t-18 42zM340 1040q0 24 18 42t42 18t42 -18t18 -42t-18 -42t-42 -18t-42 18t-18 42zM500 720q0 24 18 42t42 18t42 -18t18 -42t-18 -42t-42 -18t-42 18t-18 42z" />
<glyph unicode="&#x2019;" d="M180 720q0 24 18 42t42 18t42 -18t18 -42t-18 -42t-42 -18t-42 18t-18 42zM340 880q0 24 18 42t42 18t42 -18t18 -42t-18 -42t-42 -18t-42 18t-18 42zM340 1040q0 24 18 42t42 18t42 -18t18 -42t-18 -42t-42 -18t-42 18t-18 42z" />
<glyph unicode="&#x201c;" d="M180 880q0 24 18 42t42 18t42 -18t18 -42t-18 -42t-42 -18t-42 18t-18 42zM180 1040q0 24 18 42t42 18t42 -18t18 -42t-18 -42t-42 -18t-42 18t-18 42zM340 720q0 24 18 42t42 18t42 -18t18 -42t-18 -42t-42 -18t-42 18t-18 42zM500 880q0 24 18 42t42 18t42 -18t18 -42 t-18 -42t-42 -18t-42 18t-18 42zM500 1040q0 24 18 42t42 18t42 -18t18 -42t-18 -42t-42 -18t-42 18t-18 42zM660 720q0 24 18 42t42 18t42 -18t18 -42t-18 -42t-42 -18t-42 18t-18 42z" />
<glyph unicode="&#x201d;" d="M20 720q0 24 18 42t42 18t42 -18t18 -42t-18 -42t-42 -18t-42 18t-18 42zM180 880q0 24 18 42t42 18t42 -18t18 -42t-18 -42t-42 -18t-42 18t-18 42zM180 1040q0 24 18 42t42 18t42 -18t18 -42t-18 -42t-42 -18t-42 18t-18 42zM340 720q0 24 18 42t42 18t42 -18t18 -42 t-18 -42t-42 -18t-42 18t-18 42zM500 880q0 24 18 42t42 18t42 -18t18 -42t-18 -42t-42 -18t-42 18t-18 42zM500 1040q0 24 18 42t42 18t42 -18t18 -42t-18 -42t-42 -18t-42 18t-18 42z" />
<glyph unicode="&#x2022;" d="M20 400q0 24 18 42t42 18t42 -18t18 -42t-18 -42t-42 -18t-42 18t-18 42zM20 560q0 24 18 42t42 18t42 -18t18 -42t-18 -42t-42 -18t-42 18t-18 42zM180 240q0 24 18 42t42 18t42 -18t18 -42t-18 -42t-42 -18t-42 18t-18 42zM180 400q0 24 18 42t42 18t42 -18t18 -42 t-18 -42t-42 -18t-42 18t-18 42zM180 560q0 24 18 42t42 18t42 -18t18 -42t-18 -42t-42 -18t-42 18t-18 42zM180 720q0 24 18 42t42 18t42 -18t18 -42t-18 -42t-42 -18t-42 18t-18 42zM340 240q0 24 18 42t42 18t42 -18t18 -42t-18 -42t-42 -18t-42 18t-18 42zM340 400 q0 24 18 42t42 18t42 -18t18 -42t-18 -42t-42 -18t-42 18t-18 42zM340 560q0 24 18 42t42 18t42 -18t18 -42t-18 -42t-42 -18t-42 18t-18 42zM340 720q0 24 18 42t42 18t42 -18t18 -42t-18 -42t-42 -18t-42 18t-18 42zM500 400q0 24 18 42t42 18t42 -18t18 -42t-18 -42 t-42 -18t-42 18t-18 42zM500 560q0 24 18 42t42 18t42 -18t18 -42t-18 -42t-42 -18t-42 18t-18 42z" />
<glyph unicode="&#x2026;" d="M20 80q0 24 18 42t42 18t42 -18t18 -42t-18 -42t-42 -18t-42 18t-18 42zM340 80q0 24 18 42t42 18t42 -18t18 -42t-18 -42t-42 -18t-42 18t-18 42zM660 80q0 24 18 42t42 18t42 -18t18 -42t-18 -42t-42 -18t-42 18t-18 42z" />
<glyph unicode="&#x202f;" horiz-adv-x="220" />
<glyph unicode="&#x2039;" d="M180 720q0 24 18 42t42 18t42 -18t18 -42t-18 -42t-42 -18t-42 18t-18 42zM340 560q0 24 18 42t42 18t42 -18t18 -42t-18 -42t-42 -18t-42 18t-18 42zM340 880q0 24 18 42t42 18t42 -18t18 -42t-18 -42t-42 -18t-42 18t-18 42zM500 400q0 24 18 42t42 18t42 -18t18 -42 t-18 -42t-42 -18t-42 18t-18 42zM500 1040q0 24 18 42t42 18t42 -18t18 -42t-18 -42t-42 -18t-42 18t-18 42z" />
<glyph unicode="&#x203a;" d="M180 400q0 24 18 42t42 18t42 -18t18 -42t-18 -42t-42 -18t-42 18t-18 42zM180 1040q0 24 18 42t42 18t42 -18t18 -42t-18 -42t-42 -18t-42 18t-18 42zM340 560q0 24 18 42t42 18t42 -18t18 -42t-18 -42t-42 -18t-42 18t-18 42zM340 880q0 24 18 42t42 18t42 -18t18 -42 t-18 -42t-42 -18t-42 18t-18 42zM500 720q0 24 18 42t42 18t42 -18t18 -42t-18 -42t-42 -18t-42 18t-18 42z" />
<glyph unicode="&#x205f;" horiz-adv-x="275" />
<glyph unicode="&#x20ac;" d="M20 400q0 24 18 42t42 18t42 -18t18 -42t-18 -42t-42 -18t-42 18t-18 42zM20 720q0 24 18 42t42 18t42 -18t18 -42t-18 -42t-42 -18t-42 18t-18 42zM180 240q0 24 18 42t42 18t42 -18t18 -42t-18 -42t-42 -18t-42 18t-18 42zM180 400q0 24 18 42t42 18t42 -18t18 -42 t-18 -42t-42 -18t-42 18t-18 42zM180 560q0 24 18 42t42 18t42 -18t18 -42t-18 -42t-42 -18t-42 18t-18 42zM180 720q0 24 18 42t42 18t42 -18t18 -42t-18 -42t-42 -18t-42 18t-18 42zM180 880q0 24 18 42t42 18t42 -18t18 -42t-18 -42t-42 -18t-42 18t-18 42zM340 80 q0 24 18 42t42 18t42 -18t18 -42t-18 -42t-42 -18t-42 18t-18 42zM340 400q0 24 18 42t42 18t42 -18t18 -42t-18 -42t-42 -18t-42 18t-18 42zM340 720q0 24 18 42t42 18t42 -18t18 -42t-18 -42t-42 -18t-42 18t-18 42zM340 1040q0 24 18 42t42 18t42 -18t18 -42t-18 -42 t-42 -18t-42 18t-18 42zM500 80q0 24 18 42t42 18t42 -18t18 -42t-18 -42t-42 -18t-42 18t-18 42zM500 1040q0 24 18 42t42 18t42 -18t18 -42t-18 -42t-42 -18t-42 18t-18 42zM660 240q0 24 18 42t42 18t42 -18t18 -42t-18 -42t-42 -18t-42 18t-18 42zM660 880q0 24 18 42 t42 18t42 -18t18 -42t-18 -42t-42 -18t-42 18t-18 42z" />
<glyph unicode="&#x2122;" d="M20 1040q0 24 18 42t42 18t42 -18t18 -42t-18 -42t-42 -18t-42 18t-18 42zM180 720q0 24 18 42t42 18t42 -18t18 -42t-18 -42t-42 -18t-42 18t-18 42zM180 880q0 24 18 42t42 18t42 -18t18 -42t-18 -42t-42 -18t-42 18t-18 42zM180 1040q0 24 18 42t42 18t42 -18t18 -42 t-18 -42t-42 -18t-42 18t-18 42zM340 720q0 24 18 42t42 18t42 -18t18 -42t-18 -42t-42 -18t-42 18t-18 42zM340 880q0 24 18 42t42 18t42 -18t18 -42t-18 -42t-42 -18t-42 18t-18 42zM340 1040q0 24 18 42t42 18t42 -18t18 -42t-18 -42t-42 -18t-42 18t-18 42zM500 880 q0 24 18 42t42 18t42 -18t18 -42t-18 -42t-42 -18t-42 18t-18 42zM660 720q0 24 18 42t42 18t42 -18t18 -42t-18 -42t-42 -18t-42 18t-18 42zM660 880q0 24 18 42t42 18t42 -18t18 -42t-18 -42t-42 -18t-42 18t-18 42zM660 1040q0 24 18 42t42 18t42 -18t18 -42t-18 -42 t-42 -18t-42 18t-18 42z" />
<glyph unicode="&#x25fc;" horiz-adv-x="780" d="M0 0v780h780v-780h-780z" />
</font>
</defs>
</svg>
